<mxfile host="app.diagrams.net" agent="Mozilla/5.0 (Windows NT 10.0; Win64; x64) AppleWebKit/537.36 (KHTML, like Gecko) Chrome/129.0.0.0 Safari/537.36" version="24.7.16">
  <diagram name="PÃ¡gina-1" id="tTOamrQMET5nOG_yJ6WM">
    <mxGraphModel dx="1633" dy="834" grid="1" gridSize="10" guides="1" tooltips="1" connect="1" arrows="1" fold="1" page="1" pageScale="1" pageWidth="827" pageHeight="1169" math="0" shadow="0">
      <root>
        <mxCell id="0" />
        <mxCell id="1" parent="0" />
        <mxCell id="9JxhCkAgs9ULRW4WqkVQ-1" value="" style="shape=image;verticalLabelPosition=bottom;labelBackgroundColor=default;verticalAlign=top;aspect=fixed;imageAspect=0;image=data:image/png,iVBORw0KGgoAAAANSUhEUgAAB4AAAAQQCAYAAAADLEYYAAAAAXNSR0IArs4c6QAAAARnQU1BAACxjwv8YQUAAAAJcEhZcwAADsMAAA7DAcdvqGQAAP+lSURBVHhe7N0JfBTl4f/xb05ISAgEBAG5DyMIKKJQxQMFVLAIoqJUtP7xorSgFn5FUawUFQVRaRErUBSsiheIggooitGCIAoIBjGcRg4JV0ICOf/zzM6GzWY32SSbAOHz/v/GmeeZZ46dmd3+X3zzPBPSrl27fAEAAAAAlJ6e7izhRNh+68fO0qmp6RvXOEs4UWJiYpwlAAAAADh9EQADAAAAAAAAAAAAQBUR6swBAAAAAAAAAAAAAKc4AmAAAAAAAAAAAAAAqCIIgAEAAAAAAAAAAACgiiAABgAAAAAAAAAAAIAqIqRdu3b5znKJ8vPzFRkZqbCwMHsKDw9XaGjxGXJeXp5yc3OVk5Njz7OyshQSEuKsLbuIiIiC4wdyHgAC5/29zc7OdtYEl/lNMbx/E/zVAwAAAAAAAAAAoHgBB8AmYK1Ro4YdtpaHCZSOHDliB0xlEazzABC48n5v3dzBrhFouGu2MW3dcwAAAAAAAAAAAPgXULdZ0+u3Zs2aQQldzT7Mvsw+S6tatWpBOw8AgXN/b813sKw8e/WWJsgl9AUAAAAAAAAAAAhciQGwCWpNj9tghjBmX2afpQmBTdvo6GjCIOAEMd898x0sSwjs7r1bnu8v330AAAAAAAAAAICSFRsAm+GWTeBTUcy+A3l3b0WfB4DARUVFBfS9rSgmTHb3JgYAAAAAAAAAAEBhxaY4we75683s2xyjJDExMfT+A04SgX5vDc9hn4PF7IvfAwAAAAAAAAAAAN/8BsDmnZ+V8a7dko5j1oWFhTklACeDQH4fKrqXLj2BAQAAAAAAAAAAivIbAFdm6FrcsUoKmfy5+9KtalonQw3jMnXf5VsVmp/nrAEQDIH8RlRkT116AQMAAAAAAAAAABRVbA/gylLcsUoVROfn64n+GzXgvBTd2GWXujTdrwuaHLSWU9T3vN165sYN1gcmCAaCoaTvZmUEtITAAAAAAAAAAAAAhYW0a9fO5xiqcXFxCg0t9hXBQZObm6vDhw87pcICPY/QkHzl5Yfokes26eqWvylra4Re2NlEx3LD9H/NtyqycY4+/yVej8xLUHiYdcw8giOgPPLy8nTo0CGnVH6PPvqoPaTz+PHjnRoAAAAAAAAAAICibrrpJmfJt7fffttZOjlcf/31+vrrr/Xbb785NYWdccYZuvjii/X+++87NeXjN1mtrPDXKK4nYaDnMfb3SZp4ywaN/6iN5n9/piKX1VDGpghlbglX5NIaWvTDGRrzwdl64qYku5ew6S0cqDfeeMNZOm7KlCm69dZb7eWnnnpKM2bMsJc9mborrrjCXjZt/vznP9vLZm7K/pj1vo5ptjH17sl9fMMse66raOZ45hqUlvkMZdmuvCrjmpwK+vbtq8GDBzul40ydWVcalfkbURzeAwwAAAAAAAAAwOnHhLy+ppPR//73P11yySWqW7euU3OcqTPh71dffeXUlF+5E5xLL71UZ511llM6ztR169bNKVWsiNA8rUqurfNrH9D4K5L04ppmWp9eXfc1SNGfG+1UUno1vbC6hcZ2+0kX19uvFZtrKyIsuENB16hRQw8//LBTKp9GjRrZfwHgDow9mZtvwtd///vfBYGdCZmvuuoqu969zte2J4OHHnpIw4cPd0olI7gNrsjISPXu3dt+TtxM+GvqzLpTEcNAAwAAAAAAAABwejA9f929f93LntPJau/evXYPYJOdeobA9erVs4Nhk//t27fPqS2/cgXAMTExuueee+yhWxs0aODUyl42dWZdbGysU1tx/nDRTg3//Rbl7w7T5d/k6MUDW1T72jTNj4zXPNVVjT5pmnp4i65enaO8X8I0tM823XXJDmfr4DA3pn379gU9fsvDdPM2fwnQpk0bp6aozz//3FlyXW/PLuNm3b/+9S+nBBz3zjvv6N1337X/eODGG2+0g2AT/po6sy5Y6JULAAAAAAAAAAAqgq9ev2Y62XmHwCb8dff8DWb4a5QrAE5PT9fkyZPt3q8m8DUnasJLsxwdHa3nnntOaWlpTuuK89GG+nr+w5Z6JrmlxoQ2VNQ5R/XJtrp67cfGemNTI32QXE8xVt2jYQ01YVsLvWC1fX/dmc7WwWNu0A033OCUysb03DVhrun5aq6hv0DZtNu2bZu9bNo2a9asxB7IZl+mrXtytzchoBmW2XOIafdx3cNRuyfPnqOGWe89/LV76GvT1r2du405pudxvdd7MvXuuXvIbLOtexszeV4fz/2ZyV8vaM82/q5vVeYOgQcMGGAHwcEOfwM1atSoQlP9+vV15plnFqkHAAAAAAAAAACoCkwIvGLFCl1++eV2z18TCAc7/DXKPQT0d999p0mTJqlmzZoaM2aMHnvsMXvZ1Jl1lSEyLE81q2WrRkSuovPzFJoVovCQ40M8R4TnKzQ7X1G5uYqx2pi2keHBHQLacPe69Rc8BsL0+l23bp29vGXLFjv592QeBhNcmvknn3zi1LrCTxOemXXeIa2b6Rls1rkn02PZzQT3KSkpdv369et19dVX2/XmM7nbL1iwQL/73e/sejf3Z3YHqaadCbDNscyw1GY4alN311132es9lbTe1LvnZuhoc11btGhhl81kzufee++125jjmzDTvT8zmWtk5p5MkOweRttMnj2pUbnOPvvsQlP16tUVHh7urAUAAAAAAAAAABXF1/DJviZUjJycHB07dswpBV+5A2Dj+++/19NPP634+HjFxcXZy2vXrnXWVrwrE/bptit/0Z/P2q4xobu1f2uUrmqyX/ecu113td2h3k1/029ba+jhsN36S8PtGtT9F/Vqe3zI5GB677337OCxLEyIaXr9mhDXMKm/CTw9eYaXt912W6GA07xb15RNEOovhPbs5evJhLbuMHfr1q12r2430zvXtHe/c9ibZ1DdoUOHggDb7NMd0PpS0npv5t3I5llzM+dk9mE+87nnnmv3iPYMdE2Q3bx5c6fkYkJuX8Hw6cQM/Wx6/5qevyZEN8umrrKZ0N9z2r59uz2qwMSJEwtNAAAAAAAAAAAguHwNoexrQnCZ0ZS7du1q532rV6+28zXPdwIHS1ACYMOEbabXr5nMcqXJz9drKxtrxidNFdokRx93jtSIuGY68GGMrkw7pCuPHVT6+zG6v0Yzze8UpbAWOZq91Gr/ZRNnByU7cuRIkaGCTVC7a9cup3ScCSDN5zdDFWdkZDi1gTE32QSv7oDWhKOm7C+sNOFnnTp1nNJxJtTz9f5gE/6aIbnN/gINQE34++mnn9rtzX59efLJJwuCatOT2B0um167ZjtT9jXEc0nrA+XrPrgdPnzYWXJx92g2PZnNcU+3IaDd4a+5l2bYZ3MNFi1adMJCYAAAAAAAAAAAgGA5mXstu9/5m5iYaA/77P1O4GAKWgBsmF6/ldnz1y03P0Ttmx3Wlyl19eSyNhp1UbLa1zmm6akNNW3fWTq7TpbGdNmsZ79sqSVb66mj1TbP2iZQJmh1D4lsmN61Jtz1N3ywCUTN8MomJC4NE6KaYM4ElO7JhMmmV60vJmxNTU21z8e0dTO9Xk1o7Ys7EC3NMNXugNXfeRjmGpmA2fQG9uY+N39ha3HrPcN303v3vPPOs5cNs525xuY+/PDDD/Z7kD33Ye6BqffF9JY2PYZNz+HTSVZWlh34ukN6Y86cOXadWQcAAAAAAAAAAHCqOll7LnuHv24VFQL7DYDz8oL/jlx/ynWsEFeQO37B2XrsvQT9o++Purrdbzra/Yhi2mQrumm2jvZI1xVn79ekGzboiQVt9Oi8cwq2C4TpqerZM9cMIWwCxOKYrtuewyh7M2Gle39mcoegZtmTuemmrZs5tnsbMxyymZtereZ9uu568y5gc87ezNDM7u3NcMqBMIGu6YlstimO2bc5T3O+bu6ho81k9uMdmJe03nAPE23CZfM5TTv3NmZIave7g822Jjx3n6uZTNl7n55DYJv74x72+nRhrokJfL2ZOrMuWEJK8f0CAAAAAAAAAAAIlPd7it3TycyMTGuyQ8/w182EwCtWrCjzK2Z9CWnXrl2+s1xITEyMIiIinFLFys7Ott/96Uvt2rWdpZKF5OdrzPU/ac2WmhpxzVbN/LSJMrLDdH/vZD27sLW6tDygcQvaKC+4HZ9hMQG26SHsK3hG1XXgwAFnqah86/tIEAwAAAAAAAAAAFC5wurVq/d3Z7mQsLAwhYeHO6WKZQLgnJwcp1RYVFSUsxSAkBAt31RXm/fGKj9X+vLnuvrlQJTSM8P13pqG+vynM5QvAqmKcM899+jbb7/1O+QyqqajR486S0UR/gIAAAAAAAAAAFQ+vz2ATe9f0wu4MpjevyYE9qU0PYBR+UzPXzMUs3mfLr1/Tz/F9QA26AUMAAAAAAAAAABQufwGwEbNmjXtnsAVyfT8TUtLc0pFEQADJ6+SAuCKRLgMAAAAAAAAAABQVLEvwzU9c03IUlHMvjMyMpxSUaGhvKsXOJmdiO+o+zeJ8BcAAAAAAAAAAKCoYtObvLw8ZWZmOqXgM/vOzc11SkVVdO9jAOXDdxQAAAAAAAAAAODkUmL3vWPHjtm9dIPZE9js68iRI/a+i2PeQwzg5BUeHu4sBaY8vyP0/AUAAAAAAAAAAChZQOO3mqD28OHD9vt6y8vsw+wrKyvLqfGvtOESgMpV1j/SKE0QbNqWJzgGAAAAAAAAAAA4nYS0a9euVMmKGfLVTCb4cS8XxwzxbKbs7Gw7/DXDSgfChL+xsbFOCcDJKi0trcx/HOKvV6+pp6cvAAAAAAAAAABA6ZU6AK4scXFxCg0NqIMygBPI/FHHoUOHnBIAAAAAAAAAAABOpJMyYY2JiSH8BU4R5rsaHR3tlAAAAAAAAAAAAHAinXQpa1RUVJnfKwrgxKhWrZr93QUAAAAAAAAAAMCJddIEwOZ9n6bnb/Xq1Z0aAKcS892tUaMG7+4FAAAAAAAAAAA4gU6KADg8PFw1a9ak5y9wiouMjLS/y+Y7DQAAAAAAAAAAgMoX0q5du3xnuVKY3oFmMu8NNSGRCX0Ji4CqJycnR9nZ2fY8Ly/PngAAAAAAAAAAAFCxigTAYWFh9vs8TUBrls0cAAAAAAAAAAAAAHDimU53ubm59uTujOepULobFRVlD99qAmDTM5fwFwAAAAAAAAAAAABOHibDNVlu9erVFRsba889FSS8vlYCAAAAAAAAAAAAAE5eppOvyXrd7ADYBL+8hxcAAAAAAAAAAAAATj0m63V39g017/k1qTAAAAAAAAAAAAAA4NRkMl+T/Yaa9/0CAAAAAAAAAAAAAE5tkZGRCunatWs+wz9XnJCQEHsyL2M2c3edkZ+fXzDPy8uz5+46yL4mWVlZ9pSbm1twnQAAAAAAAAAAAE5F7rzI9NI0QZ2ZTB2CyztvM9fcXee9XNXk5OQo5JJLLsmvih/uRDNfVvPlLe21NQ+cCTtP56AzOztbGRkZ9hwAAAAAAAAAAKAqi4iIUHR0tD3HiWHyuaqSl5qMMZTwN7hM8Gu+oKZXdVmurdnGbGv2cbr9xYcJfA8dOmRPhL8AAAAAAAAAAOB0QD5y4lWlvNTki/QpDyJzQcsa/HpzB8GnSwh87NgxftgAAAAAAAAAAMBpyx0Em8wEpeM95PPpjgA4SNzhb7CZfZqhpKuyo0eP6vDhw04JAAAAAAAAAADg9GUyk8zMTKeEklTE8M2neqAc0q1bNyLxcjIBbUWHtOaFzVXxvcDmB+zIkSNOybdq1arZL0E319jdI9pcC/Ou5KysrKD/JUxVGucdAAAAAAAAAICTgTtQ49/fAxcTE6Pq1as7JXirjDznVM2M6AFcTiaQrIweulVxOGgT3qanpzulwsyXqUaNGqpTp45iY2PtENh9Ddy9rU2dWWfamJejB+MLeKr/RQcAAAAAAAAAACcjz3/D59/iA2MyFJOlAKVFD+ByMD9WERERTqlymPHfq8IPo+nRfPDgQadUmOnta/6qpbSBt+kVnJaWVub3CJ+qf8UBAAAAAAAAAMCphH+PD5y5TrVq1aryrwstDXdOFsgzdFGn89TunASd3aa1WrVsqezsHG3atEk/b92mn37+Wd98+53TsmohAC4HE/5W9g+UeajLGnCeTMxLzL0/h/lsptdvVFRUma+r2UdGRoY9lWYf/I8NAAAAAAAAAACVh3+XD5zJo+Li4pxSxWrXrp2uu+46u9PdokWLtGHDBmfNqeXM+vX012H36tyEs5W8aaO2JW9WXGxNte3YSfENzrJfL5qfn6eNm37SpClTtWv3HmdL30615zWsSZMmf3eWUQqVNfSzN/NwmYfMTKcqE/yagNabGdLZ9PwtzxfIbGt6EJv3A5upNPgfGgAAAAAAAAAAKg//Lh8Yk3eYDKUyXhU6dOhQ1a5d2+6w17x5cy1fvtxZUzEaNGhgv+7T3ytDvQUSxF595RUaM/J+tWjWQove+a8mTXhSK1d9q6/+9z99vWypatWIUvM25yg3P09n1q+va3v20oHDh/Vz8hZnD76dSs8rPYDL6ET0/nUzD3ewegGbd+neeOON9vI777xjD81c0Q5bXyLvMevNeZi/XvF3Tc36Zs2a2T82xtatW7Vt2za/51ua4aBPtb/aAAAAAAAAAACgKijvv89ffvnl6tOnj8444wy7vHfvXn344Yf68ssv7XJla9T8XHuesvUHex5MpvNbzZo1nVJwXHrppbr66qvtcDlQn376qT7++GOnVH4tWrSw51u2FB++upX0zPTu1UPD7vp/dlieeSRdjz44TEd/26uzG9RXTLVI7Tl4WL8cydSEl19RfL0zlZubp5CwMIWEh+n5f76oDxd95OypqGDmSWZY7xEjRtjLkydPtjOtYKqQALhnz552YPfRR/4vUmUyoaEJBLdv3+7UlJ/5opWG6S184YUX6uKLL1adOnXsv2T49ddflZycrK+//lrdu3fXlVdeqTFjxjhbFC8YL/02P4h//OMfVa9ePbtsfhhfeeUV/fbbb3a5IpgvR2pqqlM6zvx1h68fGPNFuummm+wfcPOZd+7cadc3btzYvgfmR+bNN9+09+vNdN8P5AsTzC8sAAAAAAAAAACoeAMGDLCHKt6zZ4/Wr19v17Vv317169fX+++/r/nz59t1lemGe56y5++9/JA9D7b4+Pig9gJ+6qmntGPHDjurCkTLli3VpEkTPfRQ8D5fMAPgBta9n/rs06oWGanqUVHauO57TR3/iB7seanOiotRTMOzFFK3vn60npeYbr1V3yqbjoZhYeFSRJgyjmTo3j+P0K5du509FubOooKRKV122WX6/e9/by+b5zUxMdFeDpagDwFtTrh3797WxdmlpKQkp/bEqlu3rv1Ami7ypvdpeZkvV2m+YKZn65AhQ3TBBRfYoa+5LiYENd3aO3bsqFatWtnhZqNGjfTZZ585WxXPPGS+Qs9AdejQQXfffbcdur799tv64YcfdP7559sBtQmAzQ9mRTChrHd4bb4o/oZ+Nudonqk5c+Zo+vTp9l+WfPHFF/Z1OnDggP3jbgLsNWvWOFscZ0J31xjuJV2nLvrri+N1Tdz7+jz4f5QTgIv04NSH9bt9i/S/FKfKuPVxzbqpgd7v/ICWjLpM6XMXq+K+USM1c8koXZY+V4utg/SfNE//HNhYcxZ87ayvLLfq8Vl/1R39+qmfNfVquUuLCi6KuU7jdc9NrnX21Cla7xfctMLrC2/r4aIHNfXh32nfov/Jx1oAAAAAAAAAQCUpLswrzkUXXaQ//OEPdl7w3HPPae3atXYI/Pnnn9s9K02vVhNs7t7tO8irCDVq1tH1dz6ueo1a6dsv3lH2sUxnTfCYzpdmCpZrrrlGq1ev1uLFi+0QuKTJBNCtW7fWkiVLnD2Unxlu2jCZT0mKe15M/WMPjbJDYMN0Ity7d4/WJ36uyxJaKrRadeWHRyoyJk5xYfnKjjtDUfF1lZeTrdDQMMmawsPC1aZ1K32y5FN7H97cxy7LM+vt0KFD6ty5szIzM7VgwQI7zwqmoA4W7k6rTY/WefPmObUn3s8//6yUlBT7LxPOOussp7bsShP+mhBy8ODBdrf8//znP5o1a5YWLlxop/nPP/+8HWyaINj8WJVGWf/Cw/ww3HzzzfY5mZD32WeftcNTM5llU2fWmTbB/BFx89Vz2XwJfX1ZrrjiCjuQ/sc//qFly5bZX4Lo6Gh7OnLkiP0DM378eF1yySV2W29mn2ao7pIE8j296MGpmvX4rU7J5dbHZ2nqg6W7bz7d2kftlazEb5yy7SI92K2JdiS94ZSriP6TNG/JTI10ioWZALeX6q6fpjvvvNOaFmtf+6E6ftlbKi46Q+unmXXO9Njx63Pr40PVft9iP9u6mHs2a2h7RTtlAAAAAAAAAMCJU9Yg7dprr7UDw9dee83u/OdmenOaOrPOhMCV6cIrb1ZYeLg9Xdj9Zqc2uIIxOqy30gz/fDI7u3Urndv2HIWYTpxhofb7fWvVqaszG5ypfRlH9fqKH7X4m41at3KF5n2+Sgf2pdrPi/0EWv8JscNl6dx2bZVwdht7nxXp4MGDeuyxx+wMLBidV70FLQB2h7/ffPPNSRX+upkQ2PRKDkYIXJofpC5dutgBrxlqwPx1hKerrrrK7vX7yy+/ODWBK+uP4v33328PRW0C1X/+85+F/qLCLJs6s860MW2DzfOH2K169erO0nHmB8f89Y55L7H5Kx23QYMG6dZbj6d6Zlhv08a09fUjdSr8cN2a0EQ7EiercP7bTS21XgurWP5bPFfAm1yQhL+hJOvW123gGbLv065CF8rtViU0ydD6ggv2hhauz1CThOPPigl/e2mx7lx8/HkCAAAAAAAAAJx6TM7z/fff2wHe6NGjC03Z2dl2j2DzKsnKYnqQXnDFTU5JuqD7Ta5epUHmK2MpL5Pv9erVyymdutqefbZCQ8wIviGuTpThEaqZk6UL6sQrLDdPtatVV1hElDJyQpUXWk1RyrdfH2unv/khyjfLzoiy5yScbc99KWs+V9mCEgB7hr9mOOGT1aZNm4IWAgfKDKtsAt6NGzc6NceZd/6aybyjuLKYse/NEAiLFi1yHuzCTJ1ZZ9qYtsHm65iml7Q3M05/VFSUfR6eZsyYoZkzZzolF9PGtD33XNfL1T2VrhezGX54lt1Le9asqXJ37jXB4dD20VKTXva6x281PVVnqVcTKbr90ONtzZDNUx/URWbu3o8pu3bjWj/rcesonkxwuUPeHX0v6tZSSk4sHAoX6K9J85bYPaBd0zxN6u+schs502P9Es10utyaoZ191fszcubxtvMKHaSEc7B7+h5fbx/HnNOfOipGTXS1qTeVZjjmgmttAt9ote/jvkKuULcgEL6ogeq6loq6NUFNMgr3ov4mMVkZTRIKrvcbjxXuMQwAAAAAAAAAODUFEoRWVFDXtM0FOq9bP3XrM0S9bhmpG+6doDsfekWxccf/BdssmzqzzrQxbc02Ztvy8JWxlMfEiRO1YcMG9ezZ037dZqBGjRqldu3aOaWTQ4cO7RUSGq7QMNMLO1L5ObnKt56BetUi1Lx2bfVr3VCd4kLVvvGZurp5XcXHxtghvQl+8/OtKS9fMvlvfn6xAXB5Xs/q7Xe/+509Em5FKHcAbHqxmvDXfOA6depo6NChxU4VzbxT19903nnn2UGh4X5RdVmU5kfjjDPOsN/768uYMWOKTIEqzw+X+euXkgTSpix8fTF8fRbTM9r0SDZDPXu64YYb7MmTaWO6ypttvJXmOjXplaAkZ2jhxSaIvMMV3prgcNr6DGmHa3jhx974RpOHmTZShj1c8TBNdgeP0e01NCHJGYbYarPPKnuPQ+zhoge7qcmOJBWOJW9Vn/Ym//UV/5rg9U/quP8T+wfZnj7Zr45/8hhW2QStV0ufuNe/uFauft79dUntZL3o1L+4Nl1NLplk1frR5Gqd86P7GDsU0/F2J+Qt6Rys9bd31P5PnHU9P9GPpnrSEPtc0rXDdW5DJtmtPZlrvViuoH3WrG46NM3j2tqaqJevcB0AAAAAAAAAcNowHe9MRzLTCWzChAmFJvNqSJMJmZFhK0J2VqZ63vyAetw4Qhdffbs6dO2txq06OmuPM3VmnWlj2pptzLblEewAeO/evXrvvffsZfNu30CZsLh/f7/pwglxTkIbhZjev2Hhys3J0tGD+1S9Tl2FtGmnvYcOac+hA1q6YqXeeOMtrV77vXLDwpSfnWXnVvn5uZI95Ssk39pXG/8BcLB06NDBzrvMdayIML3cAbC796YJ2soTSlYmdwhZWecbyF8DtG3b1u5JXZlMCG669XtOpq4ileaa+3rPsQl5SxP0BnLt3XYsfqwgiH1j4XplRMep1FcjY72mefQytffj7oX6xmO6887jx5Aukunoe3zYYofpzboj0Sv4dPS/RC1jdugTz/B00odam95E59jpa39NuqSJdnwyRAUt5o3USLswTyOHjLT+6zLvq2Slx9T2/xl3fKKCw9jHiFFt07jEc3CJP9P94z9JkzyaFvLNZA0rCNBdPasTklzh+Z13vird4fGeZbute50TrhMCAwAAAAAAAMBp55NPPlHdunV12223FRpl1ATCpq527dp2m4rw67aNevnxW5S6e5tTUzLT1mxjti2PkymHC3YYXV4hrrf5KvvYUeVkZyskIlLhERHKrFVXy5N+0q9ph9SwVpzaN2ig8NrxOpQfqrB86zPk59q9gPNML2C7J3CeIiNKM7ps2XjeS195WHmVe4+LFy8uGKbX9MKcNm1asVNFM+O6+5vMePCZmZn2Rd25c6f9/tiyKE2ouG/fPvsdwCUxLyw/55xznFLJSnMO/piwt6AHpzOdiADY14/E7t27FR8fr5o1azo1/sXFxdltfb1L+YT/AH2zS/ucxSLs9/wWHrbYsN8J7D0mtFvL2opJP2Bt5Wmedu93B64tVTsmXQcKNzjOc2hoezjmMijxHOZpZP8XldzyT67jlDTOtNutfdS+0HuPv9HkV9dbx+vmM+R947HF2hHdUt2KS4AzDnmdJwAAAAAAAADgVLdq1Sp9+OGHuvzyy/XEE0/oD3/4g+644w6NHz++oLNdQkKCPa8Ih1J36eVxg7T1R189uQozbUxbs015BTsANsGjGeXX2Lx5sz0PhMleFi5c6JRODslbtion65hys7MUonz7Wh3NztHO79do2YbNejnxO6XkSV8fOqSteRGKrVPXfoe0Hbfl5jnxsSsETk7eapcqkskt58+fr3feeUfr1693aoMnKJGyuckmBO7UqZNuuun4S65PJiYwPfvss+0w1oS/W7ZscdZULBM6m6GmzbH9ueiii+wA09d7giuDGavdTJXB1/t+zRfMm3nw09PT1adPH6fGv969e9ttzTj13iriheilUsx7a291jfNc+D2/Fz2obj7eCVwg+YDfXrv7d5u+vck64O6p682Ev5ccKBgC2jUccxmUeA6GCYFdx/lEVwceApfaPu0yFzD5UJEe2+Y9ytH7dvl5jzIAAAAAAAAA4FT27rvvasqUKfrpp590/vnn64orrtDhw4f1r3/9Sx9//LGuu+469evXz2kdfMcy0zV70j1K2Vo0m3AzPX5NG9M2GHxlLOXx9NNP269PXbp0qT0cdKD+9re/2TlOZSsuADdDfudmH7OW8u1evKH5edqzZ48aduysHl06K/XwEc1Z+7O+3JSsui3PVnRUtOk2LIWGyX79b74ZCto1T97qPwAOZgj/1VdfaeXKlU4puILWp9gdApsw82QMgYMZ/pam9+2KFSvsB8yM4+09froZh978IJkfIfOe4K+//tpZU7Jg9AA+EXz9OPl63/DRo0c1d+5c+9q0aNHCqZXmzZtnT26mx7Jp89prr+nYMfPFLiwrK8tZqiTR7dWn4JW/F+nBO9qbMZ5dwz7f+rhmzXrcNRy09d+EJjuU6DXOswktC9r7Mu8rJac30dWegerImbra2tePzjDPXyWnq8nVHu8E7j9Jk6xC/zPjTUJrtXCqL2lZth7AJZ7DSM30WJd8oJj/YbvoQU2dNVX2KM9vJGmHr+vnDslvfdDVznHr472Ovz/5m8lK3NFEvQret2zeoxztvyc1AAAAAAAAAOCU99133+k///mPRo4cab868Mknn9S3335r5wtmCOjrr79eAwYMcFoHnwkao6JjnVJR1a11pk2wBDsANpYvX15hw2UHW3HZ2ObkZHNDFGK1Mb2Ak7ft0OZNP+lYtWi1uP4PuvvmGzQ4oZHObtRQkfUaa/3GJO3avVe5Odl2EJxvUmBrys/L1c/F5IinSj4X1EGlPUPgk+nlz61atQpqz9/SDCtsere++uqrOnLkiP74xz/q//2//2f3WL311lv18MMP2z0kzbrXX3+9VL1VT7ax1QMVGRnpLB3nL6Q1f3GSlJSkhx56yH4ZtmGGeXYP9Wx6nJt1H330kb744gu7zpuvcNlbIN/VbyYnakeTXpo1a5bcGaN5v6/aD7XqnADTyFivQwmz7HazZg1V+32LNczXy3zt9/w64WUB1zuBk73HhC7ENbzy2virjw/lfLX0Sc/j7/ydN7K/Xlwbr6sLhno2OzX1X1mf4fh2t9feX7YewCWeQ7IOeKz7U8tkveh+X/C8kfpqRxPXuRXpFfyGHrtzsdTL3/WLsy63e90s9dJi3en5vuXHpml9Xdc9mjWrl7T4TnmsBgAAAAAAAACcZCoyTHvzzTftYNN0IjNBcEWIrXWG4us3cUpFxddrrKgacU6p/HxlLOXlq3Pdyaq43rfffPudtm7faX+e5F9268CRTNWsU1fKzjKhmn6Na6gaDZqo5++6qFpcLeWGhGrvwcP6dc9e60HMlXkSTfa2fdtO/e8b/zlNsHoA16pVS4899pg9xcb6/yOCsgrp1q1b0L9d11xzjT03XexPBs2bN7dvSDCHfS7tl8y8ePyCCy7QpZdear983DDBrxnXe9myZfYQxqVR1p6tEydOtK9DcnKy3XvW9K51D/9c3LpgMT/mqampTuk4865fX9fU9JK+8cYb7Wdq//79OnDggF1vXu4eHR2t6dOn++0eb77kaWlpTsk/c05B+cKaHr7dDmnasMklDDt8kR6cOlRxiV4BZcDbAwAAAAAAAABw6gvav88XY/Dgwbryyivtd60G+7217S66WjcNnWgvH0zdpUVznrSXew9+WLXqNLCX335xpDasWmwvl4e5TnXq1HFKwTFhwgRt377dzoUCYbIj89pT0zkvWNyjwAaS4ZX0vDQ9q5H+8qd7lZMvhYWEKjQsTDk5uco5lqmMIxk6knZYDWtUU369sxRhrTP7ysnOUt24mjqzXl1lZWXrL38box1OR8SKZN5V7X7/8vvvv6/ExER7OVgqJAA+HZhgsqJ/lPwxD3ggPVt9MSGvN88A2FtFvBv40KFDRc7fvGjcBOP+rmlUVJQuueQS+y8iDLMP82XIzMy0y97MNTKBsZmXJGj/AxNogGuGPb5DetWr3a2Pz1JCEr1WAQAAAAAAAACnh6D9+3wJTAhsMoNgB8B9Bo/R+Zf211cfzdLyD6YrN8fVeS8sPFKX971Hl1x7p1Z//rY++u8Eu748TCc605kumEwI2atXL1WrVs2pKZ7pnGg6f3755ZdOTfmVJgA2Snpmul3yO/W77jplHj1qfa7q9rDZ+db/CwsNVVraEf3y6y865+yzlZubZ687mpmhcGvepulZmvX6m5q/yP9w2MF8Xk3e9cADD9gjCb/wwgv2+6uDiQC4jMwNNiHwiWDC00CCzZOVeZgPHjzolI4L5o+X6fkb6LAFlR4AAwAAAAAAAACASguAK0qvW0Zq9bK3tX/PdqemsDpnNlOny27QkrcmOzVlZzrRVcQ7gE808wpXY9euXfa8JIE8M10vulA9r7pSUdWjFBEZabc3k8mn0tPSVKtWbSkk37qe4co8kq5jWTlavHSJvl5ZddIdAuByMMM6m56rlcmMP24e0FOd+UsGX8NYm2GdzVQeGRkZ9lQap/r/yAAAAAAAAAAAcCrh3+UDZ3roVsR7Yk9VgTw7teLidH2f3jqnbYJVCnX1BLa2k7VZqLWtWQwPj9C6dWv1zrz5SivhVa2n2vNKAFwO5kabELiybrh5uEz4az+gpzgTZJtewGbuzfSsNj9kpQ3Xzb7Mu5TL+n5kAAAAAAAAAACAk4nJSsxwwZXdIfFkF2ggWyc+Xs2bN1OrFi2seXN7m+QtW7R16zZt3b5Nv/22z2np36kW/hoEwOVkvnAmBK4MJvz1FZieqvwNBW2Y6xoTE2MPCx0IE/qa8DcY1+dU/CIDAAAAAAAAAHCyc3dw49/gAxcXF3fCXkl6squMPOdUfWb5c4FyMoFjZQzJXNXCX8ME5ybk9cV8VjNMtAmIzXDO5n2+7t7PZsrNzbXrzDrTxrQN5vVxf6EBAAAAAAAAAEDwEP4GzmQohL8n3qn4zNIDOEgqsidwVQx/PR09etTuvQsAAAAAAAAAAACpRo0aioqKckpA6dADOEgqoiew6YVa1cNfo3r16qpZs6ZTAgAAAAAAAAAAOD2Z3qYmMyH8LZ1gjuxaFUaJJQAOIhPUZmdnByWwdQfKVT38dTPv+o2Pj7fDYIZfBgAAAAAAAAAApxOTjVSrVk21a9e2MxOUjgnOzTUsT8bk3rYqDFNOABxk5uEwwa0JgsvykJltzLZmH+V5SE9FZhhtM569+XFjTHsAAAAAAAAAAHA6MJmI6SQXGxtrZyUoGxPclie8rQrBrxvvAK5g7ofNfGHdD4577g54zdz09DXz0y30LY65JllZWfaUm5tbcJ0AAAAAAAAAAABORe68KCwszO7payZC34rjzt3MNfe1bLhzu6qEABgAAAAAAAAAAAAAqgj+pAAAAAAAAAAAAAAAqggCYAAAAAAAAAAAAACoIgiAAQAAAAAAAAAAAKCKIAAGAAAAAAAAAAAAgCqCABgAAAAAAAAAAAAAqggCYAAAAAAAAAAAAACoIgiAAQAAAAAAAAAAAKCKIAAGAAAAAAAAAAAAgCqCABgAAAAAAAAAAAAAqggCYAAAAAAAAAAAAACoIgiAAQAAAAAAAAAAAKCKIAAGAAAAAAAAAAAAgCoiaAHwPZdtU9M6GWpU66juu3yrwpTvrAEAAAAAAAAAAAAAVIaQbt26lTmpDbGm8f03as3WON3TY7tmftZER3PCNeLaZP3rkxb6Xav9eujdtsrNNy2B0rv44ovVu3dvVatWzalxWbJkiRYvXuyUAAAAAAAAAAAAABhhTZo0+buzXCqhIfnKV4gubrVft52fIm2J0FeHa+tYXqi65aWp27mpSj4YrU+TzlBYqNW2xBC4r+6feK3qLVmhTU6N1FFDxg1Tp/3L9N0eqzRknEYO6qioQm2sLe8fp26Zx9sM67Rfy0yh7/2aeG09LVnh2dqDWX9X1yL7cx2nt3r16mVP7aKWqGAX9jYDnHXtimwbdB2HaNywTtq/7DtZnyhg9me4PNb/Zz9F/OlPf9Ivv/yi1atXa8uWLfaUkZGh3/3udwoJCVFycrLTsqzMMzZSg3q77nWR+10Bqsq9AQAAAAAAAAAAwMmnzENAP9Z3kybeskHjP2qj+d+fqYjPopWxKUJHt0YoYkm0Fv1whh75MEHjb/xRT/TfaPcWDobMzHhden9fp1Q+fVvEKyUlXp2HdHRqjstMek2jRo3SqNeSFH/p/bKPaMLYS6UvTb29Lk1nBOdUgm7tzLEa9fwCp1QSE4KOk4/LcMKFh4fbIa/p7eueZs+erW+++UY9e/bUxIkT/U7XXHONs5eSZCrpNeeeWlPAl62MCt0b80yNG2LdAQAAAAAAAAAAAKD8yhQAR4Tm6Zufa6lT/EGNvyJJL65ppvXp1XXvmb9oWMMdSkqvphdWt9DYbj/p4nr7tWJzbUWE5Tlbl9P21UqK7xyEsLKvWsRv17Jl26Wmnf0HcGtXa3tmvM4wDZrGKipliwrywbUzNbOCw0L49vbbb+v999+3h4L2NZmewpdddpnTGgAAAAAAAAAAADg9lGkI6Du67tSQXtulbaFq9WW4Lj6YrtjrjuiDtLr6UTFq3/WArl5/RBfuy1ZO3RxdcMkBRefnavWO2s4efDlbXXvV1oFCQyqfqU7d20o/uoZ3PrNTd7XV/zT55zM1qEc77XWGRT67a3fV2ObZ5kfXENBnd1Wv2gd8D7Xb91r1zv5ab370q1p0/50aOsNMG4X20fdWDaq+QU+/b+1jUz21G3CpejfZ61rnlxnO+i4NcIYUvtTd3hnOObZFf91lDzF9qZrsdY5baGhpj/ozO8m+BLGXa+Qfjn9m1zH+oHamXRePbS9tYrc503sobK/1rn0YpvfvbUqIilDdDtb6dlGu6+XvfCqZOb4Jc30N9bxjxw673tcUHx+v1q1b22Fw8Qo/YwV8fX5znYvcA/ew5V5DSbuvo2l1/0Rd266Jeg8apO7Ws7C/0zDXvcm7TuNuS1BURF11sLZxDz1t2t81wNmP5/0q9j4CAAAAAAAAAAAAZewBvOiHenr+w5aauKWVHglrpOoJmfp4ax3N2XiWXk9qqA+S6ynmnKN6NKyhnt7eUi9YbResb+BsHQQLnteX+xM0oMzdgDtqSOd4bV+91lpeq9V2J+DC+4pKuM01lPCl8Upa5u7mu0DPj3pN25u61vkfidq0cw8p/KX2J3R3DSFtRCWos961172WJCV0d9ZYn8k9BPGoL/cfr3dbsExJaqqC0+zbQo1SVmvmWtdnKRjCeOxM6xN5Kmn9Ws0c+5qSMp1hkM3QxCZoLDTU9XY1vc0ZBrtKilLCbe6ho52hsH3dD5/3wPQId4XoTbc7w4Zb05e6VOM8ns9GTaV3rfqxMz2u/tqZGms9BJmZSXrNWue69BOtLb8s2M9r25vqNvtBK+k+AgAAAAAAAAAAAGUMgKuF5yuueo6iw3MUlZer0KwQRYTmO2ul8LA8hWbnKyo3VzWsNqZtZHiQhoB2LHjeK1gtjY6d1VTbZee/lrWuBFieEXDBO4BHvSsN8Ax7TWBq6r+ULvUfAnccMs4JFC9VIzlDSBuZSXrXCQHNcTPjz3COa0JEJ4S8tJFUUO9WOKju26KRUraYYHqtfttvAkx/AW1J64vqeEa8Ur58vtBQ16tTGqlFmS72qcDzHcBj5bo9vu6H9z1w/3FAU8Xq+H01FixLKvRMpawOJLDtqDPiU/Slx0uI185crZRGLax7V/r7CAAAAAAAAAAAgNNPmQLg7mf/pj9036k/n7VdY0J3a//WKF3VZL/uOXe77mq7Q32a7dNvW2vo4bDd+kvD7br1ip3qec5eZ2t/tivN/a7dgCzQsqR4Xeq/G65fHTs3VVRUgm6zA1prMsPwRnn07CzEhH6Zii9yYgv0/JcpauQjFTXh722xq51A0fSudVb45epBGrvaCSFNr1BnjScTBu63Q0Xz/uIkuTsmL3jebLdFLcxnGTekIHR0K2k9vPm/HwV/LNBxiDrHH/8jgsrAfQQAAAAAAAAAAEBJSh0Ah1jTaysba8YnTRXaJEcfd47UiLhm2v9BDV2VflhXHjuotPk1dH+NZprfKUphLXI0e2ljzUxs6tqBX04PR4+hjzsOGaAEj5663tbOfFdJ8Z3VOd6pCEhHdbZO5XiPT9dUaDjmQkz7KO3/zTqJvvcX6vFresr60jQ2Splp210F09s4yrXoX1PFRmXq+CZN5XuTBdqyv6k6D2mh+O2rvXqUuoanLjREcSElrT9u7W/71ehSj56mJuxslCK7w7F5j/FEZ533cpUJJYu5H6Y3tHUPundvqv0FvXq3K816Uj2HJO/bPcGq9r5HJTHfgUaF/qih45DOzjDTboHfRwAAAAAAAAAAAJx+ytQDODc/RO2bHdaXKXX15LI2GnVRstrXOaaX9zXQtH1n6ew6WRrTZbOe/bKllmytp45W2zxrm5IseP41JcVf6gydPFG3JezXl8W+63StZq7er6jiAtZGx/c30YSVXsM/u9nDMdtD7boUvAN4ouvdrvaovAuWKa2ze1/W+TXdrtc8hut1s4f/dW8/IFb7S+wBbHozm01c+x0Qu99nD2BjwZb9SkiQVhcMN+wxVLF9ru86Qxi7lbTecA1tbB/fhI8Lntdrpne1vY013WZdsdc8hoSu8oq/H+YeNGq03xWI28yw4GZIcvcz43qPb6H3/fqzdrX1NLp6o7suvdd3oOAZC+Q+AgAAAAAAAAAA4HQX0q1bt+Mv7y2DJ274UZedlapjv0Tqn9sa61humEa22qpq9XO08rc4jXz7XKclgqLv/ZrYYotG+Qieq6KnnnpKO3bsUHJyslMTmJYtW6px48Z6+OGHnRoAAAAAAAAAAACg6itXAGy6Dz/cd5O+2xqn4Vdv0X8+a6qM7DDd3ztZkz5spS4tD+gfH5xt9xhGMBx/N+1pkv/Kej51zTXXqFq1ak5NYI4dO6aPP/5YiYmJTg0AAAAAAAAAAABQ9ZW7B7DbH7rs1Oeb6io3L1S92u3VnK/PUn4IwW/QmJ6/lzZSZtJrgQ0tDAAAAAAAAAAAAOC0E7QAGAAAAAAAAAAAAABwYplRnAEAAAAAAAAAAAAAVQABMAAAAAAAAAAAAABUEQTAAAAAAAAAAAAAAFBFEAADAAAAAAAAAAAAQBVBAAwAAAAAAAAAAAAAVQQBMAAAAAAAAAAAAABUEQTAAAAAAAAAAAAAAFBFEAADAAAAAAAAAAAAQBVBAAwAAAAAAAAAAAAAVQQBMAAAAAAAAAAAAABUEQTAAAAAAAAAAAAAAFBFEAADAAAAAAAAAAAAQBUR0uPqXvnOMgAAAAAAAAAAAADgFBaS36eP/wA4xJrMWjMPRIntnQYh1jzfmRe3QQmriyh1e6thkfPwsQM/1UUE2s6tSHvPCo+5fZ5OsTiemwWixPZOg2Lvl48deBX98rW74vi8T97z47MSeW1WoiLtPSs85oXuV6ENCvPcLBAltnca+Lxf3nNn5lEsUaDtC9p5blDM3G4XAM/NAlGkvWeF1/FPyO+R08Dn8b3nzsyjWKJSt/fcoJi53S4AnpsFokg7zx14Hf90vl8F7dwLbp47sOaFzjMAnpsHwm87zx15n0cxByhhdREltncaFLTz3MB77sw8iiUKtL3fdp4rrPkJu19uzg59XicfSlhdRKDtC9p5buA9d2aB7M8t0PZ+23musOYVdb8Cbmc18Ps75EMJq4sItH1BO88NvOfOLJD9uQXa3m87zxXW3Of9KuYAnpsXJ+B2VgO/98t77sw8iiUqdTvPA/iY+7xexfDcvDh+23mu8D6+R33RDV1KWF0g4HZWg4q4X4G2cyto57mhj3mh8w2A5+bF8dvOc4X38T3qi27oUsLqAgG3sxqclPfLzXNH1rzQ+QYgwGYlt/N1fI/z8reDElYXCLid1cA+vlMutKH33JkFtF9rCko7zwbW/ITdL8cJv1/WVKidZ4X33JmVab9+lNjOs4E1PxXvVyBK2E2BIu08K3ycj1fRr6C182xgzX3eLx878NysOIG2cyv2fvnYkVfRLz+bF1GknWeFj/Owi1a50PXywWszv0ps59nAOW4gz7ef6iICbecW0P3y2KEzK1Fp2nnsvnCFj3mh8y2G52bFKbGdZwPv43vUe+/AT3URgbZzK/b4HnO7nVMsjudmgSjS3rPCx7zQ+RbDc7PilNjOs4H38T3qvXfgp7qIQNu5FRzfKRfagcfcbucUi+O5WSBKbO/ZwDmPQA5QwuoCAe6uwAm/X9ZUqL1nhcfc434VDoA929k8KzzmPj+oDyWsLqLE9p4NvI/vPffgp7qIQNu5+bwOPuZ2O6dYHM/NAlGkvWeFx9znefpQwuoiSmzvbuAo9jp58Cr65Wdzvwrae27oY17p98vNKZ+w++UoaOe5gffcmQWyP7dyt/es8JhX2v3y5jTgfrkUaee5A4+5fZ4B8NwsECW2dxqcUvfLKgf7evlt57nCY+7zPH0oYXURJbZ3GhR7vzzKvlYXJ9D2Be08N/AxL3SeAfDcvDh+23mu8Jj7PE8fSlhdRIntnB2WdJ3cO/IqlijQ9gXtPDfwMT/R96vQ8T3qi27oUsLqIkps5+ywYL+eB/CeOzOPYokCbV+knWeFx/yE3S/HCb9fjoJ2ngfwcT5exRKVpp3P/XqusOaVfr+8VNT9KnM7zwrvuTMLZL9upWnnc7+eK6w598urnWeF99yZlfZ6BcJvO/uAx+c+r1cxAmwWeDurQYn3y6Psa7UvZW7nWeFjXuh8i+G5WXFKbOfZwPv4HvX+dlDC6gIBt7Ma+D2+99yZeRT9KnM7zwof80LnWwzPzQLht53njryP71Hvbwd+qosIuJ3V8HS+XyW2czdwFHu9PPip9qs07Qrt17PCx/l4Ff0qczt3hZtnA2te6ffLS6D3yy3g/TrzkhQ5nGeFj/MpaFcCr838KrGdZwNrfqrcLz/VRQTazq1Ie88K77l7FsABvDbzq8R2ng2s+Slxv5z1gezX1+bFKdLes8LHvNB5FqOE1QVK3J1nA+/je889+KkuItB2bsXeL495EO9XyMHDGaYJAFQJcbFRzhIAAAAAAAAAAMDpJ9SZAwAAAAAAAAAAAABOcQTAAAAAAAAAAAAAAFBFEAADAAAAAAAAAAAAQBVBAAwAAAAAAAAAAAAAVQQBMAAAAAAAAAAAAABUEQTAAAAAAAAAAAAAAFBFEAADAAAAAAAAAAAAQBVBAAwAAAAAAAAAAAAAVQQBMAAAAAAAAAAAAABUEQTAAAAAAAAAAAAAAFBFEAADAAAAAAAAAAAAQBVBAAwAAAAAAAAAAAAAVQQBMAAAAAAAAAAAAABUEQTAAAAAAAAAAAAAAFBFEAADAAAAAAAAAAAAQBVBAAwAAAAAAAAAAAAAVQQBMAAAAAAAAAAAAABUEQTAAAAAAAAAAAAAAFBFEAADAAAAAAAAAAAAQBVBAAwAAAAAAAAAAAAAVUTlBcB5WQrJ/EXKz1PE6ttU7cN4hW8ab5VzFbr/f6q2uKWqfdzUbhqStU/KzbCXAQAAAAAAAAAAAACBqZwAOD9HYTteVcQ3Nys09StTYdeFHFpvB8PK/FU69ptVm6+QjO0KX/tnhSWNs9Ydc20PAAAAAAAAAAAAAChR5QTA2QcVmvKuQg7/oPD1f1VI+hZnhVu+/d+QvGyFb3xEoXs+Vtiv71ntku16AAAAAAAAAAAAAEDJKjgANj19s6WIOOWdcZV1tEiFpG9S5uJtyvktzGnjkn80VBlfSSG/vm+X8+peofyYltaCtb2ZAAAAAAAAAAAAAOAks2fPXl3Z43pd1bOffvttn1N74lRcAGze7ZvyjsK/u1ehqV8rt+VflJPwd+uI1ZR7IEbpH8Uoe3e4q2lWiDJWROnommpSSKhym92tnPaTFZJ1UOHr77d7BYcc3W23BQAAAAAAAAAAAHByyzqYrjRnysp1Kstj70INH75QqU7xZLJk6ec6ePCQDhw4qKWffuHUnjgVFgCHHP7RHu45zITA3//J7vmb2+JPym3zNymyhnL3hevYd+GSdcOzt4bp6Jrq1lb5ym90g3LOGWftIExhG8cobMcchW2dptBdH7h2DAAAAAAAAAAAAOAktkFTe/xNE96cq9n/eV73/P4G3Tt7s7KctVVNj6suV1zNmqpTJ15XXXm5U3viVFgAnB97tnLbjJbCohSSuVMR39+rkINrlNN8qEIvvc1uk/P9aoWtHqH8L6fa5dCzWij73GekvGOK2PiIwlLetutzm9+r3Ma32MsFcnOUl/yjcjd+J2U7Q0Tn51t1Sa46a7k4eetWKvPPA5T9kXWMo5nKXf2lcr74SPlpB50WvuXt2qmczxfaxwEAAAAAAAAAAADgy7kaeN8QDXvwEb3ywVRd+/0DenxpurPOxe4lnOYRC+dmKS3DtVhknS9ZRXsYZx302sa0qeDk+cwz62vZZwu05JP3VK9eXaf2xKmwADj85+cUkrVP+dXO0rFN1XXsf9uVN/9RadcGRZ4Tomrn5ios4ojCds1VWN5ahdbMVY1r8pV/zLq3Hzyno/M+VuY3NZV7pI5CQqsrfMs0hRzZ4uxdys/MUNas53X0739S9oLXTI1y1q3U0ceGKmviaOXn5rga+pG96kvlblijnA9eV/7hAzo2c5KOPnG/sj9802nhW966b3T0yQd19OmRys844tQCAAAAAAAAAAAA8Cmsgfrd3kefLlrhGsI5Y4Om3jlMj/9nrmZMeEB/nLHB1Ts4dYnG3DdaY4aN1eQ352jCvTdo+IJdZk0RKYvGqucfn9eMN2fqL7+/W1O/N3tI16cT7tDMja42xrqXbtHU7yo4Aba89dY8vfX2fKd0YlVYABy26QmFbZ6kkIzNys/JV8ay6joyO0kZQwdJy55WjV6Zin7oj8rp9rbC73hBcUPPULjW6uh93ZT5rznK/DxDOXtzFRq5X6HJL1j7G2/tK9nZuyU/z+6tm//bbuWuXSnl5ilv3SrlpWxT/kFn9O/cXCknx9UbOOuY8o9mFPQMjuh1g8Kvul6RD/zDLttts7OUvyfFVc6z9p95RPlH0uyw2ZRt1nGVk6383b8oP/2wa53Z1s3s/9hRe1uzPwAAAAAAAAAAAOC017CJLlq9XSaJS3r9GaXd/ZyeeHCIHnjiaQ38eZ4S01zNpPM1eMo4jb5vqJ6Y8YjqTnpLq7wjt4NL9dxLDfSktf6B+0bo3zP6adPYuUrKjdFV/btq0debXe1yN2vV8j7q3TnSVa4gS5Ys04RnXtCEp5/Xss8TndoTp8IC4Lw6lyg/Ml75EbVVrX2sonrEKTQ+TnkZOcpYEaXcVn9S3rkPKK9+L+U1H6jc88Yp65d45e4+ppCoaEV2bqDoa+pJcU2VH91M+XEdlReT4Ozdt3zr/xXIyVbOJ+/q2LQnlPPx2zo2eYyO/n2Ycv73qR3Y5q75Wgqx2h064Grv6dhRZb3xko6OuVuZI27W0UfuUba1D+UdD3rzrTbH/vl3HX3UWme1dYfO2Uvm6eiTD9jbHvvn43YvYwAAAAAAAAAAAOC0liMdaxavWO1S0uos/frVHE19aaY1zVXinuX6cZvTrlaMzghzlqPbqMN5u5Ti/QbXnzfrsyu66MJop9ywk65suEFJqVJk597q/fEiV2i8aYW+vKaHOrj3V0HyPV5Nm+fuVHoCVVgAnHPBK8q+ZLGyuy1R9uUfK+zedxQ16TXF3NnK7v2b1/xeKSLO1TgkVHn1eimicZZq3nxUUeOfUOSYN5V79fvK/t0Hrumit6Sos1ztA5Gbq5xvv1L2e6/o2AuPKXvxe8pd+bmyZ09R/m+7lPfzBuUsfV/H/jPZ2eC4/GOZynrleeUf2GeVQpS75itlTR2v/PSCPz2wA2bT49gEycfm/FM5ny9S3r7dduibs/xj5R/cr5xE6/MvPTm6egMAAAAAAAAAAAAnStr6lVrbvqka2aUG6nb9QN1+i2sa/dx7urutvcJLmrK8w1+/suyQWWGtdc0t2/Xpd1lKWrlCl17c2rW6AvXqdaX+b9RwjXn4QV115WVO7YlTYQGwQsKtvVfzmCKk8DDroocoxKzz6KxrM71x83OUn22dUpZ1d7zDcTP0cpGNAhPSoLHCu/Wyl/MOHXANz+yWVvSpCYmtpeqPPK/I//dXhV97k1URovyMdOW5h4e2hETHqPpj/1Jogyb28NJ5mzdY8yyFWMumffjV/VV97BRF3nSXswUAAAAAAAAAAABwGtq5VM9N3667r++kSDVQQpdUJW5IU2ytGNcUG6NIdy/dg+n6zT0o78blmhvWRRfWc8purdrp2kVfKjHDKW9bofn7zldCfVexUY/e2rdsrr76rqsuOdtVV9FuGXiDBtzQ1ymdWBUWAId/d48i/tfXmn6viMS+yn35ZmX+3x+V/p8tSl9cXWHbXlJIzmFX4/w8he5douztYUp7L1IZY8co64lbFPZJP9f2ZvrmRoUcWutqbwuRwsJdi3a3amvKdaXG+WGhCgk5/tFCa5+h0JbnOKWS5e34WVmvT9Ox5x9V/pZNzv4tJtz1EFK3vkJq1rKXzbuCTTniprsUWq+hsl6eqGMTRip31XJ7PQAAAAAAAAAAAHD6WKjHb79bg3pfp56Pb1CHJ6dqSBvXmoTbJ6jfxvEacNd4jRlltXl8uVwvWzW+05zhVp21bc+Rm3XXE/1dvYZrNVDD76dp8tL91vJlemxSvGbcfofdbsDIDRo4ZbAS3CFyra666uBMzT+/6/G6CrRnz15d2eN6XdWzn377zYwwfGJVWABsAt2QjK3WtE1Z3+1S5id7lLd7r0KiwhX9u2yF/TxNoesnK3TPYoVufVNha8YosukRhZ8VI2VnKWuN2WavdGi7vY+QwxsUmvo/Z+9SSGQ1hZxxpr2cn7Ldftdunnm/ryWknvUYhJXxo+VLOR+8obyfflBYp4sVecdwhYSY7sle8vKU+/1K5f22yy6G1IixQ+ewLlco6l/vKvyq3ytvz6/KWfyevR4AAAAAAAAAAAA4PbTTA6s/1Luzp+v1RR9qyYwR6tcmxllnCWugK8dM1bsv3q/Rj1ttxl2mOs4q1bpUD06drlemPqeFH4zTtQ2d+shOGr30TT3WPd5VPG+wXpk7Xf+eYu3nnUeOt7NFKrZWA/W7pOKHfzaWLP1cBw8e0oEDB7X00y+c2hOnwgLgnI5TldPheeWd0VOKCFN0r2qq8ccOqvHS61L3MUr7sJrSn5ip8MSblPvGGB16ab9yslqp+tSPFPPANarRK0PhTbOUH9lSOec+be3vRWtfVzh7t1SrrrALLrGHYs7dukmZIwYq96cfpOpRiuh1g9UgxP4/t5DoWOs/xytCap1xvBweoZCoGvZivtnsrObWlQlVzrKFyhjaT/nWsuGZA5shoY89/4jyU/daz1A1hbZpr7ztm5X519uUcc91yvniI7uHcmi7C5wtAAAAAAAAAAAAABSIjFFstLPsJdJzWGg3q32hujAT9EY6BZesg/uVsnyaXtw7RP2cHscVrcdVlyuuZk3VqROvq6683Kk9ccJGPzTm785yUOXXbKfQtI0K2/mqwmulK6zpmdLlzyg//hxlfzRPxz7bpJCoaEX8/g/K3pGj7B/2K+e3OEX+foB0dm9Fxh9UROQqhWi/8mu0VG7ze6Wos5y9u4Q1bKqw5mdb9dEKqRGrsHPOU8TNdyn8it4KiagmhYQqtGkrhXXsovCuV9ghb2ijZgo//3cKa91WoWecqdC25yv8vK4KPbORNTVWmLUccWkvhdRrqNA69RR+2dUKv7inwtq0t9Z1sfcZkpensAu6WcfrqJDq0Yrsd7vCr7xOIbXiFRpXW8rJVoi1bUSfW6x1gwvCZQAVr3q1CGcJAAAAAAAAAACcUvKylZZTSwlt66maU1Vau//3uv0+4OH3Xqb6lRQZxMTE6I933KrbBw9UjRp+Eu1KFHLwcIbzgtsgS09W5IrrFJKZovzq9ZXT+XXl1bpAYT9NUubkKcr6KVKR11+vyD8/rZzEj3R03P0KichX3NgLlXPRdCm0msLX/kVhKW9Zy5HKOX+6chv2d3YOAL7FxUY5SwAAAAAAAAAAAKefChsCWjWaK+fcScptOEA5HV5QXs1zFbblRYVvfkb5+fmKaBWj6h2OSiG5imiWo+rnZ9qbhe5eovD1o6ScdOW2e0K5Tf+fcs4Zp9wGv7fXAwAAAAAAAAAAAAB8q7gewDZr13k51lFCFPbzCwr/6SkpN0tHN9ZTRPOjCml+ibIveEWhuxcq/Oshyvi2uqIvtOojrWZn9lHOedOkcPe7ez1ewAsAftADGAAAAAAAAAAAnM4qrgewLcQ6QoSUm6nQ1EQpL0v5ce1U7Xf1FRZ92GnjElI9X9GXhSmv1R1WIdRq/6VCD6yylwl/AQAAAAAAAAAAAKBkFRwAO8JqKLfZEOXFd1X2uZOVX6OZs8LNCXhDw5Wb8LByG92o/AZ9rfZdXPUAAAAAAAAAAAAAgBJVTgAcEqq8+tcqp/Mc5duhboj1f+HKj2tvnUGk8ms0t6aWCgmLUn61M5Vz7kRlt5vgGv4ZAAAAAAAAAAAAABCQCn4HMABULt4BDAAAAAAAAAAATmeV0wMYAAAAAAAAAAAAAFDhCIABAAAAAAAAAAAAoIogAAYAAAAAAAAAAACAKoIAGAAAAAAAAAAAAACqCAJgAAAAAAAAAAAAAKgiCIABAAAAAAAAAAAAoIogAAYAAAAAAAAAAACAKoIAGAAAAAAAAAAAAACqCAJgAAAAAAAAAAAAAKgiCIABAAAAAAAAAAAAoIogAAYAAAAAAAAAAACAKoIAGAAAAAAAAAAAAACqCAJgAAAAAAAAAAAAAKgiCIABAAAAAAAAAAAAoIogAAYAAAAAAAAAAACAKoIAGAAAAAAAAAAAAACqCAJgAAAAAAAAAAAAAKgiCIABAAAAAAAAAAAAoIogAAYAAAAAAAAAAACAKoIAGAAAAAAAAAAAAACqCAJgAAAAAAAAAAAAAKgiCIABAAAAAAAAAAAAoIogAAYAAAAAAAAAAACAKoIAGAAAAAAAAAAAAACqCAJgAAAAAAAAAAAAAKgiCIABAAAAAAAAAAAAoIogAAYAAAAAAAAAAACAKoIAGAAAAAAAAAAAAACqCAJgAAAAAAAAAAAAAKgiCIABAAAAAAAAAAAAoIogAAYAAAAAAAAAAACAKoIAGAAAAAAAAAAAAACqCAJgAAAAAAAAAAAAAKgiCIABAAAAAAAAAAAAoIogAAYAAAAAAAAAAACAKqLiAuDsTGWkpyk7zyk7sjPSlJGR45TKZ8dHYzXiofe1wylXigOJmvbIi0o84JRL7UfNf2Ss5v/sFAEAAAAAAAAAAAAgSCosAN735Qsa8eBYTflfmlNjSU/UtPvHasSUZdrnVPn187t66JF3lewUfYmu01hNWtZRtFOuFHmZOrT3cJFgO3DZytibpowsp+hXqhL/PVbTvkp1ygAAAAAAAAAAAABQvIodAjomSju+XFEQ9mb88K2SIpyCp8PblLRpmw5lO+XsTO3asVX79u7XvvQ0ZZj6vBxlpGdaCzk6tPNH7Tgg1T3/Ng0d1FV17Y1css2+1m7WPve+LO66Xcf89Dy29m32uX7LnsLB7rFU7di0Rsl7S+ixnGed75Y1StrphN32uXr0frbWu87dD/N5Pbe3PmN2eop17DTtO7y/8LbHUpRc5LOY9pn28bL3blbS7mKOBQAAAAAAAAAAAKDKChv90Ji/O8tBlbE1UZ8erKWEvVuU3fEytYxJ08p35imiaWulZNRRj24tFa0cJb//pB55+Usl/fS9Fs7/QhmtLlX9H57TI2/usvbym9Z8skyba56vbnEr9ez/LdeOI/P08qsrdaxlDzX56TmNfO+YLrb3lamkN/+hx/+9XGt++k6ffvCj4i7tqugVk/S3KcuUtGWjlr3/hdLPuVTtanvk3hnr9Ppjz+jlT9cqac1yffBTdXXrcpa2vft3jX3pc63/aZOWfbBI62tY59A8RsrcosRPd+msHt3U3HQ93rtEzz70kt5esVkbv1qiZZktdfmZ3+v5/3tZKa2uUfszrDY/vqY/Pf6D2vz+fNXVHq3/4Hupq2vdvq9e0Mgn39fqn5K1cukn1jVrqG4dftN7f56lZVnSoaRV+viT36xt2yt76WT9bdKnWrvlW3367qdKqtlRFzezzkk/aO6fX9PGjBV6eeZnVv256tGmlvl0wGmnejVff2UCAAAAAAAAAABweqjYHsBqrU5dM5S4NkU6/K1W7uiqhGaHnXWW3Qv16sJw9Xtsop4a/6Qe7RupxZ+sUPSVo/XULfWtBh3015ef0+grzbKxUWtyb9QLLz2nuy4Id+pcsr97TVM+i1SvMRP1wsSJevGfw9St5h6t/1+K6va939r/OL3w/Fjd1MJzuxyteXOWllXvpkf/OVGTJlvb/fkKxSlcCVcO0zirzpzX6D6xSv7wcx/DUado8bRFSu44UC+88KQmvWC1799apYmfTC/mcdZxJ1nn99QdrXXoi2Van95Bg16+U92t9S1vGa3p1nKCda2mvbVfXYaP06SnrOPccZaS/ztHiQWXc48Sd7TVo9a1eapPM6cOAAAAAAAAAAAAwOmkggPgCCV07qhDX67W+vWrtaNrByV4HPHQps3apRwlfTZHr785R8t+tipT9hTzfuA66tWzk6J9nHXypo3KbtxJ3Zo6AW+omddX+0saad+7kzTimVlK/NV7aOTNSvpWanJJNzWx92lt4953XLh2fTJdzz4yVs8uTpPSM+QxqrTLgY1akyJ16drVdU7mmD7OrVjVI5Wxdo6mPDFWY+dstioylXHMtcqT61q1Vqe2UXY5LqGtmihFO36xi7YuvXurQWmPDwAAAAAAAAAAAKDKqPi4sEU39YlYqRnvHlavS85xKl0i7KFa66vLdf3Uz0x3jNALj12vJq7VPoQrIsxZ9OVYdpGQtu6lI/XipBEa1GyPXn9irGZ8V/R9vhnHvIPhFC3+x3i9uqu9Bj06Vo8OcPdA9i3b37uFS5SjNa+M1YSvaqrPX8Zq0tAOTn1RrmuVo+wiKfRxEYS/AAAAAAAAAAAAwGmtEiLDRmrfNVoZcReoUyOnyhHdtqMStFHLVhxWdEysoqtlKCPH1YM3IszMM3Uow5rl2VXFatmhg6L3rtTCFalWKUf7Nm7WPmue/O0a7Ytppi433qJe9aR9B8x6t9bqdHGU9n26RCtTc6zjpCrp5z1Wfar2pVj7PLejGkRkatdOj2GrbTnKzrVmtTuoSwtp5ZL3tSPdKqdvVlKKtR/rs9S1ijt2pigjY5sSvzA9ewvLtj9Tqg7tleLO7qiWNWUdxxzbLcL+v0Npmfbnj257gdpHbNTiL60Ty0tT0ucrlRzRVgktneYAAAAAAAAAAAAATnuV0me0Qc+/6oXRfdTAKReoeYXuureDMt6fpLvveUB33z9Jr36XYq+KO7+rOlXbrBn3P6AR84oGqN4i2t6ivw6I15r/jLf2NUpjZyxS0m+/aMdX8zX2Pmvf972gxbmd1K+rZ2/ecCX0v0c3NflJMx4aZbUZr2mfbNYhEwxfGav1Mx7W3X+ZqETVV7SzhWLOUpPaqXr7P0u0z6rvfu9AdTuUqH88aB3jwZf1+jeblV2ts7pdGaVkM/T0qP9ox9kX6HhOW18NWkmJU2YpyQxR/btGOrTwBeucH9KMvXU82p2jLr1iXeusc18Z2k13/D/nWt03Vs9+Hq4+D9xmXSOnOQAAAAAAAAAAAIDTXsjBwxn5zvIJlKPs9GwpOqrwMMZ5OcrIyFZ0jOu9twHJy1TG0QhFR7t6Etuyrbpsrzpvx9KUERqraDPSsiM7I02qHlt0aGUfx/DV1v/21uc6an2u6tbnMut8HLuA97qyXBPgNBIXy3cDAAAAAAAAAACcvk6SABgAgoMAGAAAAAAAAAAAnM68+6YCAAAAAAAAAAAAAE5RBMAAAAAAAAAAAAAAUEUQAAMAAAAAAAAAAABAFUEADAAAAAAAAAAAAABVBAEwAAAAAAAAAAAAAFQRBMAAAAAAAAAAAAAAUEUQAAMAAAAAAAAAAABAFUEADAAAAAAAAAAAAABVBAEwAAAAAAAAAAAAAFQRBMAAAAAAAAAAAAAAUEWEHDycke8sV5j8/HxlHM3Wsawc5ebm2WUAVV9ISIjCwkJVLTJc0dUj7HJFi4uNcpYAAAAAAAAAAABOPxUeAJvQN+3IUeXlEfoCp7PQ0BDF1qhuh8EViQAYAAAAAAAAAACczip0CGgT/h5KyyT8BWD/DpjfA/O7AAAAAAAAAAAAgIpRYQGwGebZ9PwFAE/md4Fh4AEAAAAAAAAAACpGhQXA5p2/9PwF4M38LpjfBwAAAAAAAAAAAARfhQXADPMKwB9+HwAAAAAAAAAAACpGhQXAubl5zhIAFMbvAwAAAAAAAAAAQMWo0HcAA4Av/D4AAAAAAAAAAABUjJCDhzMqJInZm5rmLPmWtedHrf5hu/ZnZjk1XsIiFV+/rTp2bKIaYU4dgCqjXp1YZym44mKjnCUAAAAAAAAAAIDTz4kJgDN36MOn79ZLK5yyX600+NmnNbBdjFMuQW6W9iR9pq+/3a306DPVoUs3dWwc4LYAKhUBMAAAAAAAAAAAQPCdmAA4/WfNe2yY3mv+D00ZepFqe/bwTd+tnXuyFJn+lZ7828fq8OTzGtKptrOyGJk/a+4jD2jOhizVaNxK8Yd+1s7DkWo56BlNvP0cRTrNAJwcCIBRJaRt16plK/TNr+mq2fB8deveSc0r5tEGAAAAAAAAACAgJ10AfCBpmT5fm6b6dXdr7sSvAgyAs7R22gCNef9M9X/6OQ3pGCPlpmvtrAc05p3dumLMGxp5aSl6Audm6ciRLCkiRjV8ZUnO+ogaMYpkeGqgTAiAccr7dalG3j5enx10ykaty/TE7HG6tqFTRtCtm323Jix1CgXa6K7nRunKOk7xFJK6dKL+Mvsnp3TctaOma3B7pwAAAAAAAAAApRDqzE+4rD0/Kylph9KPHVN6hlMZqPRVWvJ+liKvH6bBJvw1wmLU8c4H1T8qS59/ukoHTN2+j/X3a67W3xfbJcsBLX70al336Meu9Zasn97VmFt/r4E3D9DA/r/XiNk/yvWW4h8102z7/lea93/WupuHad4Py/SkVTfi/R12C9uGl3XDNXdobtF/ywUAVCHrFjxTOPw1Di7X4ws2OAVUiIOblbTRe0rV4Vxn/akmI9XH59msfafq5wEAAAAAAABwwp3YADj3iPb88JW+XrNDB9L3a/dv+52wtZT27NCP1qxDy6aFh3oOa6xzuljzFZu1x1VTvMNfacrfXtb+Xk9r7sJP9N70u1X79Qma5xHmrntlstZe9IxmvvW8rjvnEvW5PlLJn36vnc76ZOvzZLUZoIvbOBUAcDJKXa5xt9+tQT6mqasD/yVO/WS8z30Mun2u1jltqqb92rLR93XK2rhNqc4yAAAAAAAAAACV7QQHwMe0/9fNSt65W+m5sapdsxTDNHs6muYn4I1RfF1nMQAHVn2szzO7a+DvW0lH0pUd11Yd2+3W1z8e7+Gb1fnPGjXwHNWvWVs1IiPV8apBqv/Tu/o62az9WasX7VbLq85TY7s1AJykctO0z0evQzPNXLomwD/G2aVP31zqcx9JG/c7bSqHGRa4cAA9UZ9VaAobr4TzGzjLhTU6v41OwZGIcTrz9Qchs+nJDgAAAAAAAJyqToIhoKtZU7bS92zUuqSdOpAp13t1S/Nu3bpN1NGaZecec5UL7NaOzdaszZmq4aoonj3c4jJNusMM8ewa5nnmBin9qEcUUt9rX226q3/Cbi1e/bO0c6O+3nOOel7YxFkJAKegd5YqsZjXuBfYuUKL1jvLJ9R+bVntHUBX/JDACQMf0ZA2hcadUGSbwXpiYGunBJwidm7Q/ELfH2vyHt4cAAAAAAAAwCnjxAbAYbFqfM55urBjW7U6p6M1P0fnnN1WHS9qq8a1Y51GAajfSh3qS2s/+UY7Pf/Bf9/3+nqttbqrtT+nqrBjKtTNzQ6dL9Lw1z7Rhx8fn2YObGWv9u1MXdjjHO1ZtEpf/7hKyQlX6sKGzioAOCUt1aKv051l/7Z+vegkGeZ5l1K+dxYrU3Q7DZvzoT6YPVn/nmpNs9/Q8jlD1CHaWQ+cIlJ/3e4sAQAAAAAAAKgKTkwAHBapiFjpwEfjNPS++zXyvls08LZhGnn/HRp4693WfJiG/u0VJStGMdUinI2K00r9/9xXkUlT9eTLy7RzX7oO7FymmY9N1eqoizS4lxPg1ozXmdZs9ZefKXnfbq2dPUEvrXWtMmpfeI2uiPpGL/1rgbU+XUcOH1Dyih91wFnvT/3LrtfFez7WzP9+o4QeF6m+Uw8Ap6rPlq1Q8Z2AN+uz/5ohFk4CWWlKy3CWK5v1v2eN2nbShV2sqW0D1wgWwCnmcBpvrQYAAAAAAACqkhMTAEc1Ufc/jtXg67rr4ksv0cUX+5iuuEYDH/yzeiUE9l7gyAuHaebTf1T8sgkaetsADb57ghZHXKORU/+hK9zvAY48T1fc3kqRq17WiNvu1n+ODtLwGz2G76x5iYY/N0wX/zzdWm+GgL5FD7/5mZJLSoCt7fpcv1979lykXl1NxAwAp7il8/TRTmfZl59WaP6vznIQZR0M7O3DhexL1VZnscJkpSurgoeULtNn95SbVeHn6Knc52vJOljx17UkWWkn/hyCxnpOy/LHEPtSKuCPOcy5lP8RKVZWRR8AAAAAAAAAOEWFHDycke8sB9Xe1EBeIFkRsrT6XwP090/P032T/qbrWvoIkDPTdUQxqhHllH3ISk9XdljxbY6zjjn59/p75mjNHdM9sPcNA6e5enVKMcx7KcTFBvSlxd6FGt57ohKdoi8dRr+hV25s4JQKS5pxqwa9tMsp+TJQr6weqg5Oya+07UqcN0dzFqzQqm0ew07XaqoLL+6twf+vj7o18/E7fnC7Vq37QUkbd+vwr2s0c9EGZ4VbA3Ub2ENnez5mdbvq9hvbqaAqbYPe+u8K/eYUbWf31rDuzmfO3a9V/31RU2cv1Tr3+1Br9deUeSPUzdpJ2vfzNHvFfmfFcef0GaIrfb934LjcLKWsX6L5732qz75eo60e71uNrNdOV90yWHf176rmxX1N9m6wtp+nj5Z6XTvrf9+ad+mqfgMHq98lTRUbjF7JwThfc8+WL9X8T1bom/WbleoZVJZ0vz2sm3KF/jjbKRToqrGLJqhfPadYjLRtK/TRm4s0f/kKJe31CBCtc7iy7826/ZY+6uC9H1/PiuH5vHjauVxTFxYNVc/oOlA3n1f486UuGK2e41Y4peMGz/hcD5znFHwx92TTcn21YLnmr16jpELPQKTqtOmq3rcM1O192qlOkWfA3M8ftG7Td9qyL12bFs1TovcfdLTvoSFdCn+2Yp/t3HRt/WqhZsxdpMSV2z1GECjd8+jre1XouHvXaM6/ZmqG9Z13HyP2xgn6cHTX499tAAAAAAAA4DRXBQNgS+bPmvePv2nmmnRF1m2lxopXn2f/oV4VMDbzgZ++0drV72ra7P267vmpGpzg0aMYgF8EwCeYjwA4MjpSWRkegVjbEXp3dn81d4oFcjdrZv+7NbUgMIq0ts2ytnWKtpIC4CxtXfCCxkxaqKRieyxGKmHQOP1zRNfCIdb309TprrlOIUAXj9KSKX1Uxyn6DMEve0RLJvdQndQVeu4vYzXnJ68ehh7XpKzBXdr6uRrzt5lK9AwffYrRlaOf02P9W3uFZta1e2e8/jhheQnDdFtqddKwJx7RkC7xTkXplfd8TeD61pRnNH35fuvMS+LnfnsocwC8c6kmjH1eb60v6f3WPs7B3x9M3D5Va4a3cwoe/Dyf3ca+pyl9C9+LUj9Hufu1bt4cTX5p3vE/TChOrcs0+t+P6OaWnv//k/2aP/wGjfvaKQbI3zmlrp6jh0fP1KqSzsc8jxOs57Gz/+fR1/XoNs66br3jlfr1NP1l9NwivxkJo17V6wObOiUAAAAAAAAAFTYEdEhIiLN0AkS1Uv8n39Xc6c/rsT/focEPDlLHms66oDqgHz+arrlfSd3H/IPwFwjQCf19gF8X/b6PEpxl28a39NlPzrKn9Us13bO3YMPBurufsxyI3P1KnHi3BowrKfw1spT0+mjdM3VDAOFhEOxL0+GsDZp67+ii4a9xXtOigXjArM8ya5h63jktgDDVSFfi1z/psFNyS5o9TLcGEv4aB9do6rAbdO+C4npr+1Pe883Sull3q+eNozU1oPDXqJj7nbJ0ogb0Hx9A+GtY5/D1d0o55hRPJnuXa8zVN+iPEwIMf42DyzXhzrEVMmS7+xnpc18A4a9hnsf7btHwudtLdX/3paUpa/1M3TO8aPhrXNiS8BcAAAAAAADwVGEBcFjYiXm9sKcajc9Rx64XqXOnc1S/QjoF1tbFI6Zr2tSndd+lvPsXCNTJ8PuAovY1aad+bZ2CbZfmL/cexjZLq5bMKxTeNOrbVHV+cQolytK6qQ/YAVBpbJ39gB5fGkh4V04bd+iz2c9o5jan7OXC5r6HxA5EyoKx+mNpgs3ornpsdB818uwJu3OeJkzZXKrwLPKyURrbp/TnXf7zjVSHSy5TI6dUGltnj9fU70vzKf3L+n6aho9eWIr3RDfVkMeGqEO0UzyZ1Oukq7qU4Y/NMlZo3ISFSnWKwVLqZ8SWZf8ByMhS/FFC0o7lmvP4HD/3sJOaN3QWAQAAAAAAANgqLIWpFhnuLAFAYfw+nJyS9jTQhX1aOyWXlAUrlJTrFIysH/TpB55xTwP1u9japsSevC5Z6+fo8dk+wt9anTR47AT9e+pk/XvyKA3u4v0e2Cx9NGVe4XOpEPM09SX/4XRCWQPgn+Zo+LgVfoKySNU5r4cG3zVYQ27sqjp28NhAgyeP07VeQxpv/XqR1jnLxzXVzWOn64OlH+qLpW/o9SeG6to2TkgY3UNPjvUKkQMRpPNVm4F64EbPwNJjWzMN6qEOtZxVhezSnLdXBNbLuTgHl+vx4XP9hr+xzS7TzV7n0W3MBA1rf7KO6BGjK+/2GlrdvLv4Rud6WtPNl8VbV9mHr1/TfF89+stq70I97ecZMe+FvnaQc13r+TqbLCVOekEf7XWKJZk7U1P9/FGG1FotCIABAAAAAACAQirsHcD5+flKPXhEeXkVsnsAp6jQ0BDVqVWjwoaB5h3AAfL1TtOrx+mLu1N1740vKMmpMoHdzVM/1Gin12HW1y+o6/B59rKt4RC9Pq+TPuoyTHOcKhdf7wD2897RZgP171lDdaHna6Fz9+ujsbdozCee8VKkBs9YXOQdpGV+J6y/97q6Neuj0Y/cpn7tGyjSBKgZ6cqqFuNatgT+7tZ0fTT6Oo1Z6hQ9NeuvKS+OUDfP80zbrPnLstS7bzuvIC9LiRN6afg7TtFt0GStebCTUzgu5ZNp+qz+EA0+r7RhZrDO12Ff52k6dvv9euD2HkrwDnzTVmhCn9F6q8gfEVjPxUrrufAKr0tzv5Nm3KpBL/noaRrdVaNnPKKb23j8oYEZmnzeD2re/7KigfnJ9A5g6zlYN+UO3bOinYaNGKKBnZ3n08PW14dpwOQNTum4C8e8oX/39/ojhtJ+NluWVk28TvfOLRr/Nrpxgl4Z5fH+5Nxd1nf5Qeu7XPQ+NLpvuj64q/Afnfi7Hm7N+47QY3f1UYeGzm9SWpYiY0v7jAMAAAAAAABVW4W+Azi2RnWnBAAu5neBdwCfpMx7Npt18hoGOkvzl/9g/de1/M1yj/DX0qhvVyVkpGqfUy7Wzi803zv8VQMNG+cV/hph8br2D4O9hg/O0mffeQ9JXUGaDdQrs0fp5vM8wrXo4+Fvqexcorm+wlQTWk7xClON2Nbq5y9M9WX9Zm310TO60dVDyxD+WoJ9vvX6aNLXH+rfw32Ev0ZsV/W701fP6s1K2eMslkXWGs2f7WuYYVdv5ULhr2E9c91u9BH+nnQi1WHYq1o+5xEN7lI0/DWa/36grnWWPa3aWpZ3QftgXdtPfYS/psf5A/d5hL9GWANdO2qorvUxpHbK7EVa5asLsR/Nb5+qN8b2Lwh/DcJfAAAAAAAAoKgKfRGnGebV9MYzPf4AnN7M74D5PWD455PY1zuUoqZFhoHO+mCla+jlrDVKLNT7tIH6XWa1zUwLaKje1PUriw5f3LC3LikUOHto3NSrB7GU8vOu8g8LXKJ2Gj1paNDeAevzc1siB96s3qUaujZSjZoXvje29dM04OoH9dyCDUopRZjmT/DO97hIHxld1sFdSlppPVML5mr+eqeykDXaGugQwb5s+k7zfQ1N3v5m3dz5FA8NwyKLBr9Z6UrdtkGrVi7VW/9dbn2Xfdi2KzjvAd60QfOdxUJ691A3XyF/ra66trez7Cljhdb5HdrZS/sRmjSsFH8YAQAAAAAAAJzGKjQANkzYY4Z7rRFdTeHhYfT8A04j5vtuvvfm+29+Bwh/Tw3NL+5dOHjNWK5Vm6z5xu8Khz4mvG1jzffs1jeummKl/OxjWNdfZ2pQ5yvUydfUfaw+cpoVML2UncUK06O/rm3mLAeBz89t6XfJuaUOs5p3H6huvoLpg2s0Z9ww/f7iXur54DTN/36/s6L0gnm+heSma+vyeZow6m71vOwKde1xqwYNe1DDx03TW8uD1DPVQ+rWzT6flYRrOnn1LD91Zf26QfNfGq97b7xOnS6+Tj1vHKZ7h43XhBlLfYb4weLv2l54dlM/z0ikzmnb1Vn2tEtrfw7sWb3ylp5qftL3zgYAAAAAAABODhUeABsmBKoRFan4uGidER+jenVimZiYToPJfN/N9958//njj1PBdqWY7oGNL1e/i101Lrs0f+VmJa1eXij06WDe52oWcrMqPpStTA0byHtE6uCLVGxZhq6t10OTpgxUc6dYVJZSl8/VuLtuUNdBEzU/OVh3pozna+SmK2nBRA3qfp0GPPiC3lq2Wam+euZWkrqxFX93K9zeNZo57Dp17TtM42Ys1apt6c6KE6u4axtb19cw35YcZ16CRvW9huwGAAAAAAAA4FelBMAAgFPDMftdsvG6qs9ldtktZd7zmrDAs5dmV/W7zE+ggwA01RllzCEjzxuqN+aOUr82xQeyWT8t1LiBd+u574MRApfxfHN3af6oGzRo3EIl+Q19IxVbq1x9i0ulYa1TO0jM+n6aBvR+UFNXFhP6Wp/xRMTcdYu5tpHRlXePAQAAAAAAgNMdATAAoIjY7r11s7Ns+3WD1v3qLBs9euiqes5yeUTHK6Ft68Cn85upjrPpqW2zUg46i2UQ2bKPxs55T+9OHqJu9YoL1rZrzvCx+qg879K1leV8s7Ru+miNW+4jgK7VSYPHTta7ixZrzerFem94J2dFxft138nRW7ZM9i7VyOFztdUpHhephKuH6onZb+iLrz/XmqVPq5+zpjJt/dX/cM6pO7Y7SwAAAAAAAAAqGgEwAKCoyE66aqD/YPHaHl1L3cMwtn5rZ8lDRk89MGu6Xp8d4HRnO2fDU4fPz21ZtamcgVhYjJpfNlhTFi3WinlTNfrGdr7vScYKzVkW+LGCdr57l2jGjKLbRF42Sh98MlkP9O2k5sWG1+Xjb8jhxI0/nbJDlq978xklFulJ3VSDX3pPrz8xUNe2baCyjtRdGv6u7Te/+n+Xc8qva5ylwpo3jHeWAAAAAAAAAAQLATAAwIdIXdizv/VfH6L7q99lpR9Gt/nZnXzsb54+XVkRcZy1zwDfLVrRfH9uKem/i7QuSB89snE73Tx6qr6YN0rdop1KD0lbdwUcegbrfNPWfadEZ/m4Tho9so8ahTnFChTZqpW6OcuFvDNfi0rbIzqsmrPg5edtMq/N9paytSJ6u27WqqU+bsCgEXqgcwUMa51zzFkoyt+1zVq0Rkn2MPJecq1zX+Tr4emhjmc7iwAAAAAAAACChgAYAOBb+x66u6Gz7CHyxh66sCy9DNt2Ub8i4WSW3powTYm+UjRPvkIlR53GvoYPXqPE9SfJUL8+P7fl17l6/KU1SvP12fau0aptzrKXlEXTNHOln6F2G/fRXTc6y57SsuQ/zvMSpPPNyvB1/a0HJ9xZdMtN15afAw9Mfd/vVOt4zqJbvU7q1t5ZLmSFJkxYqBRfnyNts1Zt9HHedRqoubNYyNdf6kvPodEtaaunafgTK5xSyeo0bOosFXYswzswzdJhr2PZwn2E0zt/8jFMtB/+PtvnG3yHuUa9y3VtD2fZ069z9OLCor2AUxbO1HRf596jqy48ES8rBgAAAAAAAKo4AmAAgG9hrXVJf++hXhvo7h5lHIY5spMGDvOx7a/zNLz/MD33yWalemZeGfu1dflcjbnzOv1+6ga/PVgbNfY9ZPFnT4zXzO93KStXykqz9rXzBAXC1ufud6fvkG/r7Ad13fBpmr9yu1IPpitl4wrNn/KgLu/9oO6d7COk3DZPY8bO1dRhN+jyYdP00cb99ucrsHe5Fi11lj00atUg8CG7g3S+kdG+eqWu0JxXVyjFCWuzdq7RzOG36N7X/Q8d7K16mK+/PtisuW9b+92b7vGcNNC1f+jhszdz1vKJGjB4vOZYz1yK9TlSt23QR7PHa1Cfu3Xv6DlaVWSY5QZqfrGzWMgKjbv9QU14Z6lWfTJPz425Wz3v8/WO3mJ4B+KO+e8sVNLe/Sa7d0Sqpo8/yNA7c/SW+znI2q+kBRM16A8v+Oh97UeY9dk6O8uefp2pMZOXaqv5UuZmKW3ndqUUnEuMrrploBo5peOylDjOuoYzlirJ+r6l7dysj2Y8qEHjVvj4/jbQ4FsuK/VQ8gAAAAAAAABKFnLwcEa+swwAp7y42ChnCcXau1DDe0/0Com6auyiCepXzykaO+fpj/1f0DqnqIZD9PqCwUpwirbvp6nTXXOdgttAvbJ6qDo4pQK5mzVz4N2a6qd3q38+zs0ta40m9HhQbxUJ7bxcPU5fPOEROPm8Bpbbp2rN8JJD7tQFo9VzXNGenoNnfK4HznMKblkbNHXQMM0s1eeOVLdxb2pKb+cdqX73EaPmbRuoWsYuJW3zFXI30LDZb2hIW6cYiGCc77Z5GnTjC0pylcrE57VcP1Nd75zj5w8CemjSskd0ZcFN3q+PHrxFY5b7bu1P87um6o372hUKj7fOvVsDJm52SmXTbex7mtLX6523qUs1/OrxfgJb6969bt27NmY5S4kTemn4O/aKsrl4lJZM6aM6TtEt5Z1h+v2EDU7JH89zMcz5XGedT+murVujQZP17oNFhxsv1fcKAAAAAAAAgE/0AAYA+Nf4cg3s3VoJbV3TlXf1KBz+llZYaw2Z8oiurOWUA7ZCE/7jqxehpZgeq4V8uUFbvXvUVpbIdho2xff7ef0zAdscJdrBdpbWzX7GTyCbrq0bN/sJf03QNkqDSxP+GuU+X0uznrrral/9b8vp7PN9D1Fts+5xoc7E8bp2/HMa3MwpBmjrjBc13+taN+/ez/c7hX2IbDNYg/s6hZLUaednqGpjl7bscN/XSHW7YYjv4ZrLqVGPgbq2xHu9S2uTPIcet85n+FQNO6/09zjyvCGaeJ/vd00DAAAAAAAAKD8CYABAMeJ17bjpen22a5rU13tI6DJo2EOT5k7Q4DaliX8i1SI3Xb/56WyYMPD/Sg75MtYoaaezfCI07KMp/31E/UrxuSPbxKhapr2kDoPGaWz/1qUKzWJ7PKKXRpQxaCvX+RoxunLYiJJD5OjW6vfEq5oyyCmXJLKT7h7Z1Sl48wxMHdHt9MCsqXqgi68hqf1o1kyRuV4PW70+emB0ydfShJuvzBiim9v7elexLw3Ub4Sv4ZRd1u30SLTbDNRjt5f8xw6xXYbqldkjdKFTLlGty/Qn65qW9NkSN/5U+I8wrHs3ZMp0je0bwB9gOJr3HaU3pgxWQqn+uAAAAAAAAABAaRAAAwAqX52uemDOe3p38lBd276YYK5WU115+yi9smixXh/TQ438JVQm5Jv9agkB6S5t+fUEvQfYrXEPjbU+9+tPDFS3ev7PNLbZZRo2+VUt+fcQXegerze6qfqNma4Vi6Zq7O1dVaeYAC2yXlcNfmK6PnzCumZhTmVZlOd8DRMiz5ugwT7vcaTqXDZE/35nusZe3VTnJPgLdYuq0+cRvTK8k8/3xxYKTN1i22nwlPf0wdTin7fIeu108+ipWjJ3lPq1LPp5m984QW+M7uH72kfHq9t9k7Xw365w09+7qX2JPG+oXnqij89QNOXnXUpzls016zB8ut71dw61rPMfa933KQPVoW0bdSjmGfHWqO8ELXzJun/F9M6P3LRLKc5yAfNcjrXu/YwRurmYaxvbvr9Gz7C+82P7qHkpzgsAAAAAAABA6fEOYABVCu8APkVl7NfWn7Zp3zGnrGqq27y1mhcTOvqVZe1ro+e+pNiGbdSiYYwiyxOGVoCstF3astEj4KtWRy3aNC023C2Qm6W01F3aujVVxy+btX3LBqoTW4brFoDynG9W6nYl/ew+11g1bN9ajcobBJr3Hq/3OJ/YBkpo1UAlfvwiz5t1Pm2bqlGg18269imbftCv7gNbx+14doPyP1/ez25x19frHKrVb6aExvFBecazdm7W2oIPZynNc+l9bUuzLQAAAAAAAICgOGEBcHbqr0pO9TOWpxEeo7Oa1VXMSdxHOTsjTaoeqwj6UQMnDQJgAAAAAAAAAABwOjsxAfDRbVr+2Q6lRYTLX0eV3NwcqU4b9bnwTKemeId2rtGO/U7BiG2khGb1KzCc3aNlEyZoV9/nNKitUwXghCMABgAAAAAAAAAAp7MT03c1/aiOqqba9LxY1/iZujSIVF52MT2EvexaPkczPvlW63/cYE8r35mkEWPmKCnDaVAJkv77gF7f6BQAAAAAAAAAAAAAoJKdwMGLM/TLynX6n59pY2qO0y5wDTr31aBbBtvTXf83Tnc0WaP5q1KdtS5m2OaMbKfgKTtTGRmlP2bJcpSdnqbsPKcIAAAAAAAAAAAAABXkBAbA4YquXVO1/Uz1zjpLbVvUc9qWRZTialozM5S0cWCFXh07SiP/MVH/+NsoPfTmOrk6B2cq6c2x+tPfntI/nhyrEQ9N15oD9gq7R+/d/13nKhipSzThnllKcorHmeGgH9CzX0jLnre2ucfpCbx3iZ79y0N6aMJEjR05Sv/4aJurOQAAAAAAAAAAAABUgBMYAEcqvk0zJRQztTwzUscys1SWzrPZKYs0/+sotWxW3yrt0bJ/L5AGjNULT43TU5NGq8/eN7XwZ2vVgUTN/6y5hk6y6sc/qRceukUJte1dlEJ9dR89WoNaSN3vf07TX3a9Fzjps0XKuH6kJo03xxyr4Zc2c9oDAAAAAAAAAAAAQPCdwADYh+wcHR+dOU97136jxct/0i9OTUmS35xg974104hn16nl0L/qphbWipQVWpzeRb06xroahtZRwrk1lbRtjxRdR3UjNmvl/7bpkEmaa8Yq2tWq3OJq19GuNYlK2ptjHTNWcTHOCgAAAAAAAAAAAACoACdNAJyxbZ0+XvK1Pv4sSbuyXeHvyt3VlXBxWzVx2pSk5S2j7d63T91SX2rWTb3OreNacWi/9h1I1JRHxuohZ3r2swz7vb+q1kl3jbtRdb//jx76y1hNeX+NKwgOggY9R2j0JYc1f8Io/emJWUrcbh0PAAAAAAAAAAAAACrISREAm/B3+Y8ZqtuhgxKq79PqpYlO+NtBrWNLf4p1rxig7inv6u1vncA1Ll51q3XWXePMMM/Hp0evdYZkrtNJ/YaN04tPD1aTH+do2peprvow16zMQmPV5JI7NXryRI27KkdvP/OOswIAAAAAAAAAAAAAgu/EBMAx1VXdWSwIf9ufp85n1VLrizur89kt1LmM4a8ttLX63NxWa95aoGTTm7dRZ3WPW6G3P0txrTfS05Rh5hnblLw7x65STGu1bxHlWrY0aNBI2vmL9pl95KVp/cfLlOxa5UMdxdWVkn/d45Slfds3K8PuTRyuum1bB9yTGQAAAAAAAAAAAADKIuTg4Yx8Z7lSZaceVEadWsrYuE67otuoUzN3JFw2Sf99QPMbjNboK+s7NWlaOWWsFrYcoXF9mkkH1ujtF9/QsoNRiquWo4zc5ho08m61P7RIr7+yTOuzoxStTGXEdNXwBwaopXkRcMY6vf74LCVmxyo6LFrd7r1CGc/8qE4v36kEa3Xyuw/r2a866q+TB6qlVc7eNEcPPbtOqheh9n3/rPbbZuvVFYcVHR2u7Ayp5c3DNLSr+/wAVIS42ON/xAEAAAAAAAAAAHC6OWEB8AlzLE0ZuVF2KFuIv/q8HGVkZCsiOkoRRTok5yg7PVvyXJedqYzsiOP7sbfPtLaP9bE9gGAjAAYAAAAAAAAAAKez0y8ABlClEQADAAAAAAAAAIDTGX1SAQAAAAAAAAAAAKCKIAAGAAAAAAAAAAAAgCqCABgAAAAAAAAAAAAAqggCYAAAAAAAAAAAAACoIgiAAQAAAAAAAAAAAKCKIAAGAAAAAAAAAAAAgCqCABgAAAAAAAAAAAAAqggCYAAAAAAAAAAAAACoIgiAAQAAAAAAAAAAAKCKIAAGAAAAAAAAAAAAgCqCABgAAAAAAAAAAAAAqggCYAAAAAAAAAAAAACoIgiAAQAAAAAAAAAAAKCKIAAGAAAAAAAAAAAAgCqCABgAAAAAAAAAAAAAqggCYAAAAAAAAAAAAACoIgiAAQAAAAAAAAAAAKCKIAAGAAAAAAAAAAAAgCqCABgAAAAAAAAAAAAAqggCYAAAAAAAAAAAAACoIgiAAQAAAAAAAAAAAKCKqPgAODtVOzat0fpN23Qo26mrKg4katojLyrxgFMGAAAAAAAAAAAAgBOoQgPgfSte1Mhh4/WPf72j1//9gkbeP1Zv/5zjrK0C8jJ1aO9hZec5ZQAAAAAAAAAAAAA4gSouAN4yVxP+s1l1bx6p6f98Uk9Nnqinht2q7i3CnQaWvBzt27JGybsznQojR9npma5Q9fA2JZmew94Bq7veV49ia58Z1vZmP4d2/qiknWmuejezfvdmV49kz/0eS1OG2V9emnZs+lE7DnsF1f7qC7HO3b3vqtbbGQAAAAAAAAAAAMBJL+Tg4Yx8ZzmIcrRmxihN29dbT43uqbpObSGpiZr2zLtanxeruNw0HWpyvcbdf4XVdp1ev+cdZVxSU2u+SpHJUSNa9da4/zP7yVHy+xP07OJDiqsdoUMHwtV9+FjddLZHqJy6RBMeWqnspoe0Lz1C2amZir5osB69q5PiUj/XlL+/r6TqrmPui+igvz52pxKipaT/PqBXMzuo7tp1Sjpm7SeikQaNG6nudaTsLe9qwrOJ2lczVhHpaYq49B6Nu/kcRdjH+lZdnhpttctR0ptj9exXUt04WedWX4OeGqFuNV2nBaByxMVGOUsAAAAAAAAAAACnnwrqAZyqQ/usWeP6rvD32B4lrV2j9Waye+TmaM377yqp7WBNmjhOTz01WJ02L9ayLaaxkaZ9tW7UpJef0wt3tVb2z99qfapVvXuhXl0Yrn6PTdRT45/Uo30jtfiTFcpwbeQhQ02uG6sXnnpSk+5tq4xv5isxxaqu00WDHh2nF80xxw9UpwPrtHjd8R7C+/bV1E1PP6fpz1vrslO0cu0eqzZFy+YkKqL/aGt/4zRpzBWKWLpYa9Jd2xy3UWs+y1SXu8y+n9SLzw8j/AUAAAAAAAAAAABQqSr0HcAFMjZr2dvz9eqMOZqyfKtVsVlJ31qzPd9q/ptz9Pq8b7WvWqb27Ts+FHST1s0Ubc2jY4735ju0abN2KUdJn1nbWNst+9mqTNkjkzUXVlNNzoq1l6KbNVMTpenQIVOKUnTmt3p76gQ99Ni7WmPVZGR4xMeNW6uJfdBoxblqpAMbtSbFardpsX3M1z/fZlXu0S4TSBfSVp16xGrN1Ic0duq7Wn/YqQYAAAAAAAAAAACASlJBAXB9NWhszX7crB3mPbu1u2no+HG6q6u90hKuiGpS3fZXqN91/azpFg0fZ63vXPzQrRHVIqz/1lcXextrumOEXnjsejVxrfYtN9seRtrI/m66Rj6zWtHX3q1xTw9Wd6e+WBFRdhDd5ELnmNf9P42e/Kj6mM9XSLgSbh6nF8YPVrfwtZr20AQt3u2sAgAAAAAAAAAAAIBKUGE9gBN69lTLvYma8srn2pGapoz0FO36zVmp1urUNUo7Pk9UsmLtXr7ZGVklnk10245K0EYtW3HY2sbarlqGMnI83v9b4LB27EiT8tK0fkmidkS0VUJL817eVGXXbq72zeooYu8v2uG0LlZMR3VqK635/EsdiraOGR2ljGM5iig41xxl55r5HiV9s1nZdTuo1+Deaq9U7dtvNwAAAAAAAAAAAACASlFxQ0DX663h/9dNdX94X/94aKxGPDhJb+9prUHdWturW153j25qtFHTHnxAd98zSg/9a5GSir7Mt7CaV+iuezso4/1J1jbWdvdP0qvfmZf7FrVj0UT96b6xmvJ1uLoPu02dTI/jcy9QwqFE/eO+B/SnmXtUt4XTuFix6nbHQHVJX6ax1nZ33zdK/3hlhXaZVTFnqUntVL39nyXadyBFa5a8rBGmzf1ztb5tb/VKsHcAAAAAAAAAAAAAAJUi5ODhjHxnueIcS1OGef9uNR+9dbMzlZEX4XudXznKTs+WoqM8euI6UpdowkPfqstTo9U9Jk3ZEbGF2+RZxztqHS+6NMdzmM8RGqtoMxK1m/f+ivusACpcXGzxQ8kDAAAAAAAAAABUZRXXA9hTNTNcs59A1Lxjt9RhabgiYnyEv96s4xZpE2odryzhr2E+h2f4a3jvr7jPCgAAAAAAAAAAAAAVqHJ6AFemY3uUlLRfdRPOUd1qTh2A0wY9gAEAAAAAAAAAwOms6gXAAE5rBMAAAAAAAAAAAOB0VjlDQAMAEJAsad1qa9rjlAGcOrKUsn6NVq3fZb7JAAAAAAAAAE4QegADqFLoAVxKvyRJv6ZbCxFS63Ok2pGuerdca/09D1sLfaSpQ6TqruqKs0caaR1H90mTrnNVBdtR6xg/7bTm1nLN+lKLxpLXx0YVkrFfW3/apn3HrOXYBkpo1UCxp8r9zkpXWoaz7BYZo9hoZ/mks1/zh9+gcRqlJVP6qI5TizLKsO5/cUl6tPUs8NsFAAAAAAAAHwiAAVQpBMAB+mWx9NhL0h6vdKF1f2n0EKm+Uz78uTRokrWQIL1izeu6qitOBQbA+1ZLz0yUNh5xKhyR1oe982Gpd0spzKnDqS91jWY+MV7Tl+8v3Bs1urX6jfw/PdCntWJP8vudumC0eo5b4ZQ8RMerwxUDNWzEQF14UqWsBMDBtG7KFfrjbKfgQ7ex72lK33inBAAAAAAAABxHAAygSiEADsCRr6XBT1oLLaURw6Xzz7SW90vfLJZemmddxMHSzIF2U9ueJCmvhdSgMrqaVVAAvOtDadhLUpb1GfpZ+77mEqmmVX/4Z+m1KVJilvTMTKkt3emqhF8XavgtE5WYEaML77tfD1zdVY1irfq07fpo9vOaPC9Ld8+ariHtT+777QqAszT69XG6tp5VkZWqrVt3acvK+Zr6zgqlqocmLXhEV9ZytT/xCICDyRUAX6YHpvYzf4JTRLXG56pDQ36zAAAAAAAAUBQBMIAqhQA4AItGSi8mSaPmSpfXcCodR5Klwy2lBk650lVAAGyGsR5ifeZ9jaVnJkltvT6z8Yt13LPc3Z5xSsvdrJkD79bUbe00bPZzGuIj1E/ZuUuNGp+whzxgrgBYGrtogvqZANhD1uppGnCf9R0eNl0f3NnaqT3RCICDyRUAD9Qrq4eqg1MHAAAAAAAABCJs9ENj/u4sA8Apr3q1CGcJfiUtlr7NlG4YVHRI58h4yfSULHBEevc/0o/WdW1rego7PnvJqouRWls72LNamvWyNGOetDdXatJG8vWO0j1rrX29Jk2dKW3aJf1gbfetM21379863uIF1ryz1MvajzezjzetY0+bY+3jsFSvlVSnhB5wnz1nTXuk256WuvsZw7qm9Vl8ObxTWjBdet465++3S1HNpEZebbd/Ls39QTrXOt8Q6zjmes2wrsc3+6TazaX6fv4o4bsPpelTpdcSpQPWdWvRUqrmrEOZpS15QX96b7s6jJqkcd19R5A14wo95MelbVfiB69qyoSZeve7FGVGt1S7s7zu387lmvrGZtXs0ML6+uzXqvde0YtTX9ZbK39Tbt1mSvBzv1O/X6hZL76k52d9pc1puarbwtq+hPuduWmp5nwhXf6HHkrw+ruFsPph2jPjEyVGddSNV7dwfeVy07V11RJ9+Nprevrl1/W/TZnKrddMrb2/IxX2GTKV9NFcfaFLdPu1bXz+DCBwe1a+ovlrz1W/ey4sGJXfW1byUr3y1jJtyGqmjo0971u61s2do3dW7NcZ57ZQbfdw5+YZSVyoV2ZO1z/fWaUdmZE6s/FZqu39LHo+Ixnu78Vb+mJrhmq2OUeNnJubunKeprwwWXMS/Xxf3PZu0Pw5L+u5KXP0hb/nEgAAAAAAAEET6swBAKeLuk7Q+sHnUq6ryr906X8fWtNOp+xIsuo++1Fa+qQ0xJq+t9Yftab5L0kjrcnrNbv6zqobMkZabu2v84XW+lXW8a19LPlKWm0tb97jNCzGImt7sw8T5nboKCXPkx4YbO2nuG2tE0lca82t9lc3dlUFypzzH4dKc63t21jnnG6d67gh0otmfx72J7mu5brF1vlZ6+dZ69OzpG+s83t4uLUfr4uRa53vozdY03+kPbWtzxJhbT/FOtZIaZfTBmWUrlXLl1vzyzTw6qauqgBlfT9Tg/rcoeEvrZHadlXz9CWaPOwGDZiyofA7hFM3aOaMpVr33VKNG3iD/vKfNdqalqWkRXM07s4H9Nz3Xu/Vzt2lj0Zfp553vaD5v8brwvMilTR7vHWs0VbZaRMEaevn6P+zdy/wNZ2J/v+/hB3ShLiLlEiVBkWlVNoq1VJT1NB2UOfQ9o+2Jr9hOHTSo83pZDg1o4dhJqUl01ZmtExbRl2qUtpINcq4h0iKoHGraCQRtePyX2vtFXYicpEo2T7v1yxZ61nPuu29mzVZ3/08z4u9++mp8Nlassv1Qdq2YrYmDQ2/8pxu0mtA2TlahKpJykLNiHhLazLtQoNza6wmTVuoPU1CFZyfs+YmKXqY8ZkeP1srvsu2vvCwYlaEnuo7StGbjN/N7i59RpZrwsBnNenDnTp8Lk1fLJipFwdO1pqMI1oT9ax6TVqi7cavtH1fLtTU8CGaFFdoP4b0FZHq3idcU5ceUf17QuW9xzi3oU9qjLEMAAAAAACA64MAGABuNfcNc411+9Wb0rAJxs+9pQiCi5AcI33gK8V8YkzGfKzxc0hT6cQyaYNb6PnTeukPRlnICOmd16UXX5JeN+qPDJEutHCNvRvxmF35KrbPcQWvfYztY2dLvxkjzTGON/IO6W2j7Hu73hW+M7Y1fgS0l+q4SkrlmHG+5jnfaZzzwlhponHOf1ponHc/acXvpW8KBWRKlqYa6583rmWBMc01tplhjqP8o/Svja4qFmO7ecZrvuU2Y19GnWjj3H9jTAuNa7pznzR5sV0P1+aAdq8zfrTpqJCyjIt7PE4TxsRqX6eJ+nTV+3ozYoQipn+i1XOM93D+OE3fUPj9TtTUiQvlN+YTJa6YqwXz39dXC81ueg8o9p+JyrZrme/39rkRmhRXT8OMz+vqea9q3PhX9d6qDxTZabOiJi1Wul2zrJw7NmiN8TOwXZDV1bJf0yC1HzJdn65fpo/nm+c0V6uXT9UgH+OcZi4v4jg3/hpQGk5lZeYou/B06SNZV49PGKuuuXGa8bfNri8rnD+gJTMXKr3daI3rXdeqZXbPvfLVcYpJCXC9jwvsz8hn7yui0wHFvDS5iDDf/IwsUWDkJ/rqI6P+gk/08aQwyTjW7weHa57vaK02/nux9vPhRHU1jr7yH6sLfB6cO2I0JjJe9YdP1+pPozVl/GhNeXeZPp0Uqm+jJmtRoe8WAQAAAAAAoGIQAAPArcarkfRGjDQgRPopWZo2VvrVYGnel1KWXadUHpBmjVGBvkkftYPc5O9cP00p280MQ+pu1M/vhtTU5UGjfNOVLWSv8KP0z2VSgHGOL3YquI8nhhj/HJISikkRzGPXLjzur7HPb41ju0/7jLJ8n8Ya2xnn+z8DCx6vk7F8h7HDBKN+YWNnGdfo9mK0NF6LO4yfm4zXON+Pxmv8qXGcIa8b+3I7J6+m0qCHpQPGdR6wy3BNnLnGP/4O1XIt2nK0f8NmbXSf9l5uqZi8NEYJuX315uS+CnR7v/06DdCwTk4tWmsHa24GTI7WuG754ZqhRTcNMD6eWpWk/a4SKTNe8+cdUMj4KI3r5NZ1uFeABgw1Pks7VujrNLuslJyZJ7U/PkYvjFmodJ8w/bqvPf6vfzeFjwxVoHuvun5henSA8XNHkvZcTnQvuVHXgLJYrDE9+6l7oWnSZyft9YYmffW7SWFKXzBTsSlS9tpYTd8RpPBXBio4//O8a7neincq8KVXC76PPkEaNMYM/hM19aMku/Cywp+RwJ599LjxM7vby3pvfJjq5e+/SXcN6G383HFUGa4SQ46++Ees9rcZrTfDQ+Xn9t9WYP9BGqwkLVnPLzwAAAAAAIDrgQAYAG5FXnWkkW9KH8ZILz5m3A1OS0uM5edGlCKQzVdXKpyrVi1iDGZHCeMy/1Q4Wivkp93GORk/H+hcMIw1mcFpiPHzpFsYUioHpajXC06fGWWWQ64WzJ0euPL6zLTbPN6xIo5X64rKxrXbP/Mlmc2RjXqdWriW3TU10+JjZkM9VLgDWhI+Xi+6T8vzg6cD2h5/ROrdRR2uGLQ2QHe0MX4cznBrEeviV6vwm+t9xfvt3JWkNcY+Hu1URHfUzZqpq1KV7tZtb9ESFdXnYYV2ck1hPc0ufGO1v91gzfrHVD3e0K7mLvek9m9N1JL5MVqywyzIUdYZa00BP9814Np107jo6Xq70DTSPcQ1BPYfrYh2BxT9RqR+PydOgSNf1jC3YdT374hXuvE+Duhmf2HAXfNQ9TE+5864zWZfBgVc8Rnxq+caOt7fr9BHxVf1re+/ZOhE/n8szp3aFmecW4/Qy0F0Pq/mCjZ+xSYfu7LLaAAAAAAAAJQfATAA3MocjaQnxkgLF0ovPmAUHJP+MM1qIFthWj4oKzH4an3Brqa/+tz4p6nUvoS+mU/ZiejHE6R+/QpNI6zel6/OW1ZT0MPGdRXQQVpgXLM1GfstwDieOTTlpjeLOJ4xrXDVuiY/HjX+OS1NKGK/I+a46qAcHKrVxPiRdlI/uApsbRUet0xfWdNUDbJLXXKUvsv4sSpS3e2Q1X16br6r1rXIPmF+kI4oeuiV+w3tM00JrmolaKlhU9zCv3nva/Xaz/VV9Gh1LTSsdcamhZr0fD+FdhuiF/60SBtP2CvKoWKuAdcuQB26hKpzoal9k0LBrFeQBr1ktsiO15q0vho3vG2BgDb7WKrxb5DqFdk1up8cZvnhnCtauped25cNMjNk9iqdHj3qys9OpycVZdwSAAAAAAAAcH0QAAMAJK/bpCf+W/p1B1ndMn9TgQmwV4j08kBZYwa/8Lr09hzp9RHS349JLxrLt9v1SmKO/3sptC00/X/GeRfpDqmj8SPLuKbC4wSbLXat6SoBdBvjHIs6ljn9voQxi4tlHDOyiH3mT+3targGQbrL/B7D4URtL9QruMPfV37W5Gd+LeBKPSbq40shcaFpSi9rnN1rU1cjoovYpz2Ft7OrXVU9BXd0C//uCVI9v0LhnyFjRYT6vhSj/e1e1afrP9fqBdM1ZfwIDTY//+VW3mvAdXf+gBbNWWx9zh1arZXri2pZ65TO2bM/o3rPTy/yc2NNI9vatQAAAAAAAFCRCIABAJfVs5sUni9/O7ACzK6P2wyWBthdHwcPlKJjpSfcBxC+ikZ3ulrx7jvqFtoWmmq4ql7JIXV92Ph5SPqs2KbCbozjmeOgfndMuq2IY5nTbVcGcKXSsrXxz2nJ7Pa0qP2aU+GuUlEGDt3XY6Dxb5JiV5ktHksjSB3MsUs3HFS2X35IXGgqInAtjXohbRWok9pzzFn0fo3JUSHvd6qWzEmUs+fLent8WMFxgMvp57sGlEf60tmauiNMEQs+1P8an+eVUea41vZKQ3Cbnsa/m5WcVsTvdmeKks3WuA80M97rCtSwlTo0kTL2HJGziM+NNV3R7ToAAAAAAAAqAgEwANxSTktvjZXiCjWPzPftWuOf26QWpQhmS+un9dL7e6Wnh0lPGNOLL0nP9pOCjOOUSojUq46UHCttKu34xG7uM45pjtu7ZIqUUJqWzcZ5deskOZdJnxbuOrqc8rvD/mCh9Vag4jk6DVLEA1L6nMmaur40Ayr7qnOPnnLkLtS8pWZ3xxWoRZgGNDc+dvMWaqNbGFfxnMoy+9ptWFd+rgKX8yeVbpaXx892Dbhmx+P0xxmJCg4foQENffXI2JfVVYs1YVbipS6d/Tp10+M+0qK5y7XfvSt+Q/ryJVpk/Hykb/dytHQvSks9ODBIWv93zd9UwV8qAgAAAAAAQLEIgAHgVpJ1SEozpj+Pll56XYrbJH1rTp+7umX+9LTUyVjXxq5fEWrcZjXE1d/nGMdJNs7BOIb7VCiMsBzeJ/3oFhgMmiDVN+r+7xjp4232tsekr2Kll42pqH3k82okRfy3sf2P0lTjGl836lvXbExfLZPG/d6u5/ph6W6+BsZJzzN+zvtSOmaf6xaj/sv/e+1jJJvdYY/tZ+zLeL3HGPvZYrwX5n6P7TVeH+P9+HtpWynjqrwCNOB/pmpQ8wNaNGaIhk5aqJUbNmujOcUv14zw38n4BMjh1krWr8cIRXRzKGHKKL04L1H7j+coOzNH6VuN+uOnaU2mXbGsvFpq2KuDFXx4oX4zcpoWbT1i7Tf7+AElzJ+sMfNL20q5JEEKMRt4LolR9AbXMdK3LlbUsCGausnXVeVaXcs1pB3U7gwCv4qxUwvnGO9rUdNa8wsLOVoz809K8B+siMEtXZs07KnfjQuT86OZis4PXv276dcTwuTYMVPPjYlVQtpJ4308ou0fTdOYKYlydJuocT3L+VkpQsjglzWs+RHFjg9X1EdJSjc/O5kntT9+oSaNX6jk4n53AwAAAAAA4JoRAHuIvNxs5V2wFwDgamqFSG/ESr99TMraLv35dSnKnGZJ23OkAcb8a2aXyRWpgzTR2Oe+ZcZxJkhDBxecBo+Vdp226zaSHjHO0QxIX15slxluM/YRPVO63yG9O8nedoQ009hnU2Obn+x6V1P/Adf2ve8wrnOhfc3GNG2OdMjY/kVj3Ui3cYTN0PiNGOP1MOqveFMaYZ/ra3+TfJsWHziXpONL0gxjqr7J2N9o135HGK/BCuP1b1zdroRyqRemiPnva8rwUP2wbrYmhY/Xi+Y0fppi9wRpUORcrR7lNvaoGRpP+1Bvv3S39s2P0FN9+ql7z356YuRsbfNtJr9yvN+Oe0brg4UTNcD7K00d+Yy13+59ntWED3MU3MhxqYVm+fjq8TFRGnB7qmLCXcd4YkKcHEOM63yzr13n2pX+GurqoV+EyXF4ocaMW679dinKI0kr58Uqpqhpx0k518fov1fJeP+HqbNbd8qB/Ucrot0RxU6N0Xa75XZg/6laPmeEQvbEaMzTTxrv4zN6bupX8nv6VX08ra8Cr0dX3j5tNc74bzGyj0NfTA3XE+Znp+eTeurVhcpuXk/eZ+16AAAAAAAAqFBVMrNyL9rzP7Oj2vTFPp0oHFrWaKhOD91p9ZBZdud0Yl+CNnx7SKfko4D2D6tHm4rtzO7mdExrp07Vkf4zNLQiW+0BlVBtv5r2HErl9OnLYaY53u31CACOfS6Fx0gv/01qbyy7J157P5H+sFAKGCFFD7QLDdZ5VZdqFTGYqdNYlx/4Xss5m+Mbn86zF65yDHfu9fNbM1eUS69/Kc4D18Z4/7Kz8z90Dvn5l/x+X6rv46trHP63SM7sHJ213u9SnMe1cDt3b7/rMzZvaa7BVec6XSMqhDPTeI/MmQr+jBfLmaNsO4y+Xp9PAAAAAAAAuNzAAPiCzubk6qfCAXBVh/x8HWVvmnzhmNbOelP/PHa7evTqohDfbG1e/bmSQ15Q1FMtzUfrHuzGB8An1kzVPD2viEca2SXAjUEAfBN6d7C0/klprvHzCsekCSOkwwOlBcZPAAAAAAAAAABQLjewC+gs7d+9T7sKTylHlW3XKIu9i2fqn87HFDVlrH71SJja3ddLz74SqdceLxz+nlNeTnHdJRe3vqRt3Vw4p9ycM/ZCIda6n+Ec3NnnU+R25rrcc/aCi9mldG5+Azl3JZ57IRfOXP24trzcq7xOADyD0/hlknFIyu/l2d336yVz2NteD7qWAQAAAAAAAABAudzAFsA/6ci+ozpVMHeUqtdScHBdeduLpXJhuxb85kNVH/e/+tWddlkRcg/8S/NmJuigT03p1BkFPD1B/9XdbLFqtqCdq9zeXXVw8ec6eCZPJ3Jra0DEq+rbtKRt3Rnn8UKCfIZIm1ceVZ7O6MRPjTT0tQnq0dBYfSFDOz6aq3mJWfLxMXbzYzV1DX9FQ9uYLRbLcw7FtQA+pyNfv6NZC/Yrr05N5Z2Suo6NNF6nDGObd5XX717tePtz7fXtpP96Y7Ba/Jio92d8rM15NeVz9ox03zC9NqS9fIo59+R/jNP/fWUfztBiSIQiHqmlg6ve0f8t+14+tavr1Klaeuz/hWvAXX5WHavF8IXH1GXnB/rn3pp66y9RVjlQXrQAvgkdWSaFz5GqtpAG95WC6hqFJ6WvlhvTXteYuK/3uz7dTwMAAAAAAAAAcIu5eQLg2+orJNDXXrig47s2a2PaOTVqf4863V7DLr+KjNWa+sr36jvnebW7Wpvms9u14JUVqv/yBD3WuJpxiN365yvLFTBpgrrWcgWo/6zRR6+N6aUAYx97F/23/u/CML01pHUJ29r7t5gB8Ls6+Mtfa8zjLeVj7OfI8smKTO2qN3/7sGqbYeye/ard0rUu999zNWFxQ702+ZcKsEPcazuHqwfAebve1YR50sgo47UxX96cbOX6+BnHd22z4Mf2GvOavc46h5k6+PgreraDnxVYJ/z1/3SkjxmsF3fuskLgJQFm8OsKxfO2zNXYD6tpdP6+j67Q1Mjt6vJGhHrUcwXAr3yYpR5jXtHQu12hMFARCIBvUlmHpFWLpfXbjN9Ddlmrx6SnjOmOOnYBAAAAAAAAAAAor6r2zxvgJ53KyNKPP7qmU9lOuXoJvqDj2zdpQ1quMefUkUMnrNJi5eUq1/hRPf9qfkzQ7Fcj9Yo1fay9RlHezg1a2+Zh9TDDU1PV1mrXPl17D7oWTV0fcwWvphZtWiov7XuZRy/Ntpc1UpcwV0hqCugcqma7UrX3rLlUTQF3mevOKS8jTQdzq6n28ZM6ZdV0qZhzyHdOO9Zvl8+jPeyA1+Brhr/2vKHLoGGX16Un6vOcLnrMDH9NVesp5O5aSk47ZiyUfO6XGcf99y4F9Opzed+NH9Nj9x1TwhZzX7b7+utXhL/AraFWU+lXY6QZMdJce5o4mPAXAAAAAAAAAIAK5hYF/tz8FdK5ve7v4pq6hNQ1TsYV/m7OaaxOzXykGg3Vpcvtdv1iePvIR1k6ld+qrE5XjZ4cpTfGPaTax7NkDmV76lSGtG2pIi8Fw5F6f7efdPYqIw67vTJl3tadV3VVV4Z9bmd0cM1cRU6M0uwvUq8Snrop9zkYxz0htQtubi9fyaemHSibTp3UiR8TNMvtGP+3JlfKM8foLcu5u47bool7F9nVFNC0ng4ecwuAa/oUGp8ZAAAAAAAAAAAAQHncwAC4CBnfaeup+urU6KS2/eCrLg+HqGFpzrBOG4UGpilh29XD0Nq160ktHlOEGQy7Tc/eW3IL1PJsq59ydUqNVN9s5LZvqf5vTV2N/GOUxgzqpS5tbldtV60SXds5+Fjj9e497Ba6Fqd2XdX37qSRUQWP8drjzct47vVUu37h457TkUMZatao8LjJAAAAAAAAAAAAACrKzRUAV6+mGj8d1aZ0H4V2L2X4awlU11+115EFb2v5AbcQOCfrUkvV6nffqy6pn2v5Tvf12Vbr4JKUbdssHfzernchWzviNii3+70KMa4l71SWcn1r2V0wn9OJ1DQdsSqW7NrO30+hD7XRkRUrtCO/dfSFdB05bs8XFthJPWon6p9r0u0CgzlmsPGjpHOv7e+nvYfyt6umdvcax13tdtyjn+vzbxupa0cCYAAAAAAAAAAAAOB68Yp4ZdLr9vyN511HQS2a6s6gerqtil1WStUbdFSXoENaPidW7y+L1zdxy7Qw4ay6hg9V94Y+UrUAhdx9QRve/Zv+/kWC4r9YoU+3nFe7+0NU2+u00hISlHPXL9Sugb3DH7bq0z211LNrC/kUu61d33JMOz5N1o8XtuqfCz/X2lWrlODdVS//Z3fVrW682HV9dHbVh3p31XolrP1G6c2aqf7Oswp+oqPqqzzn4KsLx+K18F8nFNL7btW1Nzd5BbRRO61XdPTH+uKbBC1f/m+dut1sMa0rj6daatGhoY4smafoTxOUEL9an36VrkYd71WzwOLOXfKrd067/v6x/pmwXpvOB6tH1wfU7oJx3NkfK379l/pkdaa6/DZcjzf1to6Uuz9BX+S0VP/2BMKoWDW86VgcAAAAAAAAAADcuqpkZuVetOc9Rl6u2TK2pnx83Ma3dWOt9zLWexe9vjjFb7tdC15YoYA3ItSj1hnlXqheRL1zysvJMwffVfVrbH9d9DmUsN8LxvnkStVLe9yz2co9X/g1LN0xfHxr2gWGsh4XKKfafm6fPwAAAAAAAAAAgFuMR0Zy1X38rhr+mqz11xD+mkq9bfWrhcTVVN23fGFo0edQwn6rGudTluN6F/Ualu4YBZT1uAAAAAAAAAAAAACumUe2AL5x3FoA17OLAPysaAFcgn797Bng5vTDu+/ZcwAAAAAAAABQtAYNzAFKcTUEwAA8CgEwAAAAAAAAAAC4ldExLwAAAAAAAAAAAAB4CAJgAAAAAAAAAAAAAPAQBMAAAAAAAAAAAAAA4CEIgAEAAAAAAAAAAADAQxAAAwAAAAAAAAAAAICHIAAGAAAAAAAAAAAAAA9BAAwAAAAAAAAAAAAAHoIAGAAAAAAAAAAAAAA8BAEwAAAAAAAAAAAAAHgIAmAAAAAAAAAAAAAA8BAEwAAAAAAAAAAAAADgIQiAAQAAAAAAAAAAAMBDEAADAAAAAAAAAAAAgIcgAAYAAAAAAAAAAAAAD1ElMyv3oj0PAJVebb+a9hxKcuHCBZ08mamcnBz99NNZXbzI7QAAAAAAAAAAcHOoUqWKatTwlq+vr+rW9VfVqrRrLS0CYAAehQC4dLKzc3T06HHjxnmbateuZd1EuXkCAAAAAAAAAG4WZiMms/HSqVNZysk5rcaNG8rPz9dei+IQAAPwKATAJTPD38OHjyowMMAKgAEAAAAAAAAAuJmZAXB6+hE1adKYELgUaO4FALcQ8xtTZstfwl8AAAAAAAAAQGVhPs82n2ubz7fN59woHgEwANxCzDF/zRsl4S8AAAAAAAAAoDLJf7ZtPudG8a57AJyXm63cnDP2ksupr9/SK28n6JS9DAD4eeTk5Fhj/gIAAAAAAAAAUNmYz7fN59wo3vUNgHMSNPu3kRo7/h1tcHsv8s5m6cSPZ5RnL1eMDCW8HanZX2fYywCAwswB82vU8LaXAAAAAAAAAACoPMzn2+ZzbhTvugbAeXt2a8cd7dXjjjRt2Jltl7q5kK2DRp2DWefsgsvystKUvCdNp9xT4gtnrNbEeflde+cZy7nmtueUl5Nu7CtbJ7JOXtHiGADgcvHiRVWtSu//AAAAAAAAAIDKx3y+bT7nRvGuYwpwTju27FL9dj3Uo52fdny7Tbn2Gsvxdfq/CVGaPe9v+sOESC3YlR/aZmvz+5Ea+0q03p8XrQm/dVuX/KHGjp+phB9diyfWzdTYWWt1Qrv0z/Hvam2OdHDxW0adD5XsqgIAAAAAAAAAAAAAt4zrFwCf3aTN39ZUaOvmCmjdVj47/60dBbrkDtbQqGl6Y1qURt93RmsXfK4jRmnelg8172sfDfgfc90biuh+TmvnLdXe/Fa/RWqvoe88rx7GXIshEZprzIe4VgAAAAAAAAAAAADALeO6BcB5O3dog+qq+qnN2nGqmpqpUDfQDW9XgK85U1PN7mgkHT+pU8bS3j27lNe0vUIbmuuqqcXdLaWc/Tpot/oFAAAAAAAAAAAAABTtOgXAru6fq/tmacPHS7Tg42064i3t2Jkk9yF9L7lweQzg6tVrSmfziq4HAAAAAAAAAAAAALiq6xMAn92uzVuk0P+I1BuTo1zTc22kb3dox1m7zvHvdTDrnJSzWZ+vzlD1sA5qYRS36NhBtY9v0FqztfCFDCWs3S4FtlZIPWNl7bqqrywdPJih3KztWvv1MWtXLtWt/53KPmNsZxcBAAAAAAAAAAAAwC3kugTAebv+rc15zdXurmp2iVT9rtZqp13avNPV2rd64zPa8MZEjRofq4SqoRozJNTMb6U7+mvMU420YXakRr00WQu+b6mRo3+pAHNdYJgeu/OMEmZP1thJn6v+/e3NUltrdXnMT6eWzzS2m6kNBcYbBgAAAAAAAAAAAADPVyUzK/eiPX8DnFNeTp6q+9a0l91cOKPcn6rLx+dyiOzi2kY+NVW9qPj6bLZyq/rJx0qTAdxqavsV8fsEl+zenaLWrVvZSwAAAAAAAAAAVC485y7ZdRoDuLSqFR3+mqrWLCL8Nbm2KTL8NXkT/gIAAAAAAAAAAAC4Nd3gABgAAAAAAAAAAAAAUFEIgAEAAAAAAAAAAADAQxAAAwAAAAAAAAAAAICHIAAGAAAAAAAAAAAAAA9BAAwAAAAAAAAAAAAAHoIAGAAAAAAAAAAAAAA8BAEwAAAAAAAAAAAAAHgIAmAAAAAAAAAAAAAA8BAEwAAAAAAAAAAAAADgIQiAAQAAAAAAAAAAAMBDEAADAABUsP1pB7Xh239r/TffKikpWadP59prAAAAAAAAAOD6qpKZlXvRngeASq+2X017DkXZvTtFrVu3spcAVLRt23Zq3deJysw8JR8fH1WvVk2nsrKsdffee496Pdpd1YwyAAAAAAAAANeG59wlIwAG4FEIgIvHjRG4ftasXWe1+A0N7aDO996jBg3qW+VOp1M7du7WV/Ffq3atWhoy+EnddpuPtQ4AAAAAAABA2fCcu2R0AQ0AAK6f805lZ+ZYk/O8XVYCp10/22kXVAJmy18z/O3zeE/1+UVP1atXV8nJqfomcaPOn7+ge0M76Plnh+qs06lly1fZWwEAAAAAAABAxSMABgBcM2fmESVv2KyNG5K0/3glSutuFk476KxkYWeZZKzWpJ791N2YonfYZcVKUrRdf9JnJ+2ym5/Z7bPZ8je0Ywdr+Z8fL9XSZZ9pXcI3mvmXt3Xy5I+qU8ffCohTv9unPSnfWfUAAAAAAAAAoKIRAAMAyixjQ6zG9HlMYT2f0dDw8XoxPFxPmctDp2lJSo5dCyVJnj/KCjrNqdfMzSJCr5z2px20xvw1u302ZZ7K0pHDRzVq5HD9JvwF1axRQykpe611zYOaKSioqXYnp1jLAAAAAAAAAFDRCIABAGXgVPK74eobHqMEq8WvQ/VatVRIm5aq52OsTVmuqKGRWnLYVRvFOJ+qr5cesReM1+7TDUouZRfJuLkcP/6DfHx8Lo3561+7ln479iXV8a+tixcvKu/cOVWrXs1aZ7o9MEDHjv1gLwEAAAAAAABAxbrhAfCF7BPatWWzvli9Xp+Z09rN2pRyUmcv2BUqxDnl5ZxRXoXuEwBuPc71s/VcdJLVUjW4/0QtWPu5Vi+YqwXz52r12k/09shQPRI5UQOauOqjGHsSXUF577GK6G38zF2sL0rVRTJuNufPn1f1apcD3nzJe1I166/vyNf3Nt3dtrVdKlUz6p47d85eAgAAAAAAAICKVSUzK/eiPf+zy03brvhdWareoLFaNG2sOj5GWeZRpaUe1omq9dWhSxs1M8pK75xO7NmuIz4t1a6pn11m2q4FL6xQwBsR6lHPLgLgkWr71bTnUJTdu1PUunUre6mMzqcqZuAoRZuh5QMT9emMvgr0cq0qjeyUOM3/+wp9nZZtLAWo838M08ieLeXnto/0tTFaskdqEDZYg9pJyXGxmvePzTIP2aTTYIWP7KngIu4Lhffdvv8AjRoYqnqFzu+K/S+P0YyPdipbfgruP0IRA9ta52Pub97chdp4TPJr3lMjxw5W5yLuH6W5pqtJnveMhs45os6TPlCEM1JPTUuVY3i0Ese0tWu4OZ9jvBYLFbs0UfvNQ/kF6fHBwzTgwaACxyp4PsY19RykkQPDFOx+SzSdP6mNi2O1cOlO67W1rvH/GdfY0LXalL11seYnnpTu6qPwHgFWt99vRMfb78UIjQsPc73/xzcr9q9/10rzmI1CNeylEXq8hcPah+X4co3pM00JxuyweV9quJZr/j+WWK+tVX/UMD3eyteq6pKkGZ3CFWvMdY38RLP615UOJSpmeZJ+Ul09NGSg2vu7aubbHxejFeaQusHdNKp3S7kd/WeRlJSsxf9arpcn/EYOx+WjZ2Vla3/aAbVv11ZVqlSxS6V/LV2hnNO5+o9nnrZLAAAAAAAAAJRWuZ5z3yJuXAB8IkWfbzyp+h07KbSx2WrmnHLPSD41zfmflPbtZu3IbahuD9+p2tYGpZCToFmRK7RXHTRm+mC1sIuvewCcsVpT50ojI3rJ1fkjgBuFALh45boxpsTqiaExSpdDg6KXKaJLaWM2p7bPCdcL81KvGOPW0W2iPp52OUjePuthPTdfChw6WgN2xSh6a8EtHN1e1fLpPXX5V/nV9y3/bpoyP0qPu7VGLmn/weHTNcVnkZ6bllhwf81HaMHCYQq5FLaW/pqKlqqY/maYHqDwBR9ohOzX1mew3ls7Wu0LbHtSK8cP0aT4K67Qej0+Nl6PQGM+Y0WE+kYWOm+TT5imfDj18utwOE4Thk/Wmkx7+ZIgDZs3V+Pucb2vGUsj1CsqUeo5QhE+cZq69IBVns/R+1W91zdJk8Ys1n67zOLTU28ufVWP5Ie0bgFwcKuWSk8p/JoVPG6RAbDblw8uleW7tK6sn8uKc/p0rmbMnK3Hf9FT94Z2sEulo8eO6/vvD6uTPTaw6aefzmrmX+ao20MP6P6wznYpAAAAAAAAgNIiAC7ZDeoC2qnk5KNSkxA7/DVk7NOGfx/UKWuhhpp3ulMB545qV1rp+23O3flv7X2wjwY03KbN++zCwi6cU27OGXuhMLOr6Gzl5tmLAIBLMpKTlG7N9VXXjqUP2bLj/uQKSn3aakT0B0rc8KUSl07VoObG3SB+mmbE5dg1L0tfMFvRaXcrfMpcfbo4WhH9g6xyZ/xCfZFmzVou7VsOdQ2P1qdxy7T6o1etfSszXpPGxGj7lbnp5f1Pf18fz39Vw9q5yvdHj9fQaTvV4aWp+njx+5o13G6NmxarlW7dM1/LNRWQYnf/7NNNnc1vK7UI1SNmy+aiuoFOWa63rPA3TBEffa7Nm4xjrZqryIF9FTHBFf6agfKSOa7wt2vE+9b5bF7/iRZE9tWACWMvh79mWDrGFf5aXXjHGfU2LNOCiWHGK3hAsZELrxyHOC5GU+McGhARrY8/mq6I3gFWsXPVZA0ds1zeA8fqvcUf6L2J9rnkxmlJ/EmrTmH7U5zqY+zHep/mT9QA832yjlv0+3SJV0v9wn4vEhZ/ZX8ObXvzX8u+erQMn8uKdNttPrr33nv0VfzX+vHHy8m6Gf7uTk6xl1y+WPOVqlevrlC3oBgAAAAAAAAAKtINCoCP60RWDQUEu/XhWK+VenS943Jr36oN1bxBNZ08ftQuKEm2dnx7TF07dFW7+2opYUuqXZ7vnA5++ZYifxelP/w+UqN+86bWHrdXGXIP/Euzxr+iCVOmKXL8RP3hX7uVa2fPJ9ZM1aipq3XCtWgwWxRP1doMY3bXuxr1ygrt3bdCr7wwzqoHAJ4o/fBme86hWu4526F4Rc+JKTAt2pofgKZq0aw4K5h8ZNIfFd4lQA4vYw9NwjR+4kCrq9418ZuN3+CFNBmstxdP14jeLRXYtK0GvTRIXa0Vqdr23ZX7djwdpTefb6tAf1/Va95TEW+OVXuzSlqsFsYXEcaa+19q7L9bkILb9NS48MH2igANm2OOZRym4KZB6ho+QsOscqf2H8wPNa/xmtwkf73CCjEdT3dztfb1aqmuT5hbOrVmU6H7V26OHXjWU5OGrhfeUa+lBkxyH2vZqSwzBDXUb+g6HznqKqT/REX2dwW2puy1CxVtBuhNRmjKpL4KMW/DXr4KGTxW480Q/PAKfb3XrOkuTJEfzlXk020V3DxUg8L/U/ntVrtOel8LJg1U+6YBaj94hEZ0cpUnpB1xzRQyYLprP9b71KavIl8dbL1eOrxYX+yyqlxVYJeervd0R5y+PmQVWfZvibdfy57q7Hp5bohej3ZX7Vq19MHCT5R24KBVZrb8HfYfg6x5s+Xv8hWfa8vWHfpF70fl7dZVNAAAAAAAAABUpBsTAGfm6qwcqlHLXjZlpOjzNSluIatU37eGLpw7Zy+VIGebNuxpqXZ3GNu1aa3aX29WwWfYGTpSo5ci/hilN6ZNU9QvftKCBV+6Whyf3awFf9qg+v9fpGa+EaU3Z/5WXXa/o1lfmgMUlqDN85r72/bSHX30xjszNDeil70CADyLw/sqfehnJClmXmyBKeGg3ZzzeIq2WcFkqO4LlrIzcy5NZ+s0k9UGcl1qwS6ETc2b6Q73cWsbNpexuSU7t/C+pQHdQl1BYr7mYRpgh5ErtxdsgWkx9+8+lnD9xgqxZoIU3MxtT17e9oy0P8P81o/hWq/pklR9vdgVkA7o1NL6aby66vBgX2sufWliwVa4zdvqcetcl2vC0xGasTRJ6fZLcFmQOvR2nfeSV4dozKzl2n74ikravyvONfNQSwVmXz7v7Ew/NWljrjiibd8Vbr0bpDsuBc2G+vUuvRfBwZfDZcl4rfJfumMZRQbgfgW+OWBo01EDrBn3gP0qmvbS4J7mTJKWrM/vjvqANi43A3OHBncrYuzkn1G1atU0ZPCTqle3jv7+j38q9h+LtObLdVqX8I015q/Z7fOelO/05MB+atP6LnsrAAAAAAAAAKh4NyYA9veRt5z6KcteNl284JrcnDj9k6pWs7uILoHZ/XPyA/cqxLyixh3UxadwN9CN1CWspXzsKw7oHKpmu1K196yUZ2y7oXFXPXa3nTZUDVSPXm209+t/FwikAeBW1qCeqxtm8ws1J9zTveZ99Hb0dGsaZwV0bg4ftMZ+lTZr6tB+6t7TbRo6UxvNVfmBblld2rfk7VMoWFQ91be6FzakHTHOuATG9iWN4Z6ebZ9nea8pv/tnOfTFX8M1dPgoa3rur1+58lOzFe4ec8bm303/8+5Ya0xd5/FExUaF64kH+unFeZuVcSko9tUjk+YqoqevceyTSpg/Tc/1f0zdw2O18dLFn9S+7+zZhREFz9uYxiy015X0vSuHnxn1Fi8722ohXSK3fWU5jRtysXz16EBXC+vkf8Qr2Sw6tFkrzJbDTYbpcbsb7xvJ7Ap68KCB+tXTv5Sfn69SU/dp+45dyjmda435G/7rkYS/AAAAAAAAAK67G9QFdEPVr/WTjh8obozETB384ZzqNmxsLxfH7P45Tfr3R3rl1Uhj+pvWnjpTRDfQbryqq7oydMo4hVOnMqQ7bi/w8L96YKACDh0jAAYAW72QtvZ4s/H6dpdbvOcfpM5dQq2pg3tLUZN/fsvalho2xRUSXzHNG2DXKaNL+y5Kjk7YrYPl53epYWqFKOc15XdZbLZ6zUhJVfIue0o5aYemR7RkfcH7l6PFQL256nN9Om+ihnXxNUpytHHOePWNjL/c0tYnSIOmLlPi0mhFDg+V+ZWm7A0xenGga8xfM0Ctn//+9Bxd9Hkb068frGtX+hmcvxz61nKUGCvL0amPRpnXcDhe243bfsaWDdpuLAb2D1OI2e31TeKuVndqQP8+enHUswofPUL/8czTuj+sM90+AwAAAAAAAPhZ3KAA2KFWrRrq/Pc7tfmo3dSo/p3q+sCddgh7Tke2Jiu9SkO1bF6KUzS7f97ZUkMnTdRrEa4p6sVQyewGumCj4st+ytUpNVL9OlLt2vWkfd8XCHvz0tN1pKmx3piv7lW6VsgA4NFahNljzjq1aM5y7XfvpvhqmgS4xm1VqrJr3n0pKC4w3RNwbQHtpX1LG/fkdwlsc6YpeatrNqR9kBWGVphyXVN+l8VS14j39VXcsgLTe2NcXUJb3UBbc268HAq8p6/GRS/T6ik9rf07V61QQqHmzY4mbTVgzHR9tepVV9fRuXFast7sXtnYPtjucvqwcdvtVMR5G1PIVXr6vi72JGmNNeNQcLNSBM9eLfXgQLPb6VQt2ZCq3bsSjfkADXggvyttAAAAAAAAAMANCoCNAzcMUddWNXR8y7dauyVN6Rk/KS/vJ51I36cNX36rTSd81C6sVYldcprM7p933BeqLvX85ONrT3eHqavcu4HO0sHv7XZSF7K1I26Dcru7uoyufve96nI0QZ/vzF+frrWrd6nFg/dax6/duJGqH/9eR3LNled0JO7zS92OWmrXVf19xvqrhc0A4Am8WmrQGFfwqB0z9cyLMdroPs6s84CS87sYzucI1aODXVHoklmzlXDcmr0k+3h+q9drYOy7z3DXGLTJ0bPtbpVNTm2fM1OLrN/ZbTXggfyuqytIea4pbbOWmF0Wq6W6dgqSn79vgal9WDdXK2uzG+j8oYtzk7Rovnt3z1K9pkFqYM35yts6FeOaP1qoje7n4h+kO/xds352y9PgB/q4wutdMZrxUaqy3UP88yeVYbUUvn62bUq6fMzcA4qdE+NqDV2gC2eHatktlU+cudS++ZKQnoOsa0j+bLZiVxgzTfroQWv8YgAAAAAAAACA6YYFwCafFvfosa53qK7zhJI2bVV8wlZtSD4pNWqlHo+0V3Oz5VIpbE5MU7u726q6vezSUqFhUsLm3fby7fJJi9aEiZF6ZUKkZv/YRf81sL1rG+9QDX25i078LUpjX4nUhLF/1obWL2jMw42sLdXyMf2q8XbN+t1/65WJUVri+4gG3OFaZQkM02N3btdsY7+vTPmXXQgAnsev58t6L7ytq/Xp1li92P8xhXZ62DU98KymrjdrOXS5N1+HOofP0DBzPN60xRrTp5+emjhT0dMn68Wn+6l7n9e0JM1Vs+wcaj/yVde+cxMV1d/YtzmernGM5+abLYId6hr5qgY1tSpXoGu/pv0bVrha9jbppvb5YxS7axGqR6x73xEt+dpsKZyjNVPGaeqs8erV+1lNmBpjHee5Ma7g1NG7mzr7Sdlxf9ILU2frxfxzmTNbk0aOU7QZivv01KOdzG6jDU0HakpkmHEFTiVMG6VeT4Rr0vQYTZ1ozPd4Un3nJF57IF8ih5Lnh6u7cRxzzONev3hWM6zPS5CGRQ1268I5QMF2GJwcPU6TVpmtl9007aXB5ljTOzZrY65xCx4Ydm1diAMAAAAAAACAh7qhAbCpql9jdejSSY/17qon+nRV30c7qUvr+vItw5l1/e0MjQm7soPPFoP+VzMHtTbm2mvoO7/Wr34ZoTf/9xW99sY0vfXbX6qZW8DsE/RLjZn+ht6cNFFR06fptV+2lk/+OVRtpB4vG9u88Yqi/hil0WGheiwiQj0udZPpWj8zytj2lV/aZQDgiRwKeT5aqxdM1KB2dqjoxq/dQEW8+6He7O3Wna9PW417d64in24rP+Vo/9rFilkQp41pxm/np3sqpDz9M+fve2BL48yMfZtj6R53Sv6hCo/+ULP6u1oIV7hruqbL3T87eoYWHVp6tdWjT7ta66YvTlTyeV89Mn6GIszjZB7Qmo9ireNszzTeh4ET9cGkblb31n49fq13Igaqvb99LvMWauWOHDla9VXkuy/rEbslsCmw/1Qtjx6hrg0dch5P0soFsVq0NlXZvmEaVdGtpd35DNZf/vGqBtyeY415nGG20DbfpzkzNO4e1zW7+KrrkGEKNmdzT2rllpRCobSvHu0/0J5vqWE96P4ZAAAAAAAAANxVyczKvWjPA0ClV9uvpj2HouzenaLWrVvZSxXAmaNsq6tlg8NXfiX13OBW39vPV45LrT4rwKV9O+Tn7x4oXmfX85rcnXcqO9uOQn2M1/oql+jMzNFZc8bLeB2uVslWlroVKf+4xb5e+a9rEZ+r7LjJ6h4RJ7Ubq0/fHejqNhsAAAAAAADALaHCn3N7oBveAhgAUImZ4Vz+GLal6bbfrX6FB6WX9v0zhr+m63lN7syQ1j5OcVmtI79OKQLdstStSPnHLfb1yn9dC3+uzh/Qkn/EWbOPDOlF+AsAAAAAAAAAhRAAAwCAm55z00JNnTNTY54YpRk7jILmIzSy55XdkAMAAAAAAADArY4AGAAA3PT27ViiRfMWK+G40xrb+M1ZwxRyPVtcAwAAAAAAAEAlxRjAADwKYwAXj7ERUFk5Mw4o+bsMOZq00h1NrnN32wAAAAAAAABuWjznLhktgAEAwE3PUS9I7buEKqQp4S8AAAAAAAAAFIcAGAAAAAAAAAAAAAA8BAEwAAAAAAAAAAAAAHgIAmAAAAAAAAAAAAAA8BAEwAAAAAAAAAAAAADgIQiAAQAAAAAAAAAAAMBDEAADAAAAAAAAAAAAgIcgAAYAAAAAAAAAAAAAD0EADAAAAAAAAAAAAAAeggAYAAAAAAAAAAAAADwEATAAAAAAAAAAAAAAeAgCYAAAAAAAAAAAAADwEATAAAAAAAAAAAAAAOAhCIABAAAAAAAAAAAAwEMQAAMAAAAAAAAAAACAhyAABgAAAAAAAAAAAAAPQQAMAAAAAAAAAAAAAB6CABgAAAAAAAAAAAAAPAQBMAAAAAAAAAAAAAB4CAJgAAAAAAAAAAAAAPAQBMAAAAAAAAAAAAAA4CEIgAEApec8ouQNm7Vx6wFln7fLirF91sOasdVe8DTH4zU1crnS7UUAAAAAAAAAAG4GBMAAgFJx7ojV0AHTtGTLFn27Jla/GTxZazLsldfDjoUaOj/JXrgJZMQrakq8Ll2yb4BC7qwnlSIIBwAAAAAAAADg50IADAAoleS1MeocNV0RL41Q+PhX9d7CV/VIPXulyZmj7MwcOUsIRJ1Gnexsp73kJrfg9s7so0o+ln3VfTqziziecQ7W8nmnta6ow1xS6HiW4rbPzlD6oQz9kL+Nd5AeHRiqQC/XaktZ9wkAAAAAAAAAQAXzinhl0uv2PABUejW8q9tzKMqJExlq0MA9tS293D1rNS81SH06Bcjb/PqQ21eI0ldE6vm/JCvrhy16708rVO3hHmp5m3Rsw3vaH/Sc7m9sVMpNUvQLv9eywyeVvPo9vb2/ufqENpSXnEp+d4yeef+gzprb/zlJQXekasLrC3UiJVmJCQdV/+EHFezjOpZ0RCsnjtdbO08pffsKvTljn1oPCFUjLyljeaR+syxVG/+1Qft2LdGk1zYqaGA3BdewN7U4tX3OS/rPv6fr7IF4/WVKnHx6GOfr59r+xbmJ+nzNdh39Ll5vvb5CXj17KsQZr6gxf9WatCQlfROvs636q0PVzzTx9X267/FW8ilhnyWfEwAAAAAAAACgNMrznPtWUSUzK/eiPQ8AlV5tv5r2HIqye3eKWrduZS+V0fkjWjltsqbGSV2HD9PIgWEK9jPKM+M0YVy2wucNVLDZGnZXrJ7bEKb3nm9pjQH8RbcvNe4eKXnes1rSZq4iHnAYlXK0MuLP8p70qh45FKsn5tTVnBl9Xa1pzdayZpi7NEK90oZp85i2RkEhdh3TxunGMcI+t/ZrbvPcd4P08fhQmUdxX3eJcX7ux3Numq2nPmqpBVN7ymls/5vMEVowvKVV1Rk/Td02PKr4icb+ts5W6N+aafWsvrL+r8Xx5RozWfofc7mEfZZ4TgAAAAAAAACAUinXc+5bBF1AAwBKxytAj0dE66uPXtbjzkV6rm+EVh43yr9L1RolacXcGEXPMablScrYceDyWLmWI0re5NThr2NddeYsVMKxeO1Ok9L3bFGTHm5dKef/LE7uASV8NFuTJkZo3nrp8Ikce4UUfGdzK2g1eVcruM5U+HiOjl30SFyq9rsWVd//8jfHHCFtdN+hI8q2l6+mpH2WdE4AAAAAAAAAAFQUAmAAQNn4B6nryOl676UMrUw86Spr01PDhwx2TaNe1YLfd3O1ki0gQF1/adcxpogZn2hUG3tVWWTGa9LzscruNEJTpk1VeDe7vJzOuo/bmy/XqRP27LUocp8AAAAAAAAAAFxHBMAAgJKZ3T/PW679TntZTp04miM/H4d0Z1s9vmGLkh2+8vO3J7O8gACFdMlQQlL25Tp+vnJ4SYFtO+rE0njtzw9Ls3OMvUsOH1/XcmFpSVr5QB893tw4xvkcnci0y0vJdbzES8dzblinJb3bKsRuvXsi83Lb5eS4JXJ0C3WF2cb5BFqlVyppnwAAAAAAAAAA/FwIgAEAJfMKUPum3+n3A57U0OGjNPTpIZpxZrR+3cNX8u+m/4mqq3nDn9WEyMl6cWi4Yna5kuJ6Tdpq4X/HarsxHzJ8qgbsmqynRk7WpInGPn4f7+omutVgvdk3SS88YZQZ+35qTIy+PS75deqmAZ+9pjETIxWzw6xoa9NN4Zsm6znjWBOMursdrvF6S63VMM36VZImDDaP96yemVtXf5nUTeZwxpatC/WieY1Dn9RvvhumKQMDXOUtwjToRIz+yzifqavsls/5StonAAAAAAAAAAA/kyqZWbkX7XkAqPRq+9W051CUihgc35mZo7M+vvIr3MjXYK6T3bI3nzPbKYd7ZWeOss+ZrYTt5XznncrONTZ3r1tUmc2ZaezXv4iTKK0i9p2xNEK/18ua1de36OOa22Qb5Vc7bjHnCwAAAAAAAAAov4p4zu3paAEMACgTh9l981XyTXOde/hrKhD+msyuoguHvyYvx5XBaVFltnKFv6Zi9n3VdWZ5ccctbp8AAAAAAAAAAPwMCIABALA5mnVR12YEuAAAAAAAAACAyosAGAAAm989AzXoHl97CQAAAAAAAACAyocAGAAAAAAAAAAAAAA8BAEwAAAAAAAAAAAAAHgIAmAAAAAAAAAAAAAA8BAEwAAAAAAAAAAAAADgIQiAAQAAAAAAAAAAAMBDEAADAAAAAAAAAAAAgIcgAAYAAAAAAAAAAAAAD0EADAAAAAAAAAAAAAAeggAYAAAAAAAAAAAAADwEATAAAAAAAAAAAAAAeAgCYAAAAAAAAAAAAADwEATAAAAAAAAAAAAAAOAhCIABAAAAAAAAAAAAwEMQAAMAAAAAAAAAAACAhyAABgAAAAAAAAAAAAAPQQAMAAAAAAAAAAAAAB6CABgAAAAAAAAAAAAAPAQBMAAAAAAAAAAAAAB4iCqZWbkX7XkAqPRq+9W051CU3btT1Lp1K3vpGp05I336qZSYKKWlSU6n5HBIzZtLYWHSE09INXkfKqvc3DPaty9NR48eU05OjlXm6+urxo0b6Y47msvHh/cWAAAAAAAAwI1TIc+5PRwBMACPQgBcvHLfGL/5RnrrLenHH+2CItSpI/3619L999sFN54zO0fy8ZXDyy64HnJz5PQ2jnE+R9nnfOXnY5dXImlpB7V163bdeecduv32QNWq5WeVZ2Vl6/vv0/Xdd/t0zz3t1bx5M6v8ZuHMNN5fv+v7/jqznXL4OX6ezxIAAAAAAACAqyIALplXxCuTXrfnAaDSq+Fd3Z5DUU6cyFCDBvXspTIyw98pU6SffrILrsJcv26dFBwsNW1qF5bgfI72b1ytZcvWKWHTATnrN1Uzf4e90qn0Hdu0J+2IDqe7poxzfmp0ab3N3EfCci1YuV4b05xq0PR21fE2V5zUpxN/qc8Dn9P9ja2aRXIeStXm5JNS3Xqqlf8xOu9UdtYZOX9yFpyqOuRdIAA8oEX/tUqOX3RQlZWRemRNgF7s0tBedw3M454+L++CB3Fd4/adOpZXT/VrV2wCaYa/e/akqmvX+9WsWVPVqFFDVapUsSZzvmHDBlYr4G3bdqpatWry969tb1kK2Qe0cdUqLVm7odB7Y8g01m3bd+m9PZyeIzU03oPCl2fUS1j2sT6N36K03Hpqdru/vK2BLJI0q+tfdeLJngq5zap5JedJ7d+xW4d+8lYdv5ryKjQAhjPjgJJ2pCu3pr/q+BTxuqYt1rhPvfV4aJVSfZaKU+TnLJ/xvqcnG5/1H6QGdf2uOE8AAAAAAAAA5XzOfYvg0SIAoGRmt89my9+yMOub25UkN0nRw57Uc/O/k3dwR90X7NTK/x6iSXEn7Qo52jh3vKKXb9G3W8xpgxb+foi6R8Qp/bxdxdqHsc2qkwps01F35MZp0sAIrTxsry9Obqpiw59U3xkrjH2vUFT/x4xzSZXTXLdrsV4cM67A9GT/fm7nZkvbrBV3hiqkvJlsdpIWTY3UU70fU/dJq5VhF1sOx2nCE+M0b80WrZwTrl7u119OZrfPZsvfLl06FRvsmuvMOmZdc5vScG6N0dC+4Zq3y6E7Oua/N5O1Jv/i0lboxSmL9IX13hrT2hg912eUorda74DF2sfTk7XyRGN16Biks6smq99E4/rt9cVJj5umoQNes163L+b+Tt0GT9Oa4/ZKQ/rSCPWNXKJ1WxIV+7snNWbpEXvNZfs3xCm4U0t76RoV9zkzGZ/hGcPC9dZnxmvw2Ww9M3i2tufa6wAAAAAAAACgDOgCGoBHoQvo4l1z1xiLFknz59sLZTB8uDRokL1QlBytmfSkohvN0Adj2upSm97cHGV7+8rPClRPasmYJ7X///tS4+6x1krnDyj2+VHKmvi5wtsVvQ9nrlMOH3Op4PZXdheco/0pTgW3quta3LtQQwcf1a/Xj1XXQo2MzZagz013aMqMvgp0C3szlkZobqMoRXRxWPO90oZps3Eu1nWoiO6gzRa+2U55F+622C5PXxWpoV8/qtWz+sr1PTanNk7rp5Vdlimym3lSxvL0Z7Ww7Vy92dvXqlEeO3fuNv69qLvvbuMqKMHOnbuMf6sY9Vu7Cq4mM16T+seo/qy5xmt/+cU0u1F2GNdu2TpboX9r5natxvr4aQpb0lGrp/dUvSL34TTeX4fx/przSZrRKVbBK6ZqQL0iXtfDqdrv31LBVl2nEqIe01t3va8Fg4OkbGPfPbbo8fz3OjdRUb9I0oD4EWpvVrcYn5/xsQqcOladHSV9lmzW+2isKtBKvfjPWfK7zyjKZ6rrvAz7F4zSDP8/alYfuz4AAAAAAAAAC11Al4wWwACAkiUm2jOXnW/aVKdf/4NOffBP66e5fIUitivg+FdasipMI4e7hb8mn/zw9yq8/OTn75TTbAFr7aOvxr1UcB+u8Peys9/FKer5Z/XcyCEK6xGuRWn2CvleDuVMNY1j27MFndSS6XHqM75g+GuWr4sLUNeObsc7m6KVU8L11Mhw9ev2mJ776IC9QnLuWqgXnxiiSVP+pGd6P6zQTuY0W9vNlV4O47p81aBmwXOXjih5Q6jah+SXO9S5V08lrEos2Er4Gh09eswa87e0zLrmNiXJiF+hlQ8M00i38Nd0Kfy9CkctY/25s9a8tY8+oxVeYB/54W8+p7I3Ga/r4FF6ceiTChs8UwmZ9qom+eGvySFv90N7G6+3sa3OuS8XcvwbrWnYRR3c396rfpbsFsdPjNPvp4xTr272+ztmufE+Ff858zY+83Jr0e2oWfSnEAAAAAAAAABKQgAMAChZmlvCZftpxAs6d1eINW/+NJevUMR2BRw+qIROXdTe314upewNCxW7tac6NDcWrH3cqeDCmWkhKzed1Yh572vBR8u0YPhJTf8syV5jyz2p/VvjFB0ZI7+oQVe2/t21XDH1h2mAeUx3mZuV0KSL7nOvv2qLzg6P1scL3tdX84cpY1acK+BVqmIj4tT1L59o1rQofTx/oro2H62PN412a3FaFD/Vb7ZZ+926tHaedarBpgOl6ga5JDk5OapVq/SBo1nX3KYk6WmJ6tyl7VUC9atwHtCS+YsV3LGV1SLY2sddQQW/IHCFnVp5sKXeXGi8vys+0ZQ7F2vRerduus0WuYdSlfDRNM3YNEwRT7ha2coRpmGRGZo0JkYJaTlKX75E6RP6FHgvsrdsUJNuoQWOf9XPUna83oqQfv1RtN6cFq3l0wcruH+UvnJr3Xy1z1nwE79V508iFfVRkjIyk7QorqVGPkzrXwAAAAAAAABlRwAMACiZ8/J4rPnyw998hZctRWznzgwxzWSthr2sHQs1dPgo1zQlvkDr1tiR+a1lH1a/OU4Ne/dlPeJfxD6uYsCQyy13Q+7pJueutAL7T1/3lqZOj9US9dKjd12K62xObVweqwd7FgwCTdmbEuXd6e6C5f0Ha0B+g+i72uqR3FTtM8edzT6ifYfvVnD+uibNFZy2RcklNuOtq0eHD1TChPGasTROS2ZF6IWPDsgvt/jXt7QuXLioqlVL/38JzLrmNsVz6uxZydvL216Wts+331tjinIfR3n9NPWy39vQnuO0ps1UvTPcHHP3yn0ULVSDngy1W437qn2XUCV85zaWr/H6L5r1J731txQ1+UVHBbrtrkaTluraKEcrfz9ET0T7qc+DAfYaU442xjt0X7uC7/pVP0tHDmh7mzsVaLc4djRrpsC4VO13LVqu/jnzVXBH45q/i9WQ/uFK7tJTIQVaOQMAAAAAAABA6RAAAwBK5igce0rV9iTbcy6Fly1FbOfO4eMrR9pJ/WAvq91gLZg/VwvGhyr5WLZd6DJs3pfavOlzvTc8QPW79dGAFq59X7GP0qhm/3QT2PtVvT3/fa2OaqaVz0dqiRnYXpKqbz8NVYe7Cl+PU9s2OdW1UzFdGruHl36herT3ai1a7gonM9bGKaFbT91XOG8uguOe0fr4o7F6tFFdhTwdpfde6iI90Eyl77j56qpWraILFy7YSyUz65rbFM8hbz+H9mdcTrfbDzfeW+P9jeiUqhO5dqHpgYlavcl4f1dMVFeFasDToapnBaxX7qM0angVep/82mrENOPYK6I1PHOmnotOMjt+llJi9cL8xvp11FhNeXeZVk9yKHrgTCXkn5tzp749H6bOxTVhdv8stQjTgNwlWrIpRzqfo+S4dUofGib3r0YU/TnL0Zopkdrf+2VFRkzV6uVz9ejWcL2w8HLX4QAAAAAAAABQWgTAAICSNS/c77FUI+adS6Gv+dNcvkIR2xVwV0cNyFyhr3fZyyVyqP3w0Qp598+Xx10t8z5K0OR+PXJPorYnuXVxfDhN23ODFHhFw+DNSjjcRfeVugtrX931YJi0a5EmDB+lN3a01ZuTe17uHrgk/kFW69aQJg5l79mifXc2L/22xfD19VVWVsHAvThmXXObkoR07KsfFicq2W1s22I17KtfP5+q/56T6ApoDWXeR7GMz0+3MKXH77S6zs5ITlJgz/svteat122ERj6wWBtTXMvOTRt0+IHQ0ndh7RWkzj0DlB73Z734fKRizw3SO6MKjW+dr8Dn7IC2rQrTo53smn4tNWjkMKV/vbNCxngGAAAAAAAAcGshAAYAlCwszJ65zOvQId32+muq/cyvrJ/m8hWK2K4AR6iGTQjS3MiZSnBrcZv9YzHjy/p308hwafrceFmRZVH7MFtfLpym6K0ld5Hs3BSrGavcugs+/I3WbA1ScDO3gPP4QW0sorWtc8sGHe55fxlC2CQtmeqtQePG6s35c/XmmJ4KLm03v4dTlZyf0WZv1rzoDI3v39YuKJ/GjRvp++9LP5qwWdfcpiSOToMUcWesJk1PVEZ+gGu8Nycy7fkihAwerQErZivWDmGL3Ed2qhZNidF291bERTl/REumx2r7pWzbqe3xiXK0D1B9Y8nhV0/bvvxG6fn7zU1R8q4g1bcSX6e2fX1Ej4SVYRzejHjNW99R4RPNVr7TNWV4fkvmkj5nvqrfPFFfuH1e0/ckKds4kSLDYwAAAAAAAAAoBgEwAKBkTzwh1aljL5SSWd/crgSB/aP0wXBp3tCHFdZnlJ7q+bB6zZUix/a6arAa/PRvNWrPZEWvdwVmrn049dbTD6v706PUq8eTivqujfq0Kjk+c7TppuBNkepuHHvo8GfVfcgS1Y+cqmEt7AqG7BNFt8NM3pCiru3LEBCqrfqMTNGYXzx5eazj4ZGaEW93Cb00whoHt1dU4uVxcWclGWucSt+xRFEDze2McxwYI0X8QYNKaGBdWnfc0VzffbdPmZmn7JKrM+uYdc1tSuQVoAGT52rY+Vg92eUx9RpqnHuXJzXPa6LG9bzK6+YTpvDIlpr7xmLtN4PZ/H04Y9S3Sz89NfRJhfX9k5LblWKMXGPbh7pJ0QON7czXuk8//WZPH703oZvVqtevx1i9fc8Xeu4J13vx1NOTdWJ4lAab7/35VCXs6qIODa09lU69MA26c6Ge6v3s5fc3fLIW7XKW8DkL0rBZI5T9pyGu8zSu8bmlQXoz3HWeAAAAAAAAAFAWVTKzci/a8wBQ6dX2q2nPoSi7d6eodetW9lIZffONNGWKvVAKkyZJ999vL5SOMzNHZx2+8ittq9jCzjuVne2UfIx9lLXppDNH2bmSt5+vHHarzWKdT1XMuJ16ZNZABdtFJcqM16SIIxoZPViB2ca1GkXOtMX6r5E5Gr9ptNq7al2dfX2lPscySEs7qD17UtWlSyf5+9e2Swsyw98NGzbprrtaqnnzZnZpKVXEuZf1PXJT7GerqHPbFasxO7pp1uAgu6AUUmI19JOWentiqGR+Dg1ZG/6sp5Z31PJZfV1faCjhGpzm58KrHP8NAAAAAAAAAB6uXM+5bxG0AAYAlI4Z5pqhbkktgc311xD+mhz+5Qy+vBzyM/dxLf3mmuGgsW2pg8W9iVrX8e7Sh7+mtCStbBJkjTlrXasx1TMmNa9bupae9vVdc4BaDDPQNYPdL79cp507d1lh74ULF6zJnDfLzHXXFP6aKuLcy/oeuSn2s1XEuSVvSFSHjmUIfw3mmMJqFiC//M+hMTXw85O3e1fOJVyDw6+Y8wQAAAAAAACAUqAFMACPQgvg4lXIN6POnJE+/VRKTDSbjUpOp+RwmAmia8xfs9vnmrfA++DMkdOrjGHk+SNaGRmu6YdD1adLgByZqfr6uwCNjBqrR5rYdW6w3Nwz2rcvTUePHlNOjmssZl9fX2vMX7PbZx+fW+O/MWe2U46yfpMgN0kx4a/pwzrdNaCVr5yHN2tjTjdFTh5ccnfVAAAAAAAAAEqFFsAlIwAG4FEIgIvHjfEmkZvj6iG4PN1d46ZldeNsjl98LV2RAwAAAAAAACgWz7lLRhfQAAD83MxgsLguiVGpWd04m+8v4S8AAAAAAACAG4AAGAAAAAAAAAAAAAA8BAEwAAAAAAAAAAAAAHgIAmAAAAAAAAAAAAAA8BAEwAAAAAAAAAAAAADgIQiAAQAAAAAAAAAAAMBDEAADAAAAAAAAAAAAgIcgAAYAAAAAAAAAAAAAD0EADAAAAAAAAAAAAAAeggAYAAAAAAAAAAAAADwEATAAAAAAAAAAAAAAeAgCYAAAAAAAAAAAAADwEATAAAAAAAAAAAAAAOAhCIABAAAAAAAAAAAAwEMQAAMAAAAAAAAAAACAhyAABgAAAAAAAAAAAAAPQQAMAAAAAAAAAAAAAB6CABgAAAAAAAAAAAAAPAQBMAAAAAAAAAAAAAB4CAJgAAAAAAAAAAAAAPAQBMAAAAAAAAAAAAAA4CEIgAEAAAAAAAAAAADAQxAAAwAAAAAAAAAAAICHIAAGAAAAAAAAAAAAAA9BAAwAAAAAAAAAAAAAHoIAGAAAAAAAAAAAAAA8BAEwAAAAAAAAAAAAAHgIAmAAAAAAAAAAAAAA8BAEwAAAAAAAAAAAAADgIQiAAQAAAAAAAAAAAMBDEAADAAAAAAAAAAAAgIcgAAYAAAAAAAAAAAAAD0EADAAAAAAAAAAAAAAeggAYAAAAAAAAAAAAADwEATAAALjl7E87qA3f/lvrv/lWSUnJOn06114DALhVcW8AAAAAAHiKKplZuRfteQCo9Gr71bTnUJTdu1PUunUrewm49WzbtlPrvk5UZuYp+fj4qHq1ajqVlWWtu/fee9Tr0e6qZpQBAG4d3BsAAAAAoHLhOXfJCIABeBQC4OJxY8StbM3adVarrtDQDup87z1q0KC+Ve50OrVj5259Ff+1ateqpSGDn9Rtt/lY6wAAno17AwAAAABUPjznLhldQAMAAI9ntu4yH/D3ebyn+vyip+rVq6vk5FR9k7hR589f0L2hHfT8s0N11unUsuWr7K0AAJ6MewMAAAAAwFMRAAMAUBbOI0rekKiE+M3auPWAss/b5bipmV17mq27Qjt2sJb/+fFSLV32mdYlfKOZf3lbJ0/+qDp1/K0QIPW7fdqT8p1VDwDgubg3AAAAAAA8FQEwAOCaOTPNMHSzNm5I0v7jTrvUczl3xGpoz2c0NDxCY8aP14sjZysh017p7rxT2Zk51uQkIL7h9qcdtMZ1NLv2NGWeytKRw0c1auRw/Sb8BdWsUUMpKXutdc2DmikoqKl2J6dYywBwU8p13WOuOmV7/j25vLg3AAAAAAA8GQEwAKDMMjbEakyfxxRmhaHj9WJ4uJ4yl4dO05KUHLuWpzmiJdNjlJxrzDbvpnFTXlXEyD5qX8+1toCM1ZrUs5+6G1P0DrvsWh2KV/ScGEV/lKRsu6hSuInO+/jxH+Tj43NpXEf/2rX027EvqY5/bV28eFF5586pWvVq1jrT7YEBOnbsB3sJAG4+2+e57jFXnSatVoZdF0Xj3gAAAAAA8GQEwACAMnAq+d1w9Q2PUYLV4teheq1aKqRNS9XzMdamLFfU0EgtOeyq7VGyU7XNDnMHjX9Vw3r31KCXuinQVXT9HEtSzLxYxcSnGa9+JXITnff58+dVvdrlh/j5kvekatZf35Gv7226u21ru1SqZtQ9d+6cvQQA8ETcGwAAAAAAnowAGABQas71s/VcdJIV6AX3n6gFaz/X6gVztWD+XK1e+4neHhmqRyInakATV32Pcib7UktWbx+HPXf9ZRw+YM9VLjfTedeuVUunsrLkdBaMopsENNbjv3hUL456VjVqeNulssZ89PevbS8BwE3sgYlavelLbS48zeqrojqowGXcGwAAAAAAnswr4pVJr9vzAFDp1fCubs+hKCdOZKhBg2t8JHw+Ve/95k9KNFPQByYqdkpf3VHDtcpStaYCO/XWY3f52QUFZafEad7Mv+rP736kjxdv0kGf23V3cD15u30VKX1tjGJXbVFatVZq28Cp5NUxmhr1jt5b/Km+OeSjlu3uUJ0i3uLS7Puqjm/Wor/M1pR3FhjbfqnNx7wUeNcdqn/5ma/rvFZu0aak710h8LnzSt+zRTmNQhVc1LPg06la+Y/1OmjMduj/nO5v7CrO3rpY85as18bsAN0X7KeMDQs15Y2Ziln4qT7fckaN29+tQB9XXWUnadG7n+qLf29R0oEc4/W/oLOnDmjbJvv1aWyH0OdzjNcpVjNmzLb28/H6dPk0b62W9dxD6iNaM2eRVmw6oBp3tVajnM2KnTpNfzRer2+8O+uxlvZ7Vqp9Gc6f1MZP3tGMqTHWe2PW82rYQiGNa5b+vH9Gt93mo8QNm1SrVi3rwX6+HzNPWeM/BjYJsEukn346q+UrPtc9Hdqp6e3XvX03AFyTYxve05JtxkzTBzX88VbKv3UU4Dygle9+rM+/3aKNmfV03x3+9gq3+9HWk2pwt3Fv9bJXFPr9/vmWH1QtsNUV94Ey3c/yFbjfmvd1LzUObqVGt9nrf2bcGwAAAACg8irXc+5bRJXMrNyL9jwAVHq1/WracyjK7t0pat26lb1URimxemJojNLl0KDoZYroUtogz6ntc8L1wrzUK7oCdnSbqI+n9VWg/eB5+6yH9dx8KXDoaA3YFaPorQW3cHR7Vcun93Rr1VT6fRclfUWkhkbGXzlGrU9LjZgVrfB7XNeYf16FDZv3pcbdYy+4O75cY/pMU4Ix614nY2mEekUlSj1HKMInTlOXFmol23yY3lswQu3Nw7rto7CukZ9oVv+6Um6SokeOU0zKFVdv1HnfqJP/8DpJMzqFK1ahipzTRwkRk7Um07Vm2Bzj/DoZM6Xdl9OoNzRcMWmuRXf1no/W8l+laUJJ530DrFz1hfH536Pnnx2qOnVcIcimf2/V7uQUDfuPQdayyXzAvyflO4X/eqS8HT9/WA0ApXHpvmS2AC6mtW/Gigj1jUw07pFhilwxVQMaGoXnUxUzeJSijd/j7Se+r/cGB7kqH47ThOGX7w+XORQycobee6mtMedSpvuZwbkjRs88H6v9rkU3dTVi3oeX7rc/N+4NAAAAAFA5les59y2CLqABAKWSkZykdGuur7p2LP3Dz+y4P7kCWp+2GhH9gRI3fKnEpVM1qLnkjJ+mGXE5ds3L0hfMVnTa3QqfMlefLo5WRH/Xw2ln/EJ94RY8Xsu+L0mJ1Rg7/A0e/Ko+XrFMXxnHCu9mXFtuqmLGRGrlcVfV4L7T9faUwQpxLeqR8cZy9HQNMI5zTeJiNDXOoQER0/Xx4vc1a6T9UD0tVis22QGsf6hGGscY19O1qDaDNcVYNo87spOvUZCjNVNcga3jnmF6e+nn2rzhc306faCC5VRC1GytvOIh/mZNHf8nrVGo8dra13CnWV76fWXHL3aFv00Ga1acq6vRxMXTNaL3MP3f88Z1lHjeN0avR7tb3X1+sPATpR0w22ZLne6959ID/vzWXVu27tAvej/KA34AlUPmQX27YbM2uk87jlz6UlS93mMV8YA5l6ipM133vOy1CzXX/D3efIQinrbDXzMUHmOHv80HaspHn+iruA/0XniYcX9yKnneOE1YcdJV111p7mfGPSbhQ1f4Gzh0qr4y7tXWPSZ6mB4f+QeNukHhr4l7AwAAAADAUxEAAwBKJf3wZnvOoVruzz8PxSt6TkyBadHW/OA1VYtmxVkPoh+Z9EeFdwmQw8vYQ5MwjZ840HpIvCZ+85UtcJsM1ttWqNhSgU3batBLg9TVWpGqbd+Vc9+WHK15P8bVEqndWL05vqeCG/rKzzjWiMlRGmR2W5mbqLeWp5o15NciVJ07NlN9a0kKbGMsdwlV8OXeNMsoTBH/mKvIp419NA1S11G/1mC7q8yv99itqBwBam8co0P+eMr+zXSfsWwet30T4+pSFmvGKvPqu+l/3hyhzmaZl0OB3UYrYrB59fFK2HRlAO40WwHPN19bt2sow76cufY+/esq0O452tHUDJRHqL15DSWd9w1SrVo1DRn8pOrVraO//+Ofiv3HIq35cp3WJXyjfy1doZl/mWO17npyYD+1aX2XvRUA3OR2LdSk8PF60X2a63bv8wrQgPFj1d6Yda6arUU7DmjlP8x7p0ODxg9WiN1LhhkKmy2CpbaKeHOsHm9eV37+xu/z56P05tPm726nEuYsV7JZpYBS3M+MbbPsE/JrHCA/85jmPabLCE1xa1V8I3BvAAAAAAB4KgJgAECpOLyv0sFkRpJi5sUWmBIO2q1+jqdo22FzJlT3BUvZmTmXprN1mqmDuWpd6pVdQjZvpjvchxJu2FzG5pbs3HLu23JA21a55kJ+Eapg926ifcL06ADXbPqGFLvVc0ULUkhTe9bkFaBgu5vo9Gz7+kpwqUV2p47Ga3P52rMznfJrdrdV54vvCnXJaQh5abQG5IeztrLsq15IW9d7sWu2nhs5WbHxB5R93lp10zPHexw8aKB+9fQv5efnq9TUfdq+Y5dyTueq20MPWF178oAfQKXiU1chbVoWnBoVGou/+UBFhJstfY8oOnyUpu8w7um9X1X4A5ej1/274lwzbXqqc4HeLRzq2nOga/bwFiVb9113pbmfGefY0dXSOHl6uJ6LXKiEtCu/oHSjcG8AAAAAAHgiAmAAQKk0qGd3E6kMnXBvVtu8j9W9rzld6vY33+GD9liwmzV1aD917+k2DZ2pjeaq/EC3rMqz7+Npl4Lh+jULPSg31A9s6ZrZdNC42ptTelqia2bTTA11v3ZjGjrN1VrbWcTl1/e98nrLtK9Ww/TOrMEK8ZGyd8Rpxvhn1b3HKEUtPWC1xq4M7mp1pwb076MXRz2r8NEj9B/PPK37wzrTtSeAyueeEfrL/Lla4D5N6nbFmMAh/YfpEXPGuC+aPUGMf6mbLt8NTmrfd/asv0O17NlL6je2h0DYrP320AhlFTJ8hmYNbSmHcrR9xWyNebqfwoZO05K9N8+dg3sDAAAAAMCTEAADAErFbPkZaM3F69tdbg9s/YOs7n3N6VK3v/n88x8at9Qwe8zZK6Z5Ay6NrVsm5dm3fz0VPlV32cdcXT+rie8N7ZqyOH6N7JDabYzdwtN7A+06JSjrvuo9MFoL1i7Tx9NH6/FWxiuUm6olUc/qmXft1w0AcFNJXhqrNfa8GeQmbDpiz5t8Vb+4m2LmUbvr5wDVsrt3LjOvuuo6fq4S497XrDE9rS8ROVOWK2rwKMWk2HUAAAAAAECFIQAGAJROizC762CnFs1Zrv2l6fa3SYA17qA5Xm92zbsvBcUFpnsCri1kLc++HQG6o41rNmFXSqGWq0eUvMWefaCl7rBnbzaBTV1dM2tXjvzaFXHtxtS+aele2Wval5evgrsN1pQFy7TgpbZW0f5347XdmgMA3DTSFmtq9AHJZ6CmTB9sfZkrYcZMLbnUnbNDgcH2l3zWf6fdhRrlpn+3054L010Fuoe+Bv5B6jr8VS34bK7C25kFBzR3TZK1CgAAAAAAVBwCYABA6Xi11KAxPV2B6o6ZeubFGG087PaU2HlAyfldSOZzhOrRwa7gcMms2Uoo1HVk9vGT195tcLn2HaRHnw5zzX40W9FbL9dMXzrTGh/RfCA+qEfotYXTFSm/68m0g0p3uyBHp4c0yGqJtVwzohOV4R7In89RRkbpX9ky7etwvGKXprqN++tQYFO7s1F/x+XX6yrnDQCoQE6nfrg0bnvBMdwt549oyfSZ1pdz2o8ZpMe7DdO43sbv59xETX0z7tIwB8E9BqirNbdYM+YkXb5/Hl6uP85yBbSOwQ/pvmu8KabHLdSSFLdxf30C1KSRa7aB9zXuFAAAAAAAXBUBMACg1Px6vqz3wttaIZ9za6xe7P+YQjs97JoeeFZT15u1HHJ4mz9NDnUOn6FhZouhtMUa06efnpo4U9HTJ+vFp/upe5/XtCTNVbPsyrfven3HKrKbeSUHFDuyn3oNHaWhxnZPRCVaD76Dh8/Q+C43/qF0SMe+rlD18EK9MMA4x+GjNGnVSePyQzV+1mAFG6v2L4xQr97PasLUGM2IHK+nehvXM6GUrbRNpd3X+VTFjInUjKhR6vVEuCZNj1H01Ag9OSXe2k3wwLBLXW5f9bwBABWniLHbXVOMFfpmr41x3Zt9Biq8f4Ax46tHwsdaYa8z/k+aHmeHsg376neRYdbv7f3zw9Wtj/l7+1l17z9NCblGYfPBeif8Gr8UlRKrMRGzFTX0SfUaOVkz5hjnNH64fh9nrgzSgAdLN1wBAAAAAAAoPQJgAEAZOBTyfLRWL5ioQe187bLL/NoNVMS7H+rN3nXtEoNPW417d64in24rP+Vo/9rFilkQp41pUvuneyrEz653Lcqzb68ADZj2od5+KdTY1qmMlFQlp+UY+2ypAZFzLwXdN5qjy2i9M7KldS7O48Y57krVyu1pVkjtuGe03st/LzIPaM1HsYpdsVn71VaD+rZSLWsPpVOqfXm11LAZUxXezXh/jydp5YJYxXyUqIxcX3V+abreGX75IX5x5w0A+BnkJio6Ks76vdt1wjB1zr+pNemrcRPNrvudWhn1Z63JdBUH9p+q5dEj1Nk///f2AWWb9/2BE7Xg3dFqf63j/7YarFnTR6hrQylja5xi58VqUfxJOf1DFT5nhka0susBAAAAAIAKUyUzK/eiPQ8AlV5tv5r2HIqye3eKWreuwCetzhxlmy2DTA5f+ZX0cNitvrefrxxervkKUZ59n3cqO9sVTVb4eVWUXOP6rFN0yM//ymjamZ2js1aL36LXl0Wp9lXa17uE8wYA3HycmcZ9wJzxMe7tFfiruyLvVQAAAACAW1eFP+f2QATAADwKAXDxuDECAAAAAAAAACoznnOXjC6gAQAAAAAAAAAAAMBDEAADAAAAAAAAAAAAgIcgAAYAAAAAAAAAAAAAD0EADAAAAAAAAAAAAAAeggAYAAAAAAAAAAAAADwEATAAAAAAAAAAAAAAeAgCYAAAAAAAAAAAAADwEATAAAAAAAAAAAAAAOAhCIABAAAAAAAAAAAAwEMQAAMAAAAAAAAAAACAhyAABgAAAAAAAAAAAAAPQQAMAAAAAAAAAAAAAB6CABgAAAAAAAAAAAAAPAQBMAAAAAAAAAAAAAB4CAJgAAAAAAAAAAAAAPAQBMAAAAAAAAAAAAAA4CEIgAEAAAAAAAAAAADAQxAAAwAAAAAAAAAAAICHqJKZlXvRngeASq+2X017DkXZvTtFrVu3speuzUXjruHMO2dNFy5wCwEA4GqqVq0iR/Vq1lSlil1YQbgfAwBQOtfzfgwAAG6MinjO7eloAQwAKLW8c+eVffqMzp7N42EzAAAlMO+V5j3TvHea99CKwv0YAIDSu173YwAAgJsZATAAoFTMP5RzzzitFkc8agYAoHTMe6Z57zTvoRXx0Jn7MQAAZVfR92MAAICbHQEwAKBE5h/KZ35y2ksAAOBamPdS8556rbgfAwBQfuW9HwMAAFQGBMAAgBKZ4wvSzAgAgHIy7qXWPfUacT8GAKAClPN+DAAAUBkQAAMASmT+cczzZgAAyse8l5Y3AOZ+DABA+ZT3fgwAAFAZEAADAEp04QKPmwEAqAjluadyPwYAoGJwTwUAAJ6OABgAAAAAAAAAAAAAPAQBMAAAAAAAAAAAAAB4CAJgAAAAAAAAAAAAAPAQBMAAAAAAAAAAAAAA4CEIgAEAAABUahcvXtS+fQe1/pvN+tencfp8dYK2bN2lkycz7RoAAAAAAAC3jiqZWbkX7XkAqPRq+9W051CU3btT1Lp1K3up9E5ln7HnAAC4uZw6la3lK9fq+PEMu6Sg+zq31/1hoapSpYpdcuNd6/9f+dnuxxfylHehuqpXs5cBAPBAPD8AAKDyutbn3LcSAmAAHoU/4Ip33QPgU4e0JfWkvVBIvTvVMfg25ezfplS3Z/SOhneqbbPb7CXDmdPKcdrzluryre2w5w1njio16ZgU0FotA93KAQC3nCNHf9Aniz9TXt45u6RoQUGBGtC/100TAv9sAfDFs/rx+8M6npun6j711LBxPflWt9cV4+yhTVqdfaf6tfG3S66TC2eU85O3fH2q6kJujn6q4StjFgCAnwXPDwAAqLwIgEvGn9cAgIqTc1Cbd2y1pvjFf9b4//tY8fby5u+zrSoHPo/QtMVf2/U2avEfn1XvMR8r1Q59k+Y/radG/U7jf5c/faoka41TqR9G6Kln39IKY9sVfx5aYDsAwK3l7Fmnli1fU2L4azpwIF0bvt1mL90iLmRqz5dfaucPkm/dOqqe+722rNmmo2ft9dddpnZ9mqwf7aUiZR5QauZ5a/ZUmlE3z5oFAAAAAADlRAAMAKg4gQ9qxPPPWtOwrk2loAc1zF4e8VBju5LUrOszdr2RejX6fb1cb54Wrj9tr5UGvPJXvTMnf3pKba1ShwK6jNLcD6I01th27NQZGuGcpxVbSIAB4Fa0ddsunT6day9Jjz7ygBo2qGcvSQ/cH2q1/M23cdN25eWVLmF8991YPfnkUB04cMguuezvf/9QvXo9oePHf7BLbk4XTqQrtUZb3RsarMAGDdT0rg568NF2auxtV7BdMF6TvAv2QgmKrXvOWFdyFl/A2dwcedcwmyTn6exPvvIpdG66eEF5zlKeXD5rmzxdKK6fK7OL66IupDTbAgB+Nil7UrX68y+Uk5Njl1yWmrpXy5d/pjNnfrJLAAAA4I4AGABwg92mxo2lnDNmkPujjh40flxlzEHf4Baq62UveFWXr489DwC45aQdSLfnXGrW8NaTA3urbp3aCuvSUZ07tdfFi5eTvPPnz+vw4eP2Usl+/PFH/fa3L+v77y8f5x//WKiYmPcL7PdmVbWal6rm5ijXLZStWs3tz7+zP2hXwhp98c23SlyzWuv2ZOqqUWtxdfMytS9xtVZ8aaxbt1qrNh/V2Z++17effqN92q+vP12pZVe0BD6ro9u/1rfJPyp959dat+5b7Th2SNvW7bfrXVBO2jat/iJBiRsStGrVZqWbWf/FMzr07WptOWwH+RezlLo2XqlZ5oK9zedfGtt8Y/z8VvvcmxSfTNaynUf1495v9eVXxhS3Sl/u+EH5NS6cTNE6a9tvFf/F19p57GdrKg0AKIbZ48c36zfo9OnLXxj+7ru92pOcYtwH7AIAAABcgQAYAHBjndmm+C8dCrq9jrV49nwLZaz7k8a/9P80/o2PtaVwA6vzTp08uFtfvPsnxdR+WYM6MQ4wANyKTp1yDS2Qb/nKL5WW9r0G/aqvOt17t5YsXa2DBw/ba11OZFxlnPpCnn32P/TQQw8oMzNTY8dOVHr6YX300RLNm/eeqlevrqlTo9SwYQO79k2qTpBC6x1X4hffaMveDOUWSHfP6tDWJOmuh9Sr24N66NFuuuP0du3NtFcXUFxdY93mb3SicVf16Wms69FLj9zdUN41btd9vdqpoYL14BOPq98TIXLd5fN5q2Hr+3RX48Zqd999CuvSSgENW+u+LkFWPTOM/faYvx40jvXQQ93Uu0ttpe4+rLwqNdX07tbK25ai4+eMo3+fovQm7dWilrHND7sVv99bHR95xLVN10Y6kbBNh9wbhh3aq+O1O+rhHg+q16Md5Jt2QMetnPesjny3V/XuNbd9UA8/apxbvcLNkQEAP7eWre5U44BGVgi8/mszBM7V/n1pSt6doqpVqxr3jU6qWbOGXRsAAADuCIABAD+7Le++phde+n/W9NRTf1DqL6drRDtzzW1q+4sn1PeXv9X06Oma2P2YZj77J607ZW3mcvRrvfWXaMWulHp2vVP18lsEAwBuKVWqVLHnXMxWuefOnVeNGt7WfFFdQp4/X7ruhM2Hyq+/PkmPPfaoTp78UaNHj1V09NtyOBz64x//oE6dQl0Vb2ZVaqrxPWZ4GiTvjG36cvlqJe7NcrXczTmqNGewmjUwu182VPFW/QY+ysg641p2V1xdc93xZmrerKZrnaG6o3R/YlatfkFnc72tLqCrXzir3Jq+8rG2vaAT6fvVMLipfPLfYv96ang4S6fMll4+t6tNSJZ2JSdr166aatPC3/ij1tjm6EHVbRGk+vZp6ramat78B6Ufd7umukFqnl/BUUeN6v+gU1aDsury9qmq40cPK8fskKSKcU5X6Y0EAPDzMe/1997bUbc3DdTZs2eVsO5rJSXtVlUvV/jboEF9uyYAAAAKIwAGAPzs2g4Zp+l//KM1ffDpR5o+pIVc7XgdCnq4tzoGGkteDgU88IwGtV+rr7Zc7u5LgT306rS/6r0PXlbQmv+nyJUFO5UEANwa6vjXsudczDF/27ZtqRWffan0w8f01MBfyL9Qnbp1/e25kpkhcETEf1khcHZ2jmrWrKnp099Qx44d7BqVQ3X/Jmpz3yP6RY+28jn4jXYezZOcZ3QqZ6+2rDO7X3ZN36adNRNyeys3xdU11zWsrdpl/avy7FFtX7dJyT9+r53mPr9N0Y+Hk7Ru+1GdNccDzpXSk765dLx165KU4X9eF+zurH2bBMl3/36dahmkhlZQ69qmlu/lINr8U9fXz18ncq7WlbNx0pfOu6rqt31Yd9f8QdvWrtK6zft1gh6gAeCmYIbA99zT3gqB8/LOqVo1L91//32qX//yuP8AAAC4EgEwAOBn56hZV761b7MmR7EteB3y85VynGZznEK8Giusawdt2LHLLgAA3EqaNWtiz7nUrl1Lq1avU0rKfi1bvkZpB75XwwaXHw6bgW7T2wPspdIxHzqbIfDYsb/W9OlT1bZtG3tN5VPVt4maNrqggydPmzdi1XYEqX3XB60uj/OnsGDjpltYcXWrVZfP8Rxll3UMRu/Gav9gKwXc3sG1vzbGud1j/GzfWN5Wa1ypXqv7ChzvoYfaqqHVePeCjqckqUaHdqqduldHrf+L4NomK8e9BfMF5WRnqr5vKbtyNls2t+igBx97RO39M5S47bDIgAHg5mGGwHe3a6Ow+7uoTp2CAwsAAADgSgTAAICbhnPHx/r7ercWvelrtPyLzurW0fgD/8w2/f2ttTqS3zjp/FElJmxTULNmdgEA4FbSoX1r+biN+7fysy+VnLzXmje7gl752VdKSd1vLZs6d2ovb++yjxtvhsADBjyhkJBWdkllcEE/7vlW2w9lKS8/nM3L1ImTVdWs7m2Sb0M19f5Oew65BaZ5ecZWRSiubq0muqPOfu07cHnd2ZwzrnUOb/koSzm5VvGVnGeV5+3qjvnsmbOqfumtqar6jZvpeMpenciziwx5ea6zu3AiRbvOtFXLZrerTZs8bd55VHn2Nif3Hri8zelDSktroMCG7q2Cr+aCcjLta6hSXbXr1jHOHQBws2nePEj+/rXtJQAAABSHABgAcNNwBLeRY3m4nhj0//TCqKHqHb5WQVPHqU8DY2XN1nooeJv+56mh1tjBzz31opbUfVlv/Kqpa2MAwC3FDHP79X1E1bxKHgy+edDtCutyj710K6iqOs1bqOaRTVq9bLW+jF+jFZ9tVEbA/bq7sRm61lTzzp1U53CCVq01u1iO1+pvUnTCHjbZu3Yd+R7YrFTrO1nF1XWt8/0+QSvijHVr1yh+11Flm1lt1XoKbPWTthn1161N1vHC6XJujvK8Xa1zc3PzVMMtm6/aoLW63Zmn3WvWuLqAjlujf3+fowvnMpW840c1b9NE5pbet4eoTe427TF2bm0TfFZbrG3itSrhmOp37aCml78jcHV5Ofrx0FatNq/BON7qTRlq3spsjQwAAAAAQOVUJTMrt6wddgHATau2X2laedy6du9OUevWZW/BdCrbvUvFn4HztHLOVJdv7SJaap13KicnT6p5m3zL3pALAOBhTmT8qBUrv9TJk5l2yWVm693Ondrp/rBQa/5mca3/f+Wa7scXLygv77y8qldX1aJegnN5yrvoperVC3032CyvWl0Fiq9W13AhL0/nqxj1rTF5L7PKvQrtp7RKOveiXMs2+cqzLQCg0uH5AQAAlde1Pue+lRAAA/Ao/AFXvEoTAAMAUAYXLlzQvv2HdPz4Cf1w4kera+gGDeoqqFmg6tS5+bqK/FkDYAAAUCSeHwAAUHkRAJeMABiAR+EPuOIRAAMAcOMRAAMAcOPx/AAAgMqLALhkjAEMAAAAAAAAAAAAAB6CABgAAAAAAAAAAAAAPAQBMAAAAAAAAAAAAAB4CAJgAAAAAAAAAAAAAPAQBMAAgBJVrVrFngMAAOVRnnsq92MAACoG91QAAODpCIABACVyVK8m/jwGAKB8zHupeU+9VtyPAQAov/LejwEAACoDAmAAQImsP4554gwAQPkY99LyBsDcjwEAKKdy3o8BAAAqAwJgAECJqhh/INes4bCXAADAtTDvpeY99VpxPwYAoPzKez8GAACoDAiAAQClUr2al3xquv5Q5m9lAABKx7xnmvdO8x5q3kvLi/sxAABlV9H3YwAAgJsdATAAoNTMP5T9bqspb+/qqlqVx84AABTHvFea90zz3lmRD5u5HwMAUHrX634MAABwM6uSmZV70Z4HgEqvtl9New5F2b07Ra1bt7KXAAAAAAAAAACoXHjOXTJaAAMAAAAAAAAAAACAhyAABgAAAAAAAAAAAAAPQQAMAAAAAAAAAAAAAB6CABgAAAAAAAAAAAAAPAQBMAAAAAAAAAAAAAB4CAJgAAAAAAAAAAAAAPAQBMAAAAAAAAAAAAAA4CEIgAEAAAAAAAAAAADAQxAAAwAAAAAAAAAAAICHIAAGAAAAAAAAAAAAAA9BAAwAAAAAAAAAAAAAHoIAGAAAAAAAAAAAAAA8BAEwAAAAAAAAAAAAAHgIAmAAAAAAAAAAAAAA8BAEwAAAAAAAAAAAAADgIQiAAQAAAAAAAAAAAMBDEAADAAAAAAAAAAAAgIcgAAYAAAAAAAAAAAAAD0EADAAAAAAAAAAAAAAeggAYAAAAAAAAAAAAADwEATAAAAAAAAAAAAAAeAgCYAAAAAAAAAAAAADwEATAAAAAAAAAAAAAAOAhCIABAAAAAAAAAAAAwENUyczKvWjPA0ClV9uvpj2HouzenaLWrVvZSwAAoNL58kvp73+Xjh61C4rRuLH0n/8pPfywXQAAAAAAQOXHc+6S0QIYAAAAACoDM/yNji5d+Gsy65n1ze0qiDMzR87z+Qs5ys615wEAAAAAwE2DABgAAAAAKgOz5e+ZM/ZCKZn1ze3KJEf7N2zW9sNOezlfkqJ7TtaKDNdSxmeT1X1ekmsBAAAAAADcNAiAAQAAAKAyKG3LX8NFHx97zlCG7SwpizVmyjRNik5Utl0EAAAAAAAqDwJgAAAAAPAg51vdpey/zlHevZ3skrJJ/nqF2oeP1iPr4rWxnAlwgS6jS8mZXXLX0lfdby7dUgMAAAAAQAAMAAAAAB7iXOs2ynn1f3SxZk3ljh2vi7fdZq8prVR9vbilunbppkefjtcXG3Ls8rJx7l2sSX2e1DNjxumZ3v00YcURV/nW2Xrq6Vgl2+FtdtxkdZ8U72ppnJGoGc/3U6/nx+nFp/tp6JQ4pV8KeU9qyZjxWrQ+TlHPP6vnRg5RWI9wLUqzV58/opUR/dR9uLHtyCfVK3yx9hfuwRoAAAAAgFsEATAAAAAAVCLn2rSVvLzspcvM8Pf0K69K1asbC+d027SpqnL6tL22lFIStaR5F93nL4V06asv1m4uezfQziRFj9ugDm9/oo/nz9XHq2ao9d9ma2Wm5LhnhCIeWKGpHx2w6s2bk6OIsd3kpyNaNCFS+/vP1VcfzdWCTz/UuJoxeik6SZdz3M2KXnpWI+a9rwUfLdOC4Sc1/TN7DOJdK/T7zNFGubHtgk/0yZReCna4VgEAAAAAcKshAAYAAACASuJs3346/er/6PTv/rtACGyGwrkRk6zwt4rTqdumRKnaju322tIzu38O7nm/6hnzjo5dNGBV2buBdm6KU+wDAzSgqV3g1VKdu8Ur+TtzwaHOL41VyNzZmjHzLW371Wg93tAoTkvUkh0DNax/gFnJ2MZXnZ8cJL/58drm1tXzgCF9FWhfdsg93eTclaYMc8G/rkJ2rdNnW49YXUP7+ftadQAAAAAAuBURAAMAAABAJXHRv45UpYrOtWvvCoGrV7fC39MRk3TR4VCVs2d12+Tfq1rybnuLsjC7fz6ibfN/p6HDR2noyBh94RNX5m6gs08ckeJm6zlzH/Y0dVNLnc219+MTpj5Ppyh2YXONfCLIVZZ5VMkPNNMd7g2bmwapvQ4o3Up4i1DN/mlqOlB/mddTWfPD1a33eM1YdcCt5TAAAAAAALcWAmAAAAAAqCRq/CNWNRZ9YM2bIbA53m+uHQRXyc3Vbb+PlFdqirW+zMzun/1H6y/zZujtWa7pvQndtDIusUzdQPvVD5A6DdPb8+dqgdsU0c1ulZu2WNM3DFbkSzs1Y2Gqq8y/sULWH9Q+t9a+OnRA2xWkQLM5cin4tXSNZOUAAEIYSURBVOqpcdM/UeKCATobPUpzd9grAAAAAAC4xRAAAwAAAEAl4r34EysINp1vdZer5W9OtnwjJ8lr/z6r/FqY3T/79Q1Te39fqwtlcwrs0VOPx8UrIdOuVAqOTg9p0PpYzdvk1nI4O8fVIvf8ES2ZvkSdxw/UgOEvq+viyYox8+rmYRrQbrFilx4xaxn1crTxk0XKHt5NHa4c7vhKh1OVnJ9SNwxVhzb2PAAAAAAAtyACYAAAAACoZLyXLb0UAlfJOiXf1yapavr31vI1OW92/yw92tHukjmfX6i69oy3u4EOUofemzVjZrw17m69kLYK/ug1xRRuaesI1fh3Byl7+hD1GjpKQ4c+qV4Rq7XPKaUvn6kZTUZrVDuHUa+twiNCNfeNxdp/PkCD3oxS8NJR6v60sc0TQzTjzAjNCW8ro2YJnMo4lKi3Bj+pp8wup58erli/VzWAEBgAAAAAcIuqkpmVe9GeB4BKr7ZfTXsORdm9O0WtW7eylwAAQKUycqR09Ki94HK2Tz9V37xJVQuVF9C4sTRvnr1QTuedys6W/PztWDY3R9nVfOV3lZTWmZ2js17Geh+7oBSuZZt85dkWAAAAAFA58Jy7ZLQABgAAAIDK4D//U6pZ8Mtu3iuWFR/+mvXN7SqKl+Ny+GvyuXr4a3L4lT2MvZZt8pVnWwAAAAAAPAUBMAAAAABUBg8/LIWHu1r0loZZz6xvbgcAAAAAAG4ZdAENwKPQBXTx6BoDAAAAAAAAAFCZ8Zy7ZLQABgAAAAAAAAAAAAAPQQAMAAAAAAAAAAAAAB6CABgAAAAAAAAAAAAAPAQBMAAAAAAAAAAAAAB4CAJgAAAAAAAAAAAAAPAQBMAAAAAAAAAAAAAA4CEIgAEAAAAAAAAAAADAQxAAAwAAAAAAAAAAAICHIAAGAAAAAAAAAAAAAA9BAAwAAAAAAAAAAAAAHoIAGAAAAAAAAAAAAAA8BAEwAAAAAAAAAAAAAHgIAmAAAAAAAAAAAAAA8BAEwAAAAAAAAAAAAADgIQiAAQAAAAAAAAAAAMBDEAADAAAAAAAAAAAAgIcgAAYAAAAAAAAAAAAAD0EADAAAAAAAAAAAAAAeggAYAAAAAAAAAAAAADwEATAAAAAAAAAAAAAAeAgCYAAAAAAAAAAAAADwEATAAAAAAAAAAAAAAOAhCIABAAAAAAAAAAAAwEMQAAMAAAAAAAAAAACAhyAABgAAAAAAAAAAAAAPQQAMAAAAAAAAAAAAAB6CABgAAAAAAAAAAAAAPAQBMAAAAAAAAAAAAAB4CAJgAAAAAAAAAAAAAPAQBMAAAAAAAAAAAAAA4CEIgAEAAAAAAAAAAADAQxAAAwAAAAAAAAAAAICHIAAGAAAAAAAAAAAAAA9BAAwAAAAAAAAAAAAAHoIAGAAAAAAAAAAAAAA8BAEwAABAMfanHdSGb/+t9d98q6SkZJ0+nWuvAQAAAAAAAICbT5XMrNyL9jwAVHq1/WracyjK7t0pat26lb0EoDjbtu3Uuq8TlZl5Sj4+PqperZpOZWVZ6+699x71erS7qhllAAAAAAAAAH4+POcuGQEwAI9CAFw8boxA6axZu85q8Rsa2kGd771HDRrUt8qdTqd27Nytr+K/Vu1atTRk8JO67TYfax0AAAAAAMD/3969wHlV1/njfyMyXJxRFFPRTMwgCEMhVFJERdTEy6KZlIW2oX811kuutm7299/PzXLL1c2W1bbYUsoNMyUV3QpviKbizwuGEOQFCUiKi8yIOIj8P+f7PQPDODdAcubwfD4ex+/nfM7t+z2f72HG85rP5wBbn/vcLTMENABAPVnP3yz8HXn8iBj5qRHRo8cuMWfOvPjd4zNi7dp34hODDoi/P+uMeKu2Nu6Z8ut8KwAAAACAtkEADEBxLZ0XM554Ol6uzue3JWtr4uVnn47p0x5P52BeLKzN6mqjekVNVGflemqzukbqN0fts5PimluejqVr84rWWDorJt9wY9y3KJ9/n2XDPmc9fwcNPKA0/4tf3hV33fO/8cj038X3vv+DWLZseey8c/dSQDzvjy/FH+b+sbQeAAAAAEBbIAAGoNVqq/OgsN5U29qgr7bedk0FjXUBZTatyusaU29fzR1/zl1XxrnjHomFnfOKBmqrF8ecJ54uB6SNvan676fe1NrPvD5YXdFMsrqqdftdv6/WpLRLpsalx50Ynz77krjwksvTORgXk/9QGzOuOzGOGJGmMybGnPXHmhXjs7o0XfG/y/K6zbR2fkz+3o1x248eidlv5XWtUT03Jt8yKf7PLY/He5BBb5GXX3m19MzfbNjnzIrXV8biRX+Oc84+My4Y9/9E1y5dYu7cF0vLeu3zodhnn71j9py5pXkAAAAAgLZAAAxAKy2Le6/IA8R605BDjoxBw06NL145KWYsyVdtxJxbzlm/zTHfe7rxoG/pb+OKun2PuzMW5tUbq4n7rtxw/PHP59XvkoW7iyMO/Uj0q8irctVzp8RVZxwbQ476XJwx7pI4d9w5cdJRx6ZjTowZS/OVMs9PWH+c+lP2mYeMHBdXNNfTdcXU+Nr6bb4Sty3I6xuY+aO6dU6N655qIv58YWJ8um5fV/w26r/Fd6uNGTd/Jx5YkYrd+seYK78eV559fhz+0SzMzvf/yvxY1FzAvplqn5oc16X2GHDh6TF0Ux6L2+uEGDe6ImpvnxiTmzhPfytLlvwlunXrtv6Zv9132jEuvui82Ln7TrFu3bpY8/bbsX2n7UvLMh/cq2e89tpf8jkAAAAAgPefABiATdd9n+j7sd7labeKiFXLYua9N8a5p10e9zUWAq+dF4/etTifiai9+4l6PVCb8PzUeLSxMHDF43H/1LzcnOp5MeOpiL6H7R898qrMwnuvjBPP+G5MnpuFoRXRo0/2OfaJqjRX/cSEOPeCiTHnXTls3Xr5501ql8yK+264JE64bEosbOSzVD8xLR7Iy1kv2+nPtNS7tjYmT/t9o8H4nMfubSIMb8z8mPlIeS99x301vnLyiBh13ikxoKIyhl8yPq688KK44faLY3j2gd9TNXH/nXem9z8sRo/omde1VkUcdMwp6b+zYuKv5+V174+1a9dGp+03BLx15vxhXtzwH/8VlZU7xP79++W1Edundd9+++18DgAAAADg/ScABmDTnfzVuPWWH5ane38Tj99+UQzN6lc9Hv85pZEA7w+Px+Ts+a7HXRSXH5deV90Z9zfZc7fOrJj82Py8vMHSaVPrBatNq33+mbgvesbRA/fJa5K5E+PCK6dFdSpWHDg2fjL1N/HbW7PPcXM8/OAP03sbEVdeOyb6NugxHDEoxv37hs/79BP3xK2XDYlstdpp34uJ7+q5WxPTH5yWXnvGuMvHxl6pNH3q71rouZv2NemReLLhrtbOivtu2RCet6w2VubP0t21a4OUt0f/GHXmKTG0V2Ve8R5a8nDclwXzhx4SB3cvV22Sjw+L0d0iFt4yNWa29McBW9FOO+4Yr69cGbW1GzfEnj33iOM/dXSce85Z0aXLhjHFs+cBd+++Uz4HAAAAAPD+EwADsMUqeh0Rww8tlxt7lm5dD9aDBg+Jgwb0TqXamDRtVmlZoz4+KA7qlrb72bSYk1eVLYtHpj6eXofF8BHlmqbMeWpKRLdhcdB+eUU2dPR/T4iXs+Keo+P7N4yJAfWDyqrecfrVX49Re+bzzelYGX1Hj41zSuvWxqLXakrV663vpTwsBozsHYdlxcceiUeaHCK7Ip2b/un1zrhvWoN9PT8tJq2K6DtiWPTNq5pS/eydMf6mO+O5fP7lhyam+Qlx27PlfS58cEJpfvzts0oheKusXRYzbv9eXHrmOXFGms5tYqjv6pnPxPT02rDHdUmDfZxx2Y0x+dkGPaI79o6DRqbXVdNiRvkRu++LXr0+VHp9/vezS691Vr35ZqxZ83Z06NAhr4lYvfqtUs/gD+9b748MAAAAAADeZwJgALbc2qWx9JVycWivhsP/1g3/3DMO7t8z9h04rNQjtvb2aU339Kw6Oo4/rSJi0b3x6At5XWbBwzH5sYiK0QPj4GafYTsvZkytjRg5MPp2zKuqn47p+dDRQ88eXQqYt0xFVOUB8ltr3yoXctVPPV7upXxc/+jbbf84OOv1HKnu8aaGga6NviNHlnpR3zf18XrhbG3M+G02rHL/GDW4Z4Mw/N1qX30iJvxoaszM5xdOuzPNT4zpr5ZD+aXPTyzNT5j2StpnKyyaGpced2qce82d8cAL82JOmmZkQ32PPCuuf3bjPcyZWT65B+3XIAytnRXjR2+8jzkPToqrzj41jhk/q977qIh9PzoovS6OJ2e1vsdzdXVNTLrtzrju3/8zvvmtfytNk++6N18a8bvHZ6yv/861349bJk6K15Y0/czeHXboFp/4xIHx8LRHY/ny7EHKZX/606KYPWduPld2/wMPR6dOnWLQoAPyGgAAAACA958AGIBN91Z1VK+oieoF82LGE1NjwoVfifHZsMO9xsTZn9qlvE6dufnwz3W9cfcbFMOz8LW5YaAfezX2GpY9E3Zx/HDqhp7CC9OxZqbaUcP6RHUeODfqld/H/emYQwf0SWvnXpwV95UKvVN9g/e4GWqfvTcm5eH0vrvX7/NaEzMeLIehQw/ZP6qiMg44ZEhpvrlhoF+OXuVe1FOnxv11PWxr0+e4uzbi4yOib/eWBpCOqBo8Jn4w/vwYns/3PePraf66OHvwZgz5vHZeatdvxgMr0uc7+bK4depD9Ya+nh8Tr5xU7znOy2JhqT2GxL7lDrTrVWchdLZsz9FxQ7aPpx6Kx++8LsYeNyb+7e/7b2ifZK+9s97hETMWtPS85LJsqOYfTrgl/rRwcfT+yIdj2OGfLE0HHvDxfI3U2vXqDxjQv7TNhP/+abz66p/yNd7tmKOPKA0F/T+T7ohX5r9aqhv8iQNjzOdPL5Wznr9T7v1NPPPs8/Gp446OzhXvGjMcAAAAAOB9IwAGYNNNujyOGHFiHHHKOXHuuG/G+CdqIvqcENdePyYGNMjC5jxaHv654rRhMSDrjduxdww9KVupNh54qpHnBec658+Erb19aswodROdH4/eNSui2wlx9MBY/5zbxlT/cVbMyYLej20IepcuqnuecI+o2OTev/PjgZvz4ZPTdP2V4+KYsyeVh5PuNTZGHVLvQ1c/Hff/OisMieFDysfvMfCQGJAVHnsintzQqbSBnnH4iCwofjwmTyv3gK196pG4bVXEgBOGxF6rGgwN3YiKPfvHQYfsX+phndn1I4PS/KAYsOemB5TVD06K8aXgdmxcfcUJ0Tfr7Vwa+vqiuCTLV7Pe2euHal4cLz+WvfaMXRs8/7e27n133yX2yh9JXLH3oBh39dgY0LAddqwsv/dXFrf4vOTMlCm/iYpOneLL530pTjrxUzHs8ENLU6999s7XSOdg1x7r6487dnhp3Q996IMx+Vcbegk3tP3228dnR58aPXbZOX76s1/ExJ/dFg889Eg8Mv138au77o3vff+m+MPcP8app5wYH+v30XwrAAAAAIC2QQAMwKb7+IgYe/aYfDolhvfZJSrmTolLTzkxLiwN91xnXjx6Z3l+1OBy785sqN8DDjuhVFp41+P1epE20LF/HH9mz4hVU+L+Z2ojXnk6Jr8QsdeZI+OgZvPM2njuqakRew6LAb3yqqSiYjN6wa63OKZPyodPTtPEe8vP0K065Pz4yY/HbBhmOql+Ylq5p/HHDokDditVRew9KEZ+LCtMi/uzsLwJPYaNKPXenTnl8ViYPseT0+5Mc8Ni9IiGw2pvfS+/kI+XfXjv2Ku6ptzjuzRVxZ6lz7I4nvtjw566FbFjg7bp0bd/7JsVXrgxvnj2N2PitPlR3VSbd9+lvO7bGw+p3ZRX5i+IAQP2j65du5Tms6Gd77jznkanF2b/obROx44d4xMDD4iV1c0/BTkbCnr06afEZ077u6iqqox5816Kmc+/EDVvrCqFyeO+fLbwFwAAAABokwTAAGy6gafEuPPG5tNFce2td8Rvx4+OvaI2pl/1zbhtQb5e3fDPURH3/8e4OOPMc0rTF//j4fLQv1kv0nIu16i+w0aW9jl52u9jzlNTY070jFGH1gXJTVibPac2HXHEoOibV2Wqdq0bpnl+LG2yF25TeseYq68rDad8+cg84dxzdHz/+tExIO/VWrZh+OdYNDmuyD/vGWd+MyblPZYfeLD+M34b6D4kRmbPC35+ajw69/cxPeukOmJYDG3Qq3brWxYv/TEv1vX2rjddOClf9nb+2pw+Y+K/bhgdfbtFVKfPdf0lZ8URR50TV901P7XsluvQoUNeinij5o3482tLGp2yZwXX2a5j63/9+Wifj8Sok0fGueecFePOHxuf/9xp8ckhBxn2GQAAAABoswTAALwnqgYfkj97dla8tKAc7b38zLTS8M9Zr9ylc+fFnBfyae6yPPxbHJMfa3oY6OgzIsZ8PG1990/j+imzIvYcGYeVep8248Wn44FV9Xsc5/brH8eXCovjkZn1eym3Ro/Yd2B5OOXT/+GiGJpVLZoU191ZN6x0rvb38WRp+OdkxfwNnzdNL9eFzlOnxfQmA+jKGHpy9uzjWXHvdT+NyelzHD9iSGyUMf9NVMaue+bFEeeXgu/Gpi8f1vBZyrWxspFUt8eh58etD94Tv7zu/Di+T0XEqnkx+aqz4nM/btD2K5aVh9XevnNptiX7fOiD8fLLG9rgwx/uVRriubHpkIM/ka8V8dJLr0TlDjvkcwAAAAAAxSIABuC9Ub0sD3sj7x05P2ZMKQd8Qy+/OR6ees9G008uLAe0pWGgS6XG9IzDTugfserpmPF8xIAzR2zUq7cx5dB5RBz88QY9NKsGxdAR5eLMWybHjFXl8kbW1kR1Y/X17XZCfHncPqXizPE3xn1LSsWS2qeeiNuyQrfRcUODz/vwvVfFqNJa02L6U00PA10x8PAY1S3t+6mno7bbKTFq2JYMXb25KmKvffMAfVHEroPL4XfDqW9dp+rUTvsemr0ujr82FW53rIx9h42Oq2+9J249L7Vp8vKPp8XMUim3sqb8HerVM9bvuhlHDx8Wry74U/z01l/EzOdnxfz5C0rTG29saMS33357ff2cOfPizl9Nif/79HNxzIgj8zUAAAAAAIpFAAzAFqtdOi9uu+o78UBpblj0/Uh6yZ/Zmw2fPHTwPlHVvXKjacCQYbFXtjgbBnpuVmjcXiNOyXsW94+Rh7T0LNxlMeeJeREf6x/7vqvbbGUc/6Wx5WfMLpoUF5x9Y0xftKG7au2ip2P8uafGMV+fEgubekZtru/o8+P0bqmw6vH4P//9eN6bue6ZvcnIgXFwg89btdugGJoN75zc9+DTTQ8DXTEoRmXPPs6KJx0eB2z1kYYrYse8t+9f39zwrvY9dGQMyAovTIjrb5+38XN71y5rMIz2LrFX6XnLj8fLr5YqNlg0LSbeVX/7ithr7zze7V5RHgo8t3BB+Q8GDtq7Yc/ixu2xx+7xuc9+Ov785yVx193/GxN/dltp+tVdpacwlzz08KPr62+/465SCPyp446O/v1b+lMCAAAAAID2SQAMwKa7ZVwMGnzk+mnIcefENdOyGLQyhl91fhzfPeLlJ+4t9+zdc1gMKIWDDew3KIZnIWo2DPSjzQwD3X1InHnZmBh72Zfj+L3zuqbUzo3npkXsddT+5aC3oT5j4oarhpWGVK6dOykuPPnYDZ/h5EtiwrO1UfvqC/GHpeXVm9RtSJxz6ZBSsfb2G2NiFmDXPh3Tby9VxfGD998o2CyrjAMOKW8Tv54WM5pMgCP6jjg/xp49Jr71mUGN7Oe91jP2/Xi5NGf8V+KKXy8rz+x9Slx95ZB0/NqY/t1z4piTxsUV102Iay5L5aNOjRNuqgu+y/oOKHevnvFivWGx186LCRdeGddftWH78ddcHqdenRop2feUIfV6dNfGy394Or32jIP7txT0b7Dfh3vFJRefH+ee88UY8/nTS9PfnVwe7DtzxLBD19ef/aUvxGX/+A8x+BMH5ksBAAAAAIpHAAzAFqvq1TuGn3ZR/ODee+LakVl4t2H454oRgxoftrlj/zj6tHK8ufDOx2NOk71uK2PA6LExbnT/lp+F+8IzMTkqYvjABs//rWevkVfFPbdeFqd/vOHQyuk4p10Wt/74shi+W17VjB4npPdUCrbnx/j/mBIvP5EP/xxD4qABjQ/b3GPI4eXnB8fUuPexpoeBjl7DYtx5Y2N4Y8H5e64yhn52TDkwX7Us7ntm7vpgd6+Tr4kp48fG0N0qonbJrLjv1olx24PzorpySJxzaHkY7DpVAwaWPtucR38f6/Pzjr1jzPXXxLhhu0Tk20+4/fFYuqoyDjrvuvivM+u109p5MePe9NptWBy0X7mqtbbbbrv4wAd6xD777F2adtih9JcFJZ06dVpfn/UY3n777fMlAAAAAADF1GHFylXr8jJAu7dTVde8RGNmz54b/fr1yeeKZ86PPxdnjB8SNzx2UQxtTdfZVTVRnaednasqo6JjubxNqs2ff1xRGVUb8tP1alfUxFtZoWNFVFU1dnJr4r7LT4wrpg6Lq6deVeoFvpG6/SeNnutnb4whZ0+KD5z3w7j77KYDfAAAAABg21b0+9zvBT2AASiI+THzwcURxw1s/XNzu214Ru82Hf5msuA3OxeNhL+ZirpnGTca/mYq4+hTTomKmBaTpqZ2aKhu/42e69qY8ds703/7x5jjhL8AAAAAAFtCAAxAMSz5fUx/IeKgwb1bHiqaraJi8Ki45OMRM2+4LabnvX1b5ZUpMX5SbVScNiZGtfScZwAAAAAAmtXx8n++4ht5GaDd69K5U16iMX/969LSs1ILaU3n2PWQYXHs4D6xc5e8jr+t7bpH715dY+VeA+O4gT2jW2v/zGztO2nbqjj6c6dEX+k9AAAAANCMQt/nfo94BjBQKJ4B3DzPRgAAAAAAoD1zn7tlhoAGAAAAAAAAKAgBMAAAAAAAAEBBCIABAAAAAAAACkIADAAAAAAAAFAQAmAAAAAAAACAghAAAwAAAAAAABSEABgAAAAAAACgIATAAAAAAAAAAAUhAAYAAAAAAAAoCAEwAAAAAAAAQEEIgAEAAAAAAAAKQgAMAAAAAAAAUBACYAAAAAAAAICCEAADAAAAAAAAFIQAGAAAAAAAAKAgOqxYuWpdXgZo93aq6pqXaMzs2XOjX78++dzmWZd+atSuebs0vfOOHyEAAAAAADRvu+06REWn7UtThw555WZ6L+5zF50ewAC02pq310b1G2/GW2+tEf4CAAAAANAq2f3k7L5ydn85u8/M1iUABqBVsh/Kq96sLfUAFv0CAAAAALApsvvK2f3l7D6zEHjrEgAD0KLsh/Kbq2vzOQAAAAAA2HzZ/ebsvjNbhwAYgBZlz/vV7RcAAAAAgPfEuvy+M1uFABiAFmU/iOW/AAAAAAC8F7L7zQLgrafDipWr3NMHCmOnqq55icbMnj03+vXrk8+13uvVb+alpnV69JHofM/d0fGVl/Ma2rK1vfaNt048KdYcdnhe0zRt235o12LalHYFAAAAaE82557+5t7n3pboAQzAFsuCpG7/cYMgqR3J2iprs6ztmqNt2xftWkytbVcAAAAAyAiAAdhiWS9C2qeW2k7btk/atZi0GwAAAACtIQAGYIvpRdh+tdR22rZ90q7FpN0AAAAAaA0BMAAAAAAAAEBBCIABAAAAAACgnVtZXRMPT3sibrv93hh/48T475/8Iu6ecn/MfH5OrFu3Ll+LbYEAGAA214BDIw7eL5+hOFKbDk9t2zOfpSB2jxh6ZETvfBYAAACgQLKQ95Zb7ohnnn0hFi16LdaseTtWrqyJF198NR548HelULimZlW+NkUnAAbgb6fnARHDB+czDbUUzuTLB6TXhg5uor53Ota5l6Zp9Lv3m72XbNlZx+YVjci2b/L9Jp+9KOJLJ+Qz27im2iDT3LJMFqQPTe3RUFPfl6z+rAsjLhjTyH73Ky9rrM0zB6f6S1K7f6aZdo3Uppektj0kn92WZddAY22TafZ6zmRBemPXdGqzpq715tpnwClpWWrb4+q/n/wYDadG33P6nl2Q9u2SBQAAAArm2edeKIW8b69dm9e82+LFS2LSL+6J1avfymsosg4rVq7S5xsojJ2quuYlGjN79tzo169PPtd6r1e/mZcat9PnPpOXmjI64qYTI3ruHNFxQcSJ5+f1uStujBiwd8QOqTw1rffv5eqNXJDWOS6tM3NCxNfuzOuujfjkhyN2rNi4PnPwhRGXHxmx5LU0UxmxW03ENem4T9YtOzZieXovFVmAODviq1ek34KyDeucEnHr2LTvRt5vnW9Nitjl0Yjzbsgr2qfX/+cXeendWmzb5tqguWV1Bqa2+H9TW6x5Ln1NUhuUNPN96Zna5d9Su7yZ6len/X4wte0taR+/TO2cLftOWhZp2RupPuvBe8ul5WWZi9N3aFiqX5y+Czumdn/joSbaLu3vnsMifpTex+S8qh3aonYdns7B59M52DVdlKvrt02mheu5zr+k62Ng2r7+Nd3ctd5c+2TLjtol4k/L0ntK2//1NxHjsmXnRdze4I84OqXvxRvpPZ9R/z1n0vdjUvp+/K6Jf2PaiebaFQAAANj2LF26PH56669aPcRzn977xsjjj8zn3n+bc09/c+9zb0v0AAbgb+CpiNsmRPwuD+Ia+u2kiB88ls80IgsJs/Bn8Rt5Re7hOyJ+NCWiQXXJF46NeOnOiPPOT9OlEfN3jzjpxPKy09IvOH+6J2JsWjbmplRxQFq/QY/Bf/ls2m8T77cxTfZyzXsoNtcDtuG2mzq09JFp+zPOyGdyu+4a8fWvR1RU5BVbSXNt0NyyknTOz07vfWnD89zM9+WcUyPeTN+VrO3GjY14sjad39HlZV9I7bs2LRuTtfmYdPy0bFRdOJnWPSqd4ztS/bhU99X0vnY9LH0n8sVNaa6Xa9ZOzfWAfde22XdhE4eWfr/advbDET+7MWJeY43XwvWcGXV1RP+aiL/m83WavNaba5/UvkPTssnp34Fs2cXp2Lum6/vc7JpJ1+9p6TtRN12Qrvk16T3/sqU/ymimLUrtls57k6MRNNw2vY9NHVr6/bxmAQAAgEJ55rkXNgp/P/+5v4sDBvQrlTtXVMTo00+M/v03hKVz570cb6xqvsNPfT/+8cQ49dQzYv78BXnNBj/96c/jmGNOiiVL/pLX0FYIgAH4G3gx4oGHIlbX5vMNPJmWPVCTzzSUh4Qv3ROxNus2WM/Mx9J2y/KZBmrTsTrWBSmvRby5Ji+fErFPqp+ZBb+Z30TMWx7R55h8PsnCqwHp/Tz257yiGV32i5h0R8RXL4z41oSI8em1ZHB5/lffi/hyvuxf0rHrZL2Hr700YkLa9vL0+q0bIy4+MeI7EyO+keavTNut31cLtks/zrMw6ayzyvNZkHTNNRH77lue35qaa4PmlmUuOC9i95ciZjf8XjTzfSm1a17OvFlvnT13jlg0O59JrnsuYuf0y24pREzrZV+BTllomCxO76vpEXHKhmft+f9F/MM3Ujumdvl0vu3I1D63pu9j1k7ZsjtS2x1cXlTuPZy2uyBrv7TtRWn5ren7dNLXIm7/blo/vd6U9jUqX70l71fbLk7nLmuDRpqgxes5u8ZOT9ftk6n9G/4BZ5PXejPt88l0jXVJ1/CP88B58Z3p/1TeSNdoHvzXd0G6hl5JbVPX67sxH05tc0feFj9M19/FeUjfM207Pl2XN6V2y67Z6+stK/UeTssuS+2ZteNFadvxqd1PGhsxMb1mw1Zn61+QPndrvJ/XLAAAAFAoCxdufB/kd088E0cecUgcdugn4vTPnBDbd+wY8+a9nC8tW/inVtz3rGf58uVx8cVfjT/9aWFeE/Gzn02KCRNubnXPY/62BMAAtG1ZSLjr7Ih/m5hXtNJtD0Xsc0LEdy6MGJGm/ZZF3H1PWpANP/vGxj0TV2ZDzu6cz2ThVb+Ih29Mv9nkVc3ZsTLip5eVex9e9Vg6Zl3PxKci5j8XcemJ5WU/nxMxMJUHljcr6X1AxG/Ttqem+qfSexrxpYhlk9J8Wv+XL6Z9peX112/KAw9E/PCHEZ/5TDr2uRH/+q8RHTpE/NM/lQPTtqiuV/f/fDfinbyuNW5ObVhxaMT4r6XzNTrtpyJ9/nTOMjVrInZJ7Vvn4LQs+6OBXtlM+v5MT78Mn3RtOSS8OLXT8kfTd6K0ZiPSdrWpPceltjh1bMS8NF/Xm3hx2s8DaT9ZO536jbSfdMzTx5SXlaT277ugvO156f3ukNrx9PRZv1O3fvquDa2/fjPaY9uWes+n6++aZsL/d2mmfX6XBcbp/K0PzdP5zf4IYOc8LK7TM/1b0T+dk9ta+LeiazrOP2VtkY4zPV3kR6W2yHrzLk5tNus3qc3SsuyazZYNTZ9lvfQdGNAp4p/Tsr+7IX3G1O5/n76L/5O+F6XvSFrlwFY+YLg9tisAAADQJq1q0Jv3pZdeLT0P+KDBA6JL185xx+RfR21tXeeYsmXLX89LLTvrrM/H4YcfGitWrIiLLrosFi5cFLffPjl+9KOfRKdOneKaa66K3Xb7QL42bYUAGIC2qy4kvO2G2Pj5vK3xRsTyNPU4rBwmLXqq/PzflpTCq8cirkvrt8aS5yLufrFcfnJC+X32TsfL/CC973m7RwwdHbFbVlEZsU9pSdniGRE/z7f9Y/aXemm6Jgupkx9n9Q3Wb86vfhVx660RJ52UNkvbZUHSXxuOv9tWHFDu1T3n58331GxU+mV1+fKILv0iLhgTsXZ2xGP5Pu5+NJ3ndO5vurrco/of03Gy323regy/viy1bW3EJ8+LGJG+V0+ldm5S+u5Mz9sza5ffpePsvHc5kH9mYsSPHkrtPDj9BnxoOkbaZ2XdHxBk0ra/vba87eLflf/YYEF6b6XvX/peLUrLN1q/Be2pbeuGfv5h+vybqsn2mRQxM72cmc77N74RMTFdV1nOX78neOYLB6Xzktqppet81rfKYW3m5rR+x7Szo7OZdC3/Z9bm+6Vznb5bXdJ76dJg1IH/e0W+7W/S1yItz67/e/Nrd36aKhus35x2dc0CAAAAbVXnzhs/TqpTp+2j/8d6x+rVb8UO3brGR/Z79w3GTp0a3lhp2nbbbRff+MYVceyxR8eyZcvj/PMvivHjfxAVFRXxr//6LzF48KDyirQpAmAA2qg8JFy5IGKfMeUhVrNsZZdU/+V6Qyk36tiIC06ImPW9iLGjI757Z8TuaZtrm+l1mQ03m4VXWcCXPc4iO96Bu6RCZbk8IhVb9Fp5P6Vwb/e03Y3l4YH//qDS0mbVvJUXNtPO6ZjDhkW88UY6T+lEDR+eL2iDsl7dH0zvc/l+5XP7wXSOO6ZzfUmqb7bHczqn//yliNfvSO2a2vLSmyLWDI745tfKi5+8IeKf0jRrecT830RcnKYsjH0lvYz4RsRJe0R8f2zEGWmanBp5VNruCw16kTalNBxxep/Z78sHp+2zobu/fVHER1Nds54rh9Bbot20bT70c9aTdmhq10tSOft/iQ+m8ln5H0U0pdn2SdfV1y6M+Nmj6d+DZRE3p/pZNen7kwWv9fRK6y7KkuJNsLg2/Sf9T9Ku2Uw+bHs2PPSn+mYVzWvwl7ObrD1dswAAAECbtWuPjTsaHP+pI6Oic0X89NbJ8dup0+OoI4fEPh/aK19a9oFde+Sl1slC4Msv/8dSCFxdXRNdu3aN6677dgwceEC+Bm2NABiAtmvWYxEzN+15FGV9I3Z+bUMv3ocnpOnFiL2zUOeliJU7lMOiOrvtUg6TauZEPDAjveb1myz9wtMpvSxbEDH8/DRVRnwvvY69NL2XV8urbA1ZkPTtb0d06RJx4YURN98cceaZ5eFl26JFz6X2SFNLz+B9l0Mjdl8T8eSd5dl590RMmpnqsu6guXm/ifj+tRE/SOv0z54duyziiVS/f2rvrLdmqXdoausfpTZ5qSLiY2mfrVHZOf0nfTGyfX3hlPQdmhJx2piIr30rtfeWJrzNaFdt+0bEUw9FvLgZF1CL7ZPqfnlTuo5uiJia9r9nWj+7ztZLbZKFuEvzHvStNTAL8NP7znZ1dmrPPmnf2fDQ466IeHZThrDeRO3tmgUAAADarA9/+EN5qezFF+fHbb+YEjU1q2LWC/PirrunRk32B+i5rl27xF571bs32kodOnQohcAXXfTluO66a6J//4/lS2iLBMAAtFHPRfzntRHX1Zuy31OWZfV5ANiktGJt+iXm4sH5fCrvs0fEm9kO7omYuzzi42PLi3pmoc8OETMnRUyduPHxSgFQTbk8NVv3lIjrvxfx6Xq/IO2cfsHqnZc/m/a1ezpGFlDulgVLadu5r6XXtP7Z+5VW2SpGjcp+c4v0G1jEa+l4v/hFOVA666zy0LJtTSnIq3ee/5TO09p0rq9L9c/k6zQqtdubqa0OTu1QZ8DeG56ZmrVP1mu8VE6vo1P7z3msPBTz62md3fqlbcuLS+tmzfhG2mep5+eNEefWfV8y6TgfrrevI/qm95m+e4vTazrV8WYeDvY+Me0nrbu1tKu2/c3G7XpdOl9ZyP+nVL45643djGbbJ/n78+pdZ5eltknnYnL9fwfS9yB7tnfW27u+T38tXbNpyp7xW2fP0XkhXZOfOyAd44/pO5lmd07nc236LpaGeE7L+qd/M7aW9nbNAgAAAG1WNtzz7ruVhjcryULfbPjnOq/MXxhLl67I5yKGH/XJ6Nix9UNA15eFwKNGnRR9+/bJa2irBMAAbH0X3xhxzz0RI7KemmnKypOuLi+LC8vz9+RDxI7IypMiRpVnm3ZK2ke27thSVhcD0mu2n4uzZRMifjYzYtg3Im6/I+KONN9nWcRt6TXzg1SXhX53pNebRkcsSNv9IAtqWzA4bdM7C4b65RXJyk4R3077yY7zhQ9HTJ8YMTnV//zRiOXps96UHT99/oE15QB7a8g+x1e+EvHner2ls0DpggsiatJxt5rm2qC5ZS1o8vvyUMR/pvJ+aV/ZZ87O+REVEXenc5454oCIkZfm7Zpe1z4W8W/5sh9/K+LZtO4V+XY3pX0sT8v/O+0z61mcBcn96w9Zszwd+vwN++oyJ617Q6pPrzMXlD9Ptp9vps+5Mg8pt4b3q22/la7B7LwPSI23QzovWfmmdK1mmr2em9PMtd5s+xyZrp+jIq5N9XekbT63e8Qv03uo/6zf4dlw7Y04ML333ul6XX/JpouwSzp+dl7v+F7ER9I5vDlr12TqcxGd0vqlZen97LAVz+/71a4AAABA4WSh7EknDo/u3XfMa5p22KGfiN4f6ZXPUWQdVqxctS4vA7R7O1VlXfNoyuzZc6Nfv03/66zXq9/MS43b6XNtddjS3SOG9ouoXRDx5It5XT0HHxmxenbEzFaEv3UOHpz2lQ8tvd5+EcPTsWbnvU3Xy4//2kN5r8K26fX/+UVeerc227ZZ21Usj5j+XF5RJz/nK5to154HRPTbOWJBgzYZkNr1L6ldN2q/ZMChEV3Sfhp+f3qn9bPhqN91/LajXbZrU+2Tyc55ljk/0PD6a066NrNexa1uv6au5bajuXYFAAAAtl1r1qyJR6Y/FTOfn5PXbFBZ2S2OPebw+NDee+Y1bcfm3NPf3Pvc2xIBMFAoAuDmbXsBMK3RLoNCWqRdi0kADAAAADQnG/55yZKl8Ze/LotuXbvEBz7QI3r06F7qKdwWCYC3DkNAAwAAAAAAQAF06dI5PvShPeMTg/aPfv0+ErvuunObDX/ZegTAAAAAAAAAAAUhAAYAAAAAAAAoCAEwAFtsba998xLtTUttp23bJ+1aTNoNAAAAgNYQAAOwxd468aS8RHvTUttp2/ZJuxaTdgMAAACgNTpe/s9XfCMvA7R7XTp3yks05q9/XRof+ECPfK711ry9Ntaty2ca8c6H9ol3evaM7ZYsie1WrMhracuynoSrv3BmrDns8Lymcdq2fdGuxdTadgUAAABoT7bbrkN0rtg+n2u9zb3PvS3psGLlqmZu6QO0LztVdc1LNGb27LnRr1+ffK713qp9O956a034gQEAAAAAwJbqkKbOnTttVgC8ufe5tyWGgAagRRWd0g/h7CcyAAAAAABsqQ75fWe2CgEwAC3qkH4Yd+1Skc8BAAAAAMDmy+43Z/ed2ToEwAC0SqftO0a3ruUfyn4uAwAAAACwKbL7ytn95ew+c3a/ma1HAAxAq2U/lKt26Fp6NkP2gH4AAAAAAGhJdj85u6+c3V8W/m59HVasXLUuLwO0eztVdc1LNMbD8QEAAAAAaM/c526ZHsAAAAAAAAAABSEABgAAAAAAACgIATAAAAAAAABAQQiAAQAAAAAAAApCAAwAAAAAAABQEAJgAAAAAAAAgIIQAAMAAAAAAAAUhAAYAAAAAAAAoCAEwAAAAAAAAAAFIQAGAAAAAAAAKAgBMAAAAAAAAEBBCIABAAAAAAAACkIADAAAAAAAAFAQAmAAAAAAAACAguiwYuWqdXkZoN3bqaprXqIxs2fPjX79+uRzm+edd96JZctWRE1NTaxe/VasW1fMHyMdOnSILl06R2VlZeyyS/fYbjt/MwUAAAAA8H57L+5zF50AGCgUAXDztvQHY3V1Tfz5z0tKweiOO1ZF165doqKiIl9aLLW1tfHmm6tj5crqUtC9xx67RVVVZb4UAAAAAID3gwC4ZbozAdAqWfi7ePFrpSB07733ip122rGw4W8m+2zZZ8w+6+67f6D02bNzAAAAAAAAbZkAGIAWZcM+Zz1/99prj22yF2zW23nPPfconYPsXAAAAAAAQFslAAagRdkzf3fYoVuadshrtj2VlTuUzkF2LgAAAAAAoK0SAAPQopqamth55+753LYrOwfZuQAAAAAAgLZKAAxAi1avfisqKjrlc9uuTp22L50LAAAAAABoqwTAALRo3bp10bFjx3xu27X99tuXzgUAAAAAALRVAmAAAAAAAACAghAAAwAAAAAAABSEABgAAAAAAACgIATAALQ9a2ujuro2nwEAAAAAAFpLAAzAVlP9yuNx200TYvxNd8Z9LyzLa1vh+QlxxBW/jaX57JaqfvC7MWTEjTFDpgwAAAAAQMEJgAHYKpbee3kcc/ZtsXDP/nHwvhHPjT8zzvjxvHg/MtiqAUfHJecNi74V5fmld10eF961CYE0AAAAAAC0EwJgALaC+XH/zx+P0ddcF185eUgcdNwpcfn4O+Ino3tHnsG2Xm1NVK/Ky41puLyx4aN7DIrTT+sfVfksAAAAAAAUlQAYgK2gKiq6R7y8YHE+n6mIim55ccmUuHDw5TF5ST6fzLzhyI175da+GpOvHhef/uJX4osnHxlHXD41Fq7Nlz17Ywz67rSYecsl8ekzxsWJw45N2y6OpY/dGF8cPS6+eMqxpfXXDyGdrX/hlNJ8dpxjrno8pl91agwa3OCYAAAAAADQzgmAAdgKdomR542NldefFcdccmPc90JNXr8JXpgfVZ/51/jlrT+MX/765hj32jfj+qn19nP3xHjkY1fFL2+/OR6+ZUy8fO058e0FI+O/bk/r33VNHD11Utz/Sr5uPQMufCh+cmbE0CvviKefeihuOHmXfAkAAAAAALR/AmAAtoqKj42Jn0y9Ob514NKYdOGJMeSM78YDi/KFrXHg4XF0n8pyueM+cdjJg+KBZ36/4RnCB46Kzw7Ol3+kdxy2av8YetQ+5SGmu/WJAYfOi4UrSksBAAAAAGCbIQAGYOup6BkHnfn1+Mmv74n/OuaV+NqFk+LlfNGm6tKxImLR0qjO5zdSURWd8yIAAAAAAGzLBMAAbH0dK2PACSPj4Feeieey5/523PS4duWbSyN69Ywe+TwAAAAAAPBuAmAA3ntLpsal4ybEjEXrB2yOpc88E0/2GhgH7JZmevSMj3abHy+/mi9fMCV+dHu5uN4rr8ZLdd19q5+OyT+riTHD988rtkzV7r1j+h8beUAwAAAAAAC0cwJgAN57uw2LccfVxPgzj40hI8+JT484Mk64uXN864bRsW9phf4x6tJ9YtJ5p8anzzgrvnhLVYz5ypDSkvUGV8acy8+KT595ThxzwpWx8MxrYtyBpSf8brF9jxodQydfHseccU6ce/v8vBYAAAAAANq/DitWrlqXlwHavZ2quuYlGjN79tzo169PPtd6m7tdpra6Jt7qWBlV3fKK+lbVRHU0sSyXbR/dKqOiY17xXllbG9XVEVXdNy1U3pJzAQAAAADAlnGPtmV6AAOwVVVUNRPwdms+/M1k27/n4W+mY8Umh78AAAAAANDWCYABAAAAAAAACkIADAAAAAAAAFAQAmAAAAAAAACAghAAAwAAAAAAABSEABgAAAAAAACgIATAALSoQ4cOUVu7Jp/bdtXW1pbOBQAAAAAAtFUCYABa1KVL51i9enU+t+1avfqt0rkAAAAAAIC2SgAMQIsqKytj+fLX87lt17Jly0vnAgAAAAAA2ioBMAAt2mWX7qXhj1eurM5rtj2vv74y1qx5u3QuAAAAAACgrRIAA9Ci7bbbLvbYY7f485+XRHV1TV677ciC79de+0vpHGTnAgAAAAAA2ip3sQFolaqqyujZc/dSCLxgwcJSj9isV3BRZZ8t+4zZZ83C3+yzZ+cAAAAAAADasg4rVq5al5cB2r2dqrrmJRoze/bc6NevTz63ed55551YtmxF1NTUxOrVb8W6dcX8MdKhQ4fo0qVz6Zm/2bDPev4CAAAAALz/3ov73EUnAAYKRQDcPD8YAQAAAABoz9znbpnuTAAAAAAAAAAFIQAGAAAAAAAAKAgBMAAAAAAAAEBBCIABAAAAAAAACkIADAAAAAAAAFAQAmAAAAAAAACAghAAA2xDOnToEO+8804+BwAAAAAA7Ud2fzu7z03zBMAA25AuXTrH6tVv5XMAAAAAANB+ZPe3s/vcNE8ADLANqaysjNdfX5nPAQAAAABA+5Hd387uc9M8ATDANmSXXbpHTc0bpQkAAAAAANqLunvb2X1umicABtiGbLfddrHHHrvFwoWLhcAAAAAAALQL2f3s7L52dn87u89N8zqsWLlqXV4GaPd2quqal2hOdXVN/PnPS6KycofYaacdS89M8EMTAAAAAIC24p133ik98zcb9jkLgLPwt6rK8M+tIQAGCkUA3HrZD89ly1akH5w1pR+i69b5cQAAAAAAQNvQoUOHUuel7Jm/2bDPOjG1ngAYKBQBMAAAAAAAsC0TlQMAAAAAAAAUhAAYAAAAAAAAoCAEwAAAAAAAAAAFIQAGAAAAAAAAKAgBMAAAAAAAAEBBCIABAAAAAAAACkIADAAAAAAAAFAQAmAAAAAAAACAghAAAwAAAAAAABSEABgAAAAAAACgIATAAAAAAAAAAAUhAAYAAAAAAAAoCAEwAAAAAAAAQEEIgAEAAAAAAAAKQgAMAAAAAAAAUBACYAAAAAAAAICCEAADAAAAAAAAFIQAGAAAAAAAAKAgBMAAAAAAAAAABSEABgAAAAAAACgIATAAAAAAAABAQQiAAQAAAAAAAApCAAwAAAAAAABQEAJgAAAAAAAAgIIQAAMAAAAAAAAUhAAYAAAAAAAAoCAEwAAAAAAAAAAFIQAGAAAAAAAAKAgBMAAAAAAAAEBBCIABAAAAAAAACkIADAAAAAAAAFAQAmAAAAAAAACAghAAAwAAAAAAABSEABgAAAAAAACgIATAAAAAAAAAAAUhAAYAAAAAAAAoCAEwAAAAAAAAQEEIgAEAAAAAAAAKQgAMAAAAAAAAUBACYAAAAAAAAICCEAADAAAAAAAAFIQAGAAAAAAAAKAgBMAAAAAAAAAABSEABgAAAAAAACgIATAAAAAAAABAQQiAAQAAAAAAAApCAAwAAAAAAABQEAJgAAAAAAAAgIIQAAMAAAAAAAAUhAAYAAAAAAAAoCAEwAAAAAAAAAAFIQAGAAAAAAAAKAgBMAAAAAAAAEBBCIABAAAAAAAACkIADAAAAAAAAFAQAmAAAAAAAACAghAAAwAAAAAAABSEABgAAAAAAACgIATAAAAAAAAAAAUhAAYAAAAAAAAoCAEwAAAAAAAAQEEIgAEAAAAAAAAKQgAMAAAAAAAAUBACYAAAAAAAAICCEAADAAAAAAAAFIQAGAAAAAAAAKAgBMAAAAAAAAAABSEABgAAAAAAACgIATAAAAAAAABAQQiAAQAAAAAAAApCAAwAAAAAAABQEAJgAAAAAAAAgIIQAAMAAAAAAAAUhAAYAAAAAAAAoCAEwAAAAAAAAAAFIQAGAAAAAAAAKAgBMAAAAAAAAEBBCIABAAAAAAAACkIADAAAAAAAAFAQAmAAAAAAAACAghAAAwAAAAAAABSEABgAAAAAAACgIATAAAAAAAAAAAUhAAYAAAAAAAAoCAEwAAAAAAAAQEEIgAEAAAAAAAAKQgAMAAAAAAAAUBACYAAAAAAAAICCEAADAAAAAAAAFIQAGAAAAAAAAKAgBMAAAAAAAAAABSEABgAAAAAAACgIATAAAAAAAABAQQiAAQAAAAAAAApCAAwAAAAAAABQEAJgAAAAAAAAgIIQAAMAAAAAAAAUhAAYAAAAAAAAoCAEwAAAAAAAAAAFIQAGAAAAAAAAKAgBMAAAAAAAAEBBCIABAAAAAAAACkIADAAAAAAAAFAQAmAAAAAAAACAghAAAwAAAAAAABSEABgAAAAAAACgIATAAAAAAAAAAAUhAAYAAAAAAAAoCAEwAAAAAAAAQEEIgAEAAAAAAAAKQgAMAAAAAAAAUBACYAAAAAAAAICCEAADAAAAAAAAFIQAGAAAAAAAAKAgBMAAAAAAAAAABSEABgAAAAAAACgIATAAAAAAAABAQQiAAQAAAAAAAApCAAwAAAAAAABQEAJgAAAAAAAAgIIQAAMAAAAAAAAUhAAYAAAAAAAAoCAEwAAAAAAAAAAFIQAGAAAAAAAAKAgBMAAAAAAAAEBBCIABAAAAAAAACkIADAAAAAAAAFAQAmAAAAAAAACAghAAAwAAAAAAABSEABgAAAAAAACgIATAAAAAAAAAAAUhAAYAAAAAAAAoCAEwAAAAAAAAQEEIgAEAAAAAAAAKQgAMAAAAAAAAUBACYAAAAAAAAICCEAADAAAAAAAAFIQAGAAAAAAAAKAgBMAAAAAAAAAABSEABgAAAAAAACgIATAAAAAAAABAQQiAAQAAAAAAAApCAAwAAAAAAABQEAJgAAAAAAAAgIIQAAMAAAAAAAAUhAAYAAAAAAAAoCAEwAAAAAAAAAAFIQAGAAAAAAAAKAgBMAAAAAAAAEBBCIABAAAAAAAACkIADAAAAAAAAFAQAmAAAAAAAACAghAAAwAAAAAAABSEABgAAAAAAACgIATAAAAAAAAAAAUhAAYAAAAAAAAoCAEwAAAAAAAAQEEIgAEAAAAAAAAKQgAMAAAAAAAAUBACYAAAAAAAAICCEAADAAAAAAAAFIQAGAAAAAAAAKAgBMAAAAAAAAAABSEABgAAAAAAACgIATAAAAAAAABAQQiAAQAAAAAAAApCAAwAAAAAAABQEAJgAAAAAAAAgIIQAAMAAAAAAAAUhAAYAAAAAAAAoCAEwAAAAAAAAAAFIQAGAAAAAAAAKAgBMAAAAAAAAEBBCIABAAAAAAAACkIADAAAAAAAAFAQAmAAAAAAAACAghAAAwAAAAAAABSEABgAAAAAAACgIATAAAAAAAAAAAUhAAYAAAAAAAAoCAEwAAAAAAAAQEEIgAEAAAAAAAAKQgAMAAAAAAAAUBACYAAAAAAAAICCEAADAAAAAAAAFIQAGAAAAAAAAKAgBMAAAAAAAAAABSEABgAAAAAAACgIATAAAAAAAABAQQiAAQAAAAAAAApCAAwAAAAAAABQEAJgAAAAAAAAgIIQAAMAAAAAAAAUhAAYAAAAAAAAoCAEwAAAAAAAAAAFIQAGAAAAAAAAKAgBMAAAAAAAAEBBCIABAAAAAAAACkIADAAAAAAAAFAQAmAAAAAAAACAghAAAwAAAAAAABSEABgAAAAAAACgIATAAAAAAAAAAAUhAAYAAAAAAAAoCAEwAAAAAAAAQEEIgAEAAAAAAAAKQgAMAAAAAAAAUBACYAAAAAAAAICCEAADAAAAAAAAFIQAGAAAAAAAAKAgBMAAAAAAAAAABSEABgAAAAAAACgIATAAAAAAAABAQQiAAQAAAAAAAApCAAwAAAAAAABQEAJgAAAAAAAAgIIQAAMAAAAAAAAUhAAYAAAAAAAAoCAEwAAAAAAAAAAFIQAGAAAAAAAAKAgBMAAAAAAAAEBBCIABAAAAAAAACkIADAAAAAAAAFAQAmAAAAAAAACAghAAAwAAAAAAABSEABgAAAAAAACgIATAAAAAAAAAAAUhAAYAAAAAAAAoCAEwAAAAAAAAQEEIgAEAAAAAAAAKQgAMAAAAAAAAUBACYAAAAAAAAICCEAADAAAAAAAAFIQAGAAAAAAAAKAgBMAAAAAAAAAABSEABgAAAAAAACgIATAAAAAAAABAQQiAAQAAAAAAAApCAAwAAAAAAABQEAJgAAAAAAAAgEKI+P8B3rZNLNT2XHQAAAAASUVORK5CYII=;" parent="1" vertex="1">
          <mxGeometry width="1920" height="1040" as="geometry" />
        </mxCell>
        <mxCell id="9JxhCkAgs9ULRW4WqkVQ-2" value="" style="rounded=0;whiteSpace=wrap;html=1;fillColor=none;strokeWidth=5.1181;strokeColor=#67AB9F;" parent="1" vertex="1">
          <mxGeometry x="370" y="290" width="450" height="60" as="geometry" />
        </mxCell>
        <mxCell id="9JxhCkAgs9ULRW4WqkVQ-3" value="" style="endArrow=classic;html=1;rounded=0;edgeStyle=orthogonalEdgeStyle;strokeWidth=5.1181;strokeColor=#67AB9F;exitX=1;exitY=0.5;exitDx=0;exitDy=0;" parent="1" source="9JxhCkAgs9ULRW4WqkVQ-2" target="9JxhCkAgs9ULRW4WqkVQ-9" edge="1">
          <mxGeometry width="50" height="50" relative="1" as="geometry">
            <mxPoint x="820" y="320" as="sourcePoint" />
            <mxPoint x="1189" y="247" as="targetPoint" />
          </mxGeometry>
        </mxCell>
        <mxCell id="9JxhCkAgs9ULRW4WqkVQ-9" value="Tab for selection of analysis type" style="text;html=1;align=center;verticalAlign=middle;whiteSpace=wrap;rounded=0;fontFamily=Computer Modern;fontSize=29;" parent="1" vertex="1">
          <mxGeometry x="840" y="180" width="410" height="30" as="geometry" />
        </mxCell>
        <mxCell id="9JxhCkAgs9ULRW4WqkVQ-10" value="" style="rounded=0;whiteSpace=wrap;html=1;fillColor=none;strokeWidth=5.1181;strokeColor=#67AB9F;" parent="1" vertex="1">
          <mxGeometry x="370" y="367" width="270" height="120" as="geometry" />
        </mxCell>
        <mxCell id="9JxhCkAgs9ULRW4WqkVQ-12" value="" style="endArrow=classic;html=1;rounded=0;edgeStyle=orthogonalEdgeStyle;strokeWidth=5.1181;strokeColor=#67AB9F;exitX=1;exitY=0.5;exitDx=0;exitDy=0;" parent="1" source="9JxhCkAgs9ULRW4WqkVQ-10" target="9JxhCkAgs9ULRW4WqkVQ-13" edge="1">
          <mxGeometry width="50" height="50" relative="1" as="geometry">
            <mxPoint x="819" y="426" as="sourcePoint" />
            <mxPoint x="1188" y="353" as="targetPoint" />
          </mxGeometry>
        </mxCell>
        <mxCell id="9JxhCkAgs9ULRW4WqkVQ-13" value="Selection of human genome assembly version&amp;nbsp;" style="text;html=1;align=center;verticalAlign=middle;whiteSpace=wrap;rounded=0;fontFamily=Computer Modern;fontSize=29;" parent="1" vertex="1">
          <mxGeometry x="1090" y="240" width="340" height="76" as="geometry" />
        </mxCell>
        <mxCell id="9JxhCkAgs9ULRW4WqkVQ-17" value="" style="rounded=0;whiteSpace=wrap;html=1;fillColor=none;strokeWidth=5.1181;strokeColor=#67AB9F;" parent="1" vertex="1">
          <mxGeometry x="370" y="497" width="490" height="103" as="geometry" />
        </mxCell>
        <mxCell id="9JxhCkAgs9ULRW4WqkVQ-18" value="" style="endArrow=classic;html=1;rounded=0;edgeStyle=orthogonalEdgeStyle;strokeWidth=5.1181;strokeColor=#67AB9F;exitX=0;exitY=0.5;exitDx=0;exitDy=0;" parent="1" source="9JxhCkAgs9ULRW4WqkVQ-17" target="9JxhCkAgs9ULRW4WqkVQ-19" edge="1">
          <mxGeometry width="50" height="50" relative="1" as="geometry">
            <mxPoint x="819" y="556" as="sourcePoint" />
            <mxPoint x="1188" y="483" as="targetPoint" />
          </mxGeometry>
        </mxCell>
        <mxCell id="9JxhCkAgs9ULRW4WqkVQ-19" value="Selection of the region for the analysis (one gene)" style="text;html=1;align=center;verticalAlign=middle;whiteSpace=wrap;rounded=0;fontFamily=Computer Modern;fontSize=29;" parent="1" vertex="1">
          <mxGeometry x="20" y="630" width="340" height="76" as="geometry" />
        </mxCell>
        <mxCell id="9JxhCkAgs9ULRW4WqkVQ-20" value="" style="rounded=0;whiteSpace=wrap;html=1;fillColor=none;strokeWidth=5.1181;strokeColor=#67AB9F;" parent="1" vertex="1">
          <mxGeometry x="870" y="497" width="510" height="143" as="geometry" />
        </mxCell>
        <mxCell id="9JxhCkAgs9ULRW4WqkVQ-21" value="" style="endArrow=classic;html=1;rounded=0;edgeStyle=orthogonalEdgeStyle;strokeWidth=5.1181;strokeColor=#67AB9F;exitX=1;exitY=0.5;exitDx=0;exitDy=0;" parent="1" source="9JxhCkAgs9ULRW4WqkVQ-20" target="9JxhCkAgs9ULRW4WqkVQ-22" edge="1">
          <mxGeometry width="50" height="50" relative="1" as="geometry">
            <mxPoint x="1329" y="556" as="sourcePoint" />
            <mxPoint x="1698" y="483" as="targetPoint" />
          </mxGeometry>
        </mxCell>
        <mxCell id="9JxhCkAgs9ULRW4WqkVQ-22" value="Selection of the region for the analysis (one, multiple or all exons)&amp;nbsp;" style="text;html=1;align=center;verticalAlign=middle;whiteSpace=wrap;rounded=0;fontFamily=Computer Modern;fontSize=29;" parent="1" vertex="1">
          <mxGeometry x="1320" y="320" width="400" height="116" as="geometry" />
        </mxCell>
        <mxCell id="9JxhCkAgs9ULRW4WqkVQ-23" value="" style="rounded=0;whiteSpace=wrap;html=1;fillColor=none;strokeWidth=5.1181;strokeColor=#67AB9F;" parent="1" vertex="1">
          <mxGeometry x="380" y="647" width="400" height="93" as="geometry" />
        </mxCell>
        <mxCell id="9JxhCkAgs9ULRW4WqkVQ-24" value="" style="endArrow=classic;html=1;rounded=0;edgeStyle=orthogonalEdgeStyle;strokeWidth=5.1181;strokeColor=#67AB9F;exitX=1;exitY=0.5;exitDx=0;exitDy=0;" parent="1" source="9JxhCkAgs9ULRW4WqkVQ-23" target="9JxhCkAgs9ULRW4WqkVQ-25" edge="1">
          <mxGeometry width="50" height="50" relative="1" as="geometry">
            <mxPoint x="839" y="706" as="sourcePoint" />
            <mxPoint x="1208" y="633" as="targetPoint" />
          </mxGeometry>
        </mxCell>
        <mxCell id="9JxhCkAgs9ULRW4WqkVQ-25" value="Selection of the alignment map file(s)" style="text;html=1;align=center;verticalAlign=middle;whiteSpace=wrap;rounded=0;fontFamily=Computer Modern;fontSize=29;" parent="1" vertex="1">
          <mxGeometry x="680" y="780" width="460" height="60" as="geometry" />
        </mxCell>
      </root>
    </mxGraphModel>
  </diagram>
</mxfile>
